{
.appVersion = "3201";
.formatVersion = 3;
DisplayStrings = (
"AÁĂÂȀÄÀȂĀĄÅÃÆBCĆČÇĊDĎĐÐEÉĚÊȄËĖÈȆĒĘFGĞĢĠHĦIĲÍÎȈÏİÌȊĪĮJKĶLĹĽĻŁMNŃŇŅÑŊOÓÔȌÖÒŐȎŌØÕŒPÞQRŔŘŖȐȒSŚŠŞȘẞTŤŢȚUÚŬÛȔÜÙŰȖŪŲŮVWẂŴẄẀXYÝŶŸỲZŹŽŻaáăâȁäàȃāąåãæbcćčçċdďđðeéěêȅëėèȇēęfgğģġhħiıíîȉï/idotaccent ìȋīįĳjȷkķlĺľļłmnńňņñŋoóôȍöòőȏōøõœpþqrŕřŗȑȓsśšşșßtťţțuúŭûȕüùűȗūųůvwẃŵẅẁxyýŷÿỳzźžż/g.alt"
);
customParameters = (
{
name = "Use Typo Metrics";
value = 1;
},
{
name = fsType;
value = (
);
}
);
date = "2023-07-13 14:03:05 +0000";
familyName = Shanti;
featurePrefixes = (
{
automatic = 1;
code = "languagesystem DFLT dflt;

languagesystem latn dflt;
";
name = Languagesystems;
}
);
features = (
{
automatic = 1;
code = "feature sups;
feature frac;
feature ordn;
";
tag = aalt;
},
{
automatic = 1;
code = "lookup ccmp_latn_1 {
	sub fi by f i;
	sub fl by f l;
} ccmp_latn_1;

script latn;
lookup ccmp_latn_1;
";
tag = ccmp;
},
{
automatic = 1;
code = "sub one by onesuperior;
sub two by twosuperior;
sub three by threesuperior;
sub four by foursuperior;
";
tag = sups;
},
{
automatic = 1;
code = "sub one slash four by onequarter;
sub one slash two by onehalf;
sub three slash four by threequarters;
";
tag = frac;
},
{
automatic = 1;
code = "sub [zero one two three four five six seven eight nine] [A a]' by ordfeminine;
sub [zero one two three four five six seven eight nine] [O o]' by ordmasculine;
";
tag = ordn;
},
{
automatic = 1;
code = "lookupflag IgnoreMarks;
sub f i by fi;
sub f l by fl;
";
tag = liga;
}
);
fontMaster = (
{
customParameters = (
{
name = typoAscender;
value = 2030;
},
{
name = typoDescender;
value = -639;
},
{
name = typoLineGap;
value = 0;
},
{
name = winAscent;
value = 2030;
},
{
name = winDescent;
value = 639;
},
{
name = underlineThickness;
value = 102;
},
{
name = underlinePosition;
value = -154;
},
{
name = strikeoutPosition;
value = 512;
},
{
name = strikeoutSize;
value = 102;
},
{
name = hheaAscender;
value = 2030;
},
{
name = hheaDescender;
value = -639;
},
{
name = hheaLineGap;
value = 0;
},
{
name = TTFStems;

glyphs = (
{
glyphname = A;
lastChange = "2023-07-13 14:31:02 +0000";
layers = (
{
anchors = (
{
name = bottom;
pos = (648,0);
},
{
name = ogonek;
pos = (1166,10);
},
{
name = top;
pos = (648,1412);
}
);
background = {
anchors = (
{
name = bottom;
pos = (648,0);
},
{
name = ogonek;
pos = (1166,10);
},
{
name = top;
pos = (648,1412);
}
);
shapes = (
{
closed = 1;
nodes = (
(19,64,l),
(553,1412,l),
(746,1412,l),
(1273,59,l),
(1273,0,l),
(1084,0,l),
(932,396,l),
(349,396,l),
(195,0,l),
(19,0,l)
);
},
{
closed = 1;
nodes = (
(547,928,l),
(414,568,l),
(869,568,l),
(739,928,l),
(644,1198,l)
);
}
);
};
layerId = "01C703B5-1257-45FB-9F79-4B1C4C3BA1BB";
shapes = (
{
closed = 1;
nodes = (
(19,64,l),
(553,1412,l),
(746,1412,l),
(1273,59,l),
(1273,0,l),
(1084,0,l),
(932,396,l),
(349,396,l),
(195,0,l),
(19,0,l)
);
},
{
closed = 1;
nodes = (
(547,928,l),
(414,568,l),
(869,568,l),
(739,928,l),
(644,1198,l)
);
}
);
width = 1295;
}
);
unicode = 65;
},
{
glyphname = Aacute;
lastChange = "2023-07-13 14:31:29 +0000";
layers = (
{
background = {
anchors = (
{
name = bottom;
pos = (648,0);
},
{
name = ogonek;
pos = (1166,10);
},
{
name = top;
pos = (648,1412);
}
);
shapes = (
{
closed = 1;
nodes = (
(584,1564,l),
(752,1873,l),
(971,1873,l),
(715,1564,l)
);
},
{
closed = 1;
nodes = (
(19,64,l),
(553,1412,l),
(746,1412,l),
(1273,59,l),
(1273,0,l),
(1084,0,l),
(932,396,l),
(349,396,l),
(195,0,l),
(19,0,l)
);
},
{
closed = 1;
nodes = (
(547,928,l),
(414,568,l),
(869,568,l),
(739,928,l),
(644,1198,l)
);
}
);
};
layerId = "01C703B5-1257-45FB-9F79-4B1C4C3BA1BB";
shapes = (
{
ref = A;
},
{
pos = (205,428);
ref = acutecomb;
}
);
width = 1295;
}
);
unicode = 193;
},
{
glyphname = Abreve;
lastChange = "2023-07-13 14:31:29 +0000";
layers = (
{
background = {
anchors = (
{
name = bottom;
pos = (648,0);
},
{
name = ogonek;
pos = (1166,10);
},
{
name = top;
pos = (648,1412);
}
);
shapes = (
{
closed = 1;
nodes = (
(479,1883,l),
(486,1770,o),
(535,1701,o),
(646,1701,cs),
(795,1701,o),
(816,1832,o),
(821,1883,c),
(920,1883,l),
(917,1674,o),
(831,1564,o),
(646,1564,cs),
(391,1564,o),
(379,1793,o),
(379,1883,c)
);
},
{
closed = 1;
nodes = (
(19,64,l),
(553,1412,l),
(746,1412,l),
(1273,59,l),
(1273,0,l),
(1084,0,l),
(932,396,l),
(349,396,l),
(195,0,l),
(19,0,l)
);
},
{
closed = 1;
nodes = (
(547,928,l),
(414,568,l),
(869,568,l),
(739,928,l),
(644,1198,l)
);
}
);
};
layerId = "01C703B5-1257-45FB-9F79-4B1C4C3BA1BB";
shapes = (
{
ref = A;
},
{
pos = (376,428);
ref = brevecomb;
}
);
width = 1295;
}
);
unicode = 258;
},
{
glyphname = Acircumflex;
lastChange = "2023-07-13 14:31:29 +0000";
layers = (
{
background = {
anchors = (
{
name = bottom;
pos = (648,0);
},
{
name = ogonek;
pos = (1166,10);
},
{
name = top;
pos = (648,1412);
}
);
shapes = (
{
closed = 1;
nodes = (
(811,1564,l),
(648,1790,l),
(482,1564,l),
(301,1564,l),
(561,1922,l),
(743,1922,l),
(999,1564,l)
);
},
{
closed = 1;
nodes = (
(19,64,l),
(553,1412,l),
(746,1412,l),
(1273,59,l),
(1273,0,l),
(1084,0,l),
(932,396,l),
(349,396,l),
(195,0,l),
(19,0,l)
);
},
{
closed = 1;
nodes = (
(547,928,l),
(414,568,l),
(869,568,l),
(739,928,l),
(644,1198,l)
);
}
);
};
layerId = "01C703B5-1257-45FB-9F79-4B1C4C3BA1BB";
shapes = (
{
ref = A;
},
{
pos = (246,428);
ref = circumflexcomb;
}
);
width = 1295;
}
);
unicode = 194;
},
{
glyphname = Adblgrave;
lastChange = "2023-07-13 14:31:29 +0000";
layers = (
{
background = {
anchors = (
{
name = bottom;
pos = (648,0);
},
{
name = ogonek;
pos = (1166,10);
},
{
name = top;
pos = (648,1412);
}
);
shapes = (
{
closed = 1;
nodes = (
(872,1564,l),
(736,1564,l),
(488,1857,l),
(705,1857,l)
);
},
{
closed = 1;
nodes = (
(564,1564,l),
(427,1564,l),
(179,1857,l),
(395,1857,l)
);
},
{
closed = 1;
nodes = (
(19,64,l),
(553,1412,l),
(746,1412,l),
(1273,59,l),
(1273,0,l),
(1084,0,l),
(932,396,l),
(349,396,l),
(195,0,l),
(19,0,l)
);
},
{
closed = 1;
nodes = (
(547,928,l),
(414,568,l),
(869,568,l),
(739,928,l),
(644,1198,l)
);
}
);
};
layerId = "01C703B5-1257-45FB-9F79-4B1C4C3BA1BB";
shapes = (
{
ref = A;
},
{
ref = dblgravecomb;
}
);
width = 1295;
}
);
unicode = 512;
},
{
glyphname = Adieresis;
lastChange = "2023-07-13 14:31:29 +0000";
layers = (
{
background = {
anchors = (
{
name = bottom;
pos = (648,0);
},
{
name = ogonek;
pos = (1166,10);
},
{
name = top;
pos = (648,1412);
}
);
shapes = (
{
closed = 1;
nodes = (
(571,1736,l),
(571,1564,l),
(349,1564,l),
(349,1736,l)
);
},
{
closed = 1;
nodes = (
(949,1736,l),
(949,1564,l),
(727,1564,l),
(727,1736,l)
);
},
{
closed = 1;
nodes = (
(19,64,l),
(553,1412,l),
(746,1412,l),
(1273,59,l),
(1273,0,l),
(1084,0,l),
(932,396,l),
(349,396,l),
(195,0,l),
(19,0,l)
);
},
{
closed = 1;
nodes = (
(547,928,l),
(414,568,l),
(869,568,l),
(739,928,l),
(644,1198,l)
);
}
);
};
layerId = "01C703B5-1257-45FB-9F79-4B1C4C3BA1BB";
shapes = (
{
ref = A;
},
{
pos = (243,428);
ref = dieresiscomb;
}
);
width = 1295;
}
);
unicode = 196;
},
{
glyphname = Agrave;
lastChange = "2023-07-13 14:31:29 +0000";
layers = (
{
background = {
anchors = (
{
name = bottom;
pos = (648,0);
},
{
name = ogonek;
pos = (1166,10);
},
{
name = top;
pos = (648,1412);
}
);
shapes = (
{
closed = 1;
nodes = (
(585,1564,l),
(312,1873,l),
(542,1873,l),
(714,1564,l)
);
},
{
closed = 1;
nodes = (
(19,64,l),
(553,1412,l),
(746,1412,l),
(1273,59,l),
(1273,0,l),
(1084,0,l),
(932,396,l),
(349,396,l),
(195,0,l),
(19,0,l)
);
},
{
closed = 1;
nodes = (
(547,928,l),
(414,568,l),
(869,568,l),
(739,928,l),
(644,1198,l)
);
}
);
};
layerId = "01C703B5-1257-45FB-9F79-4B1C4C3BA1BB";
shapes = (
{
ref = A;
},
{
pos = (285,428);
ref = gravecomb;
}
);
width = 1295;
}
);
unicode = 192;
},
{
glyphname = Ainvertedbreve;
lastChange = "2023-07-13 14:31:29 +0000";
layers = (
{
background = {
anchors = (
{
name = bottom;
pos = (648,0);
},
{
name = ogonek;
pos = (1166,10);
},
{
name = top;
pos = (648,1412);
}
);
shapes = (
{
closed = 1;
nodes = (
(379,1564,l),
(379,1653,o),
(391,1883,o),
(646,1883,cs),
(831,1883,o),
(917,1773,o),
(920,1564,c),
(821,1564,l),
(816,1615,o),
(795,1746,o),
(646,1746,cs),
(535,1746,o),
(486,1677,o),
(479,1564,c)
);
},
{
closed = 1;
nodes = (
(19,64,l),
(553,1412,l),
(746,1412,l),
(1273,59,l),
(1273,0,l),
(1084,0,l),
(932,396,l),
(349,396,l),
(195,0,l),
(19,0,l)
);
},
{
closed = 1;
nodes = (
(547,928,l),
(414,568,l),
(869,568,l),
(739,928,l),
(644,1198,l)
);
}
);
};
layerId = "01C703B5-1257-45FB-9F79-4B1C4C3BA1BB";
shapes = (
{
ref = A;
},
{
ref = breveinvertedcomb;
}
);
width = 1295;
}
);
unicode = 514;
},
{
color = 9;
glyphname = Amacron;
lastChange = "2023-07-13 14:31:29 +0000";
layers = (
{
background = {
anchors = (
{
name = bottom;
pos = (648,0);
},
{
name = ogonek;
pos = (1166,10);
},
{
name = top;
pos = (648,1787);
}
);
shapes = (
{
closed = 1;
nodes = (
(19,64,l),
(553,1412,l),
(746,1412,l),
(1273,59,l),
(1273,0,l),
(1084,0,l),
(932,396,l),
(349,396,l),
(195,0,l),
(19,0,l)
);
},
{
closed = 1;
nodes = (
(547,928,l),
(414,568,l),
(869,568,l),
(739,928,l),
(644,1198,l)
);
},
{
closed = 1;
nodes = (
(376,1787,l),
(919,1787,l),
(919,1670,l),
(376,1670,l)
);
}
);
};
layerId = "01C703B5-1257-45FB-9F79-4B1C4C3BA1BB";
shapes = (
{
ref = A;
},
{
pos = (379,428);
ref = macroncomb;
}
);
width = 1295;
}
);
unicode = 256;
},
{
glyphname = Aogonek;
lastChange = "2023-07-13 14:31:29 +0000";
layers = (
{
background = {
anchors = (
{
name = bottom;
pos = (648,0);
},
{
name = ogonek;
pos = (1166,10);
},
{
name = top;
pos = (648,1412);
}
);
shapes = (
{
closed = 1;
nodes = (
(745,14,l),
(654,-47,o),
(570,-108,o),
(570,-177,cs),
(570,-267,o),
(673,-267,o),
(689,-267,cs),
(726,-267,o),
(749,-256,o),
(781,-237,c),
(781,-333,l),
(730,-360,o),
(677,-385,o),
(594,-385,cs),
(453,-385,o),
(406,-298,o),
(406,-234,cs),
(406,-125,o),
(515,-42,o),
(646,14,c)
);
},
{
closed = 1;
nodes = (
(19,64,l),
(553,1412,l),
(746,1412,l),
(1273,59,l),
(1273,0,l),
(1084,0,l),
(932,396,l),
(349,396,l),
(195,0,l),
(19,0,l)
);
},
{
closed = 1;
nodes = (
(547,928,l),
(414,568,l),
(869,568,l),
(739,928,l),
(644,1198,l)
);
}
);
};
layerId = "01C703B5-1257-45FB-9F79-4B1C4C3BA1BB";
shapes = (
{
ref = A;
},
{
pos = (707,-5);
ref = ogonekcomb;
}
);
width = 1295;
}
);
unicode = 260;
},
{
glyphname = Aring;
lastChange = "2023-07-13 14:31:29 +0000";
layers = (
{
background = {
anchors = (
{
name = bottom;
pos = (648,0);
},
{
name = ogonek;
pos = (1166,10);
},
{
name = top;
pos = (648,1412);
}
);
shapes = (
{
closed = 1;
nodes = (
(650,1799,l),
(574,1799,o),
(505,1742,o),
(505,1657,cs),
(505,1580,o),
(563,1520,o),
(650,1520,cs),
(734,1520,o),
(793,1580,o),
(793,1657,cs),
(793,1742,o),
(724,1799,o),
(648,1799,c)
);
},
{
closed = 1;
nodes = (
(788,1892,o),
(886,1795,o),
(886,1657,cs),
(886,1522,o),
(788,1426,o),
(649,1426,cs),
(510,1426,o),
(412,1522,o),
(412,1657,cs),
(412,1795,o),
(510,1892,o),
(649,1892,cs)
);
},
{
closed = 1;
nodes = (
(19,64,l),
(553,1412,l),
(746,1412,l),
(1273,59,l),
(1273,0,l),
(1084,0,l),
(932,396,l),
(349,396,l),
(195,0,l),
(19,0,l)
);
},
{
closed = 1;
nodes = (
(547,928,l),
(414,568,l),
(869,568,l),
(739,928,l),
(644,1198,l)
);
}
);
};
layerId = "01C703B5-1257-45FB-9F79-4B1C4C3BA1BB";
shapes = (
{
ref = A;
},
{
pos = (245,428);
ref = ringcomb;
}
);
width = 1295;
}
);
unicode = 197;
},
{
glyphname = Atilde;
lastChange = "2023-07-13 14:31:29 +0000";
layers = (
{
background = {
anchors = (
{
name = bottom;
pos = (648,0);
},
{
name = ogonek;
pos = (1166,10);
},
{
name = top;
pos = (648,1412);
}
);
shapes = (
{
closed = 1;
nodes = (
(698,1574,o),
(575,1650,o),
(522,1650,cs),
(479,1650,o),
(459,1627,o),
(438,1564,c),
(342,1564,l),
(342,1700,o),
(428,1795,o),
(528,1795,cs),
(611,1795,o),
(702,1722,o),
(775,1722,cs),
(822,1722,o),
(845,1753,o),
(856,1809,c),
(956,1809,l),
(948,1645,o),
(864,1574,o),
(770,1574,cs)
);
},
{
closed = 1;
nodes = (
(19,64,l),
(553,1412,l),
(746,1412,l),
(1273,59,l),
(1273,0,l),
(1084,0,l),
(932,396,l),
(349,396,l),
(195,0,l),
(19,0,l)
);
},
{
closed = 1;
nodes = (
(547,928,l),
(414,568,l),
(869,568,l),
(739,928,l),
(644,1198,l)
);
}
);
};
layerId = "01C703B5-1257-45FB-9F79-4B1C4C3BA1BB";
shapes = (
{
ref = A;
},
{
pos = (233,428);
ref = tildecomb;
}
);
width = 1295;
}
);
unicode = 195;
},
{
glyphname = AE;
lastChange = "2023-07-13 14:31:02 +0000";
layers = (
{
anchors = (
{
name = bottom;
pos = (907,0);
},
{
name = top;
pos = (907,1412);
}
);
background = {
anchors = (
{
name = bottom;
pos = (907,0);
},
{
name = top;
pos = (907,1412);
}
);
shapes = (
{
closed = 1;
nodes = (
(960,0,l),
(924,410,l),
(389,410,l),
(176,0,l),
(-33,0,l),
(704,1412,l),
(1683,1412,l),
(1683,1237,l),
(1042,1237,l),
(1081,820,l),
(1651,820,l),
(1651,645,l),
(1098,645,l),
(1142,177,l),
(1694,177,l),
(1694,0,l)
);
},
{
closed = 1;
nodes = (
(472,581,l),
(907,581,l),
(848,1245,l),
(807,1245,l)
);
}
);
};
layerId = "01C703B5-1257-45FB-9F79-4B1C4C3BA1BB";
shapes = (
{
closed = 1;
nodes = (
(960,0,l),
(924,410,l),
(389,410,l),
(176,0,l),
(-33,0,l),
(704,1412,l),
(1683,1412,l),
(1683,1237,l),
(1042,1237,l),
(1081,820,l),
(1651,820,l),
(1651,645,l),
(1098,645,l),
(1142,177,l),
(1694,177,l),
(1694,0,l)
);
},
{
closed = 1;
nodes = (
(472,581,l),
(907,581,l),
(848,1245,l),
(807,1245,l)
);
}
);
width = 1814;
}
);
unicode = 198;
},
{
glyphname = B;
lastChange = "2023-07-13 14:31:02 +0000";
layers = (
{
anchors = (
{
name = bottom;
pos = (635,0);
},
{
name = center;
pos = (635,706);
},
{
name = top;
pos = (635,1412);
}
);
background = {
anchors = (
{
name = bottom;
pos = (635,0);
},
{
name = center;
pos = (635,706);
},
{
name = top;
pos = (635,1412);
}
);
shapes = (
{
closed = 1;
nodes = (
(60,1412,l),
(615,1412,ls),
(932,1412,o),
(1122,1319,o),
(1122,1054,cs),
(1122,885,o),
(1006,785,o),
(892,740,c),
(1024,700,o),
(1163,615,o),
(1163,399,cs),
(1163,91,o),
(913,0,o),
(648,0,cs),
(190,0,l),
(190,1242,l),
(60,1242,l)
);
},
{
closed = 1;
nodes = (
(387,821,l),
(637,821,ls),
(769,821,o),
(919,853,o),
(919,1037,cs),
(919,1220,o),
(780,1242,o),
(631,1242,cs),
(387,1242,l)
);
},
{
closed = 1;
nodes = (
(386,647,l),
(386,170,l),
(678,170,l),
(863,175,o),
(958,250,o),
(958,410,cs),
(958,546,o),
(874,647,o),
(677,647,cs)
);
}
);
};
layerId = "01C703B5-1257-45FB-9F79-4B1C4C3BA1BB";
shapes = (
{
closed = 1;
nodes = (
(60,1412,l),
(615,1412,ls),
(932,1412,o),
(1122,1319,o),
(1122,1054,cs),
(1122,885,o),
(1006,785,o),
(892,740,c),
(1024,700,o),
(1163,615,o),
(1163,399,cs),
(1163,91,o),
(913,0,o),
(648,0,cs),
(190,0,l),
(190,1242,l),
(60,1242,l)
);
},
{
closed = 1;
nodes = (
(387,821,l),
(637,821,ls),
(769,821,o),
(919,853,o),
(919,1037,cs),
(919,1220,o),
(780,1242,o),
(631,1242,cs),
(387,1242,l)
);
},
{
closed = 1;
nodes = (
(386,647,l),
(386,170,l),
(678,170,l),
(863,175,o),
(958,250,o),
(958,410,cs),
(958,546,o),
(874,647,o),
(677,647,cs)
);
}
);
width = 1269;
}
);
unicode = 66;
},
{
glyphname = C;
lastChange = "2023-07-13 14:31:02 +0000";
layers = (
{
anchors = (
{
name = bottom;
pos = (618,0);
},
{
name = top;
pos = (618,1412);
}
);
background = {
anchors = (
{
name = bottom;
pos = (618,0);
},
{
name = top;
pos = (618,1412);
}
);
shapes = (
{
closed = 1;
nodes = (
(1162,93,l),
(1001,12,o),
(859,-26,o),
(730,-26,cs),
(283,-26,o),
(105,325,o),
(105,735,cs),
(105,1226,o),
(432,1442,o),
(730,1442,cs),
(949,1442,o),
(1151,1322,o),
(1196,1095,c),
(1009,1051,l),
(988,1190,o),
(868,1268,o),
(732,1268,cs),
(537,1268,o),
(313,1114,o),
(313,737,cs),
(313,438,o),
(406,149,o),
(749,149,cs),
(849,149,o),
(963,182,o),
(1096,247,c)
);
}
);
};
layerId = "01C703B5-1257-45FB-9F79-4B1C4C3BA1BB";
shapes = (
{
closed = 1;
nodes = (
(1162,93,l),
(1001,12,o),
(859,-26,o),
(730,-26,cs),
(283,-26,o),
(105,325,o),
(105,735,cs),
(105,1226,o),
(432,1442,o),
(730,1442,cs),
(949,1442,o),
(1151,1322,o),
(1196,1095,c),
(1009,1051,l),
(988,1190,o),
(868,1268,o),
(732,1268,cs),
(537,1268,o),
(313,1114,o),
(313,737,cs),
(313,438,o),
(406,149,o),
(749,149,cs),
(849,149,o),
(963,182,o),
(1096,247,c)
);
}
);
width = 1236;
}
);
unicode = 67;
},
{
glyphname = Cacute;
lastChange = "2023-07-13 14:31:29 +0000";
layers = (
{
background = {
anchors = (
{
name = bottom;
pos = (618,0);
},
{
name = top;
pos = (618,1412);
}
);
shapes = (
{
closed = 1;
nodes = (
(665,1564,l),
(833,1873,l),
(1052,1873,l),
(796,1564,l)
);
},
{
closed = 1;
nodes = (
(1162,93,l),
(1001,12,o),
(859,-26,o),
(730,-26,cs),
(283,-26,o),
(105,325,o),
(105,735,cs),
(105,1226,o),
(432,1442,o),
(730,1442,cs),
(949,1442,o),
(1151,1322,o),
(1196,1095,c),
(1009,1051,l),
(988,1190,o),
(868,1268,o),
(732,1268,cs),
(537,1268,o),
(313,1114,o),
(313,737,cs),
(313,438,o),
(406,149,o),
(749,149,cs),
(849,149,o),
(963,182,o),
(1096,247,c)
);
}
);
};
layerId = "01C703B5-1257-45FB-9F79-4B1C4C3BA1BB";
shapes = (
{
ref = C;
},
{
pos = (175,428);
ref = acutecomb;
}
);
width = 1236;
}
);
unicode = 262;
},
{
glyphname = Ccaron;
lastChange = "2023-07-13 14:31:29 +0000";
layers = (
{
background = {
anchors = (
{
name = bottom;
pos = (618,0);
},
{
name = top;
pos = (618,1412);
}
);
shapes = (
{
closed = 1;
nodes = (
(821,1564,l),
(637,1564,l),
(414,1874,l),
(591,1874,l),
(727,1694,l),
(858,1874,l),
(1045,1874,l)
);
},
{
closed = 1;
nodes = (
(1162,93,l),
(1001,12,o),
(859,-26,o),
(730,-26,cs),
(283,-26,o),
(105,325,o),
(105,735,cs),
(105,1226,o),
(432,1442,o),
(730,1442,cs),
(949,1442,o),
(1151,1322,o),
(1196,1095,c),
(1009,1051,l),
(988,1190,o),
(868,1268,o),
(732,1268,cs),
(537,1268,o),
(313,1114,o),
(313,737,cs),
(313,438,o),
(406,149,o),
(749,149,cs),
(849,149,o),
(963,182,o),
(1096,247,c)
);
}
);
};
layerId = "01C703B5-1257-45FB-9F79-4B1C4C3BA1BB";
shapes = (
{
ref = C;
},
{
pos = (340,428);
ref = caroncomb;
}
);
width = 1236;
}
);
unicode = 268;
},
{
glyphname = Ccedilla;
lastChange = "2023-07-13 14:31:29 +0000";
layers = (
{
background = {
anchors = (
{
name = bottom;
pos = (700,-439);
},
{
name = top;
pos = (622,1412);
}
);
shapes = (
{
closed = 1;
nodes = (
(1166,93,l),
(1005,12,o),
(863,-26,o),
(734,-26,cs),
(287,-26,o),
(109,325,o),
(109,735,cs),
(109,1226,o),
(436,1442,o),
(734,1442,cs),
(953,1442,o),
(1155,1322,o),
(1200,1095,c),
(1013,1051,l),
(992,1190,o),
(872,1268,o),
(736,1268,cs),
(541,1268,o),
(317,1114,o),
(317,737,cs),
(317,438,o),
(410,149,o),
(753,149,cs),
(853,149,o),
(967,182,o),
(1100,247,c)
);
},
{
closed = 1;
nodes = (
(900,-316,o),
(858,-439,o),
(641,-439,cs),
(581,-439,o),
(537,-427,o),
(500,-412,c),
(526,-313,l),
(553,-324,o),
(592,-330,o),
(632,-330,cs),
(700,-330,o),
(748,-304,o),
(748,-256,cs),
(748,-203,o),
(686,-189,o),
(641,-189,cs),
(630,-189,o),
(623,-189,o),
(615,-190,c),
(562,-163,l),
(674,18,l),
(785,18,l),
(714,-97,l),
(843,-116,o),
(900,-160,o),
(900,-248,cs)
);
}
);
};
layerId = "01C703B5-1257-45FB-9F79-4B1C4C3BA1BB";
shapes = (
{
ref = C;
},
{
pos = (384,0);
ref = cedillacomb;
}
);
width = 1236;
}
);
unicode = 199;
},
{
color = 9;
glyphname = Cdotaccent;
lastChange = "2023-07-13 14:31:29 +0000";
layers = (
{
background = {
anchors = (
{
name = bottom;
pos = (618,0);
},
{
name = top;
pos = (618,1838);
}
);
shapes = (
{
closed = 1;
nodes = (
(1162,93,l),
(1001,12,o),
(859,-26,o),
(730,-26,cs),
(283,-26,o),
(105,325,o),
(105,735,cs),
(105,1226,o),
(432,1442,o),
(730,1442,cs),
(949,1442,o),
(1151,1322,o),
(1196,1095,c),
(1009,1051,l),
(988,1190,o),
(868,1268,o),
(732,1268,cs),
(537,1268,o),
(313,1114,o),
(313,737,cs),
(313,438,o),
(406,149,o),
(749,149,cs),
(849,149,o),
(963,182,o),
(1096,247,c)
);
},
{
closed = 1;
nodes = (
(523,1838,l),
(713,1838,l),
(713,1625,l),
(523,1625,l)
);
}
);
};
layerId = "01C703B5-1257-45FB-9F79-4B1C4C3BA1BB";
shapes = (
{
ref = C;
},
{
pos = (346,428);
ref = dotaccentcomb;
}
);
width = 1236;
}
);
unicode = 266;
},
{
glyphname = D;
lastChange = "2023-07-13 14:31:02 +0000";
layers = (
{
anchors = (
{
name = bottom;
pos = (700,0);
},
{
name = center;
pos = (700,706);
},
{
name = top;
pos = (700,1412);
}
);
background = {
anchors = (
{
name = bottom;
pos = (700,0);
},
{
name = center;
pos = (700,706);
},
{
name = top;
pos = (700,1412);
}
);
shapes = (
{
closed = 1;
nodes = (
(1289,171,o),
(970,0,o),
(568,0,cs),
(190,0,l),
(190,1242,l),
(50,1242,l),
(50,1412,l),
(592,1412,ls),
(1000,1412,o),
(1289,1206,o),
(1289,706,cs)
);
},
{
closed = 1;
nodes = (
(1080,1037,o),
(946,1242,o),
(595,1242,cs),
(385,1242,l),
(385,170,l),
(554,170,l),
(922,175,o),
(1080,334,o),
(1080,699,cs)
);
}
);
};
layerId = "01C703B5-1257-45FB-9F79-4B1C4C3BA1BB";
shapes = (
{
closed = 1;
nodes = (
(1289,171,o),
(970,0,o),
(568,0,cs),
(190,0,l),
(190,1242,l),
(50,1242,l),
(50,1412,l),
(592,1412,ls),
(1000,1412,o),
(1289,1206,o),
(1289,706,cs)
);
},
{
closed = 1;
nodes = (
(1080,1037,o),
(946,1242,o),
(595,1242,cs),
(385,1242,l),
(385,170,l),
(554,170,l),
(922,175,o),
(1080,334,o),
(1080,699,cs)
);
}
);
width = 1400;
}
);
unicode = 68;
},
{
glyphname = Dcaron;
lastChange = "2023-07-13 14:31:29 +0000";
layers = (
{
background = {
anchors = (
{
name = bottom;
pos = (700,0);
},
{
name = center;
pos = (700,706);
},
{
name = top;
pos = (700,1412);
}
);
shapes = (
{
closed = 1;
nodes = (
(761,1564,l),
(577,1564,l),
(354,1874,l),
(531,1874,l),
(667,1694,l),
(798,1874,l),
(985,1874,l)
);
},
{
closed = 1;
nodes = (
(1289,171,o),
(970,0,o),
(568,0,cs),
(190,0,l),
(190,1242,l),
(50,1242,l),
(50,1412,l),
(592,1412,ls),
(1000,1412,o),
(1289,1206,o),
(1289,706,cs)
);
},
{
closed = 1;
nodes = (
(1080,1037,o),
(946,1242,o),
(595,1242,cs),
(385,1242,l),
(385,170,l),
(554,170,l),
(922,175,o),
(1080,334,o),
(1080,699,cs)
);
}
);
};
layerId = "01C703B5-1257-45FB-9F79-4B1C4C3BA1BB";
shapes = (
{
ref = D;
},
{
pos = (422,428);
ref = caroncomb;
}
);
width = 1400;
}
);
unicode = 270;
},
{
glyphname = Dcroat;
lastChange = "2023-07-13 14:31:29 +0000";
layers = (
{
background = {
anchors = (
{
name = bottom;
pos = (700,0);
},
{
name = center;
pos = (700,706);
},
{
name = top;
pos = (700,1412);
}
);
shapes = (
{
closed = 1;
nodes = (
(1289,171,o),
(970,0,o),
(568,0,cs),
(190,0,l),
(190,1242,l),
(50,1242,l),
(50,1412,l),
(592,1412,ls),
(1000,1412,o),
(1289,1206,o),
(1289,706,cs)
);
},
{
closed = 1;
nodes = (
(1080,1037,o),
(946,1242,o),
(595,1242,cs),
(385,1242,l),
(385,170,l),
(554,170,l),
(922,175,o),
(1080,334,o),
(1080,699,cs)
);
}
);
};
layerId = "01C703B5-1257-45FB-9F79-4B1C4C3BA1BB";
shapes = (
{
ref = Eth;
}
);
width = 1403;
}
);
unicode = 272;
},
{
glyphname = Eth;
lastChange = "2023-07-13 14:31:02 +0000";
layers = (
{
background = {
shapes = (
{
closed = 1;
nodes = (
(73,640,l),
(73,808,l),
(192,808,l),
(192,1412,l),
(674,1412,ls),
(1090,1412,o),
(1294,1072,o),
(1294,725,cs),
(1294,296,o),
(1071,0,o),
(651,0,cs),
(192,0,l),
(192,640,l)
);
},
{
closed = 1;
nodes = (
(389,1240,l),
(389,808,l),
(565,808,l),
(565,640,l),
(389,640,l),
(389,171,l),
(637,171,ls),
(936,171,o),
(1084,403,o),
(1084,713,cs),
(1084,978,o),
(944,1240,o),
(677,1240,cs)
);
}
);
};
layerId = "01C703B5-1257-45FB-9F79-4B1C4C3BA1BB";
shapes = (
{
closed = 1;
nodes = (
(73,640,l),
(73,808,l),
(192,808,l),
(192,1412,l),
(674,1412,ls),
(1090,1412,o),
(1294,1072,o),
(1294,725,cs),
(1294,296,o),
(1071,0,o),
(651,0,cs),
(192,0,l),
(192,640,l)
);
},
{
closed = 1;
nodes = (
(389,1240,l),
(389,808,l),
(565,808,l),
(565,640,l),
(389,640,l),
(389,171,l),
(637,171,ls),
(936,171,o),
(1084,403,o),
(1084,713,cs),
(1084,978,o),
(944,1240,o),
(677,1240,cs)
);
}
);
width = 1403;
}
);
unicode = 208;
},
{
glyphname = E;
lastChange = "2023-07-13 14:31:02 +0000";
layers = (
{
anchors = (
{
name = bottom;
pos = (569,0);
},
{
name = ogonek;
pos = (1024,10);
},
{
name = top;
pos = (569,1412);
},
{
name = topleft;
pos = (20,1412);
}
);
background = {
anchors = (
{
name = bottom;
pos = (569,0);
},
{
name = ogonek;
pos = (1024,10);
},
{
name = top;
pos = (569,1412);
},
{
name = topleft;
pos = (20,1412);
}
);
shapes = (
{
closed = 1;
nodes = (
(190,1242,l),
(60,1242,l),
(60,1412,l),
(1008,1412,l),
(1008,1242,l),
(386,1242,l),
(386,818,l),
(973,818,l),
(973,643,l),
(386,643,l),
(386,170,l),
(1017,170,l),
(1017,0,l),
(190,0,l)
);
}
);
};
layerId = "01C703B5-1257-45FB-9F79-4B1C4C3BA1BB";
shapes = (
{
closed = 1;
nodes = (
(190,1242,l),
(60,1242,l),
(60,1412,l),
(1008,1412,l),
(1008,1242,l),
(386,1242,l),
(386,818,l),
(973,818,l),
(973,643,l),
(386,643,l),
(386,170,l),
(1017,170,l),
(1017,0,l),
(190,0,l)
);
}
);
width = 1138;
}
);
unicode = 69;
},
{
glyphname = Eacute;
lastChange = "2023-07-13 14:31:29 +0000";
layers = (
{
background = {
anchors = (
{
name = bottom;
pos = (569,0);
},
{
name = ogonek;
pos = (1024,10);
},
{
name = top;
pos = (569,1412);
},
{
name = topleft;
pos = (20,1412);
}
);
shapes = (
{
closed = 1;
nodes = (
(469,1564,l),
(637,1873,l),
(856,1873,l),
(600,1564,l)
);
},
{
closed = 1;
nodes = (
(190,1242,l),
(60,1242,l),
(60,1412,l),
(1008,1412,l),
(1008,1242,l),
(386,1242,l),
(386,818,l),
(973,818,l),
(973,643,l),
(386,643,l),
(386,170,l),
(1017,170,l),
(1017,0,l),
(190,0,l)
);
}
);
};
layerId = "01C703B5-1257-45FB-9F79-4B1C4C3BA1BB";
shapes = (
{
ref = E;
},
{
pos = (126,428);
ref = acutecomb;
}
);
width = 1138;
}
);
unicode = 201;
},
{
glyphname = Ecaron;
lastChange = "2023-07-13 14:31:29 +0000";
layers = (
{
background = {
anchors = (
{
name = bottom;
pos = (569,0);
},
{
name = ogonek;
pos = (1024,10);
},
{
name = top;
pos = (569,1412);
},
{
name = topleft;
pos = (20,1412);
}
);
shapes = (
{
closed = 1;
nodes = (
(625,1564,l),
(441,1564,l),
(218,1874,l),
(395,1874,l),
(531,1694,l),
(662,1874,l),
(849,1874,l)
);
},
{
closed = 1;
nodes = (
(190,1242,l),
(60,1242,l),
(60,1412,l),
(1008,1412,l),
(1008,1242,l),
(386,1242,l),
(386,818,l),
(973,818,l),
(973,643,l),
(386,643,l),
(386,170,l),
(1017,170,l),
(1017,0,l),
(190,0,l)
);
}
);
};
layerId = "01C703B5-1257-45FB-9F79-4B1C4C3BA1BB";
shapes = (
{
ref = E;
},
{
pos = (291,428);
ref = caroncomb;
}
);
width = 1138;
}
);
unicode = 282;
},
{
glyphname = Ecircumflex;
lastChange = "2023-07-13 14:31:29 +0000";
layers = (
{
background = {
anchors = (
{
name = bottom;
pos = (569,0);
},
{
name = ogonek;
pos = (1024,10);
},
{
name = top;
pos = (569,1412);
},
{
name = topleft;
pos = (20,1412);
}
);
shapes = (
{
closed = 1;
nodes = (
(695,1564,l),
(532,1790,l),
(366,1564,l),
(185,1564,l),
(445,1922,l),
(627,1922,l),
(883,1564,l)
);
},
{
closed = 1;
nodes = (
(190,1242,l),
(60,1242,l),
(60,1412,l),
(1008,1412,l),
(1008,1242,l),
(386,1242,l),
(386,818,l),
(973,818,l),
(973,643,l),
(386,643,l),
(386,170,l),
(1017,170,l),
(1017,0,l),
(190,0,l)
);
}
);
};
layerId = "01C703B5-1257-45FB-9F79-4B1C4C3BA1BB";
shapes = (
{
ref = E;
},
{
pos = (167,428);
ref = circumflexcomb;
}
);
width = 1138;
}
);
unicode = 202;
},
{
glyphname = Edblgrave;
lastChange = "2023-07-13 14:31:29 +0000";
layers = (
{
background = {
anchors = (
{
name = bottom;
pos = (569,0);
},
{
name = ogonek;
pos = (1024,10);
},
{
name = top;
pos = (569,1412);
},
{
name = topleft;
pos = (20,1412);
}
);
shapes = (
{
closed = 1;
nodes = (
(757,1564,l),
(621,1564,l),
(373,1857,l),
(590,1857,l)
);
},
{
closed = 1;
nodes = (
(449,1564,l),
(312,1564,l),
(64,1857,l),
(280,1857,l)
);
},
{
closed = 1;
nodes = (
(190,1242,l),
(60,1242,l),
(60,1412,l),
(1008,1412,l),
(1008,1242,l),
(386,1242,l),
(386,818,l),
(973,818,l),
(973,643,l),
(386,643,l),
(386,170,l),
(1017,170,l),
(1017,0,l),
(190,0,l)
);
}
);
};
layerId = "01C703B5-1257-45FB-9F79-4B1C4C3BA1BB";
shapes = (
{
ref = E;
},
{
ref = dblgravecomb;
}
);
width = 1138;
}
);
unicode = 516;
},
{
glyphname = Edieresis;
lastChange = "2023-07-13 14:31:29 +0000";
layers = (
{
background = {
anchors = (
{
name = bottom;
pos = (569,0);
},
{
name = ogonek;
pos = (1024,10);
},
{
name = top;
pos = (569,1412);
},
{
name = topleft;
pos = (20,1412);
}
);
shapes = (
{
closed = 1;
nodes = (
(456,1736,l),
(456,1564,l),
(234,1564,l),
(234,1736,l)
);
},
{
closed = 1;
nodes = (
(834,1736,l),
(834,1564,l),
(612,1564,l),
(612,1736,l)
);
},
{
closed = 1;
nodes = (
(190,1242,l),
(60,1242,l),
(60,1412,l),
(1008,1412,l),
(1008,1242,l),
(386,1242,l),
(386,818,l),
(973,818,l),
(973,643,l),
(386,643,l),
(386,170,l),
(1017,170,l),
(1017,0,l),
(190,0,l)
);
}
);
};
layerId = "01C703B5-1257-45FB-9F79-4B1C4C3BA1BB";
shapes = (
{
ref = E;
},
{
pos = (164,428);
ref = dieresiscomb;
}
);
width = 1138;
}
);
unicode = 203;
},
{
color = 9;
glyphname = Edotaccent;
lastChange = "2023-07-13 14:31:29 +0000";
layers = (
{
background = {
anchors = (
{
name = bottom;
pos = (569,0);
},
{
name = ogonek;
pos = (1024,10);
},
{
name = top;
pos = (569,1838);
},
{
name = topleft;
pos = (20,1412);
}
);
shapes = (
{
closed = 1;
nodes = (
(190,1242,l),
(60,1242,l),
(60,1412,l),
(1008,1412,l),
(1008,1242,l),
(386,1242,l),
(386,818,l),
(973,818,l),
(973,643,l),
(386,643,l),
(386,170,l),
(1017,170,l),
(1017,0,l),
(190,0,l)
);
},
{
closed = 1;
nodes = (
(474,1838,l),
(664,1838,l),
(664,1625,l),
(474,1625,l)
);
}
);
};
layerId = "01C703B5-1257-45FB-9F79-4B1C4C3BA1BB";
shapes = (
{
ref = E;
},
{
pos = (297,428);
ref = dotaccentcomb;
}
);
width = 1138;
}
);
unicode = 278;
},
{
glyphname = Egrave;
lastChange = "2023-07-13 14:31:29 +0000";
layers = (
{
background = {
anchors = (
{
name = bottom;
pos = (569,0);
},
{
name = ogonek;
pos = (1024,10);
},
{
name = top;
pos = (569,1412);
},
{
name = topleft;
pos = (20,1412);
}
);
shapes = (
{
closed = 1;
nodes = (
(469,1564,l),
(196,1873,l),
(426,1873,l),
(598,1564,l)
);
},
{
closed = 1;
nodes = (
(190,1242,l),
(60,1242,l),
(60,1412,l),
(1008,1412,l),
(1008,1242,l),
(386,1242,l),
(386,818,l),
(973,818,l),
(973,643,l),
(386,643,l),
(386,170,l),
(1017,170,l),
(1017,0,l),
(190,0,l)
);
}
);
};
layerId = "01C703B5-1257-45FB-9F79-4B1C4C3BA1BB";
shapes = (
{
ref = E;
},
{
pos = (206,428);
ref = gravecomb;
}
);
width = 1138;
}
);
unicode = 200;
},
{
glyphname = Einvertedbreve;
lastChange = "2023-07-13 14:31:29 +0000";
layers = (
{
background = {
anchors = (
{
name = bottom;
pos = (569,0);
},
{
name = ogonek;
pos = (1024,10);
},
{
name = top;
pos = (569,1412);
},
{
name = topleft;
pos = (20,1412);
}
);
shapes = (
{
closed = 1;
nodes = (
(263,1564,l),
(263,1653,o),
(275,1883,o),
(530,1883,cs),
(715,1883,o),
(801,1773,o),
(804,1564,c),
(705,1564,l),
(700,1615,o),
(679,1746,o),
(530,1746,cs),
(419,1746,o),
(370,1677,o),
(363,1564,c)
);
},
{
closed = 1;
nodes = (
(190,1242,l),
(60,1242,l),
(60,1412,l),
(1008,1412,l),
(1008,1242,l),
(386,1242,l),
(386,818,l),
(973,818,l),
(973,643,l),
(386,643,l),
(386,170,l),
(1017,170,l),
(1017,0,l),
(190,0,l)
);
}
);
};
layerId = "01C703B5-1257-45FB-9F79-4B1C4C3BA1BB";
shapes = (
{
ref = E;
},
{
ref = breveinvertedcomb;
}
);
width = 1138;
}
);
unicode = 518;
},
{
color = 9;
glyphname = Emacron;
lastChange = "2023-07-13 14:31:29 +0000";
layers = (
{
background = {
anchors = (
{
name = bottom;
pos = (569,0);
},
{
name = ogonek;
pos = (1024,10);
},
{
name = top;
pos = (569,1787);
},
{
name = topleft;
pos = (20,1412);
}
);
shapes = (
{
closed = 1;
nodes = (
(190,1242,l),
(60,1242,l),
(60,1412,l),
(1008,1412,l),
(1008,1242,l),
(386,1242,l),
(386,818,l),
(973,818,l),
(973,643,l),
(386,643,l),
(386,170,l),
(1017,170,l),
(1017,0,l),
(190,0,l)
);
},
{
closed = 1;
nodes = (
(297,1787,l),
(840,1787,l),
(840,1670,l),
(297,1670,l)
);
}
);
};
layerId = "01C703B5-1257-45FB-9F79-4B1C4C3BA1BB";
shapes = (
{
ref = E;
},
{
pos = (300,428);
ref = macroncomb;
}
);
width = 1138;
}
);
unicode = 274;
},
{
glyphname = Eogonek;
lastChange = "2023-07-13 14:31:29 +0000";
layers = (
{
background = {
anchors = (
{
name = bottom;
pos = (569,0);
},
{
name = ogonek;
pos = (1024,10);
},
{
name = top;
pos = (569,1412);
},
{
name = topleft;
pos = (20,1412);
}
);
shapes = (
{
closed = 1;
nodes = (
(703,14,l),
(612,-47,o),
(528,-108,o),
(528,-177,cs),
(528,-267,o),
(631,-267,o),
(647,-267,cs),
(684,-267,o),
(707,-256,o),
(739,-237,c),
(739,-333,l),
(688,-360,o),
(635,-385,o),
(552,-385,cs),
(411,-385,o),
(364,-298,o),
(364,-234,cs),
(364,-125,o),
(473,-42,o),
(604,14,c)
);
},
{
closed = 1;
nodes = (
(190,1242,l),
(60,1242,l),
(60,1412,l),
(1008,1412,l),
(1008,1242,l),
(386,1242,l),
(386,818,l),
(973,818,l),
(973,643,l),
(386,643,l),
(386,170,l),
(1017,170,l),
(1017,0,l),
(190,0,l)
);
}
);
};
layerId = "01C703B5-1257-45FB-9F79-4B1C4C3BA1BB";
shapes = (
{
ref = E;
},
{
pos = (565,-5);
ref = ogonekcomb;
}
);
width = 1138;
}
);
unicode = 280;
},
{
glyphname = F;
lastChange = "2023-07-13 14:31:02 +0000";
layers = (
{
anchors = (
{
name = bottom;
pos = (538,0);
},
{
name = top;
pos = (538,1412);
}
);
background = {
anchors = (
{
name = bottom;
pos = (538,0);
},
{
name = top;
pos = (538,1412);
}
);
shapes = (
{
closed = 1;
nodes = (
(61,1412,l),
(986,1412,l),
(986,1242,l),
(391,1242,l),
(391,789,l),
(950,789,l),
(950,614,l),
(391,614,l),
(391,0,l),
(191,0,l),
(191,1242,l),
(61,1242,l)
);
}
);
};
layerId = "01C703B5-1257-45FB-9F79-4B1C4C3BA1BB";
shapes = (
{
closed = 1;
nodes = (
(61,1412,l),
(986,1412,l),
(986,1242,l),
(391,1242,l),
(391,789,l),
(950,789,l),
(950,614,l),
(391,614,l),
(391,0,l),
(191,0,l),
(191,1242,l),
(61,1242,l)
);
}
);
width = 1076;
}
);
unicode = 70;
},
{
glyphname = G;
lastChange = "2023-07-13 14:31:02 +0000";
layers = (
{
anchors = (
{
name = bottom;
pos = (684,0);
},
{
name = top;
pos = (684,1412);
}
);
background = {
anchors = (
{
name = bottom;
pos = (684,0);
},
{
name = top;
pos = (684,1412);
}
);
shapes = (
{
closed = 1;
nodes = (
(871,751,l),
(1231,751,l),
(1231,54,l),
(1099,12,o),
(952,-26,o),
(752,-26,cs),
(311,-26,o),
(105,281,o),
(105,700,cs),
(105,1261,o),
(450,1442,o),
(763,1442,cs),
(936,1442,o),
(1167,1369,o),
(1203,1093,c),
(1027,1051,l),
(994,1198,o),
(892,1268,o),
(767,1268,cs),
(544,1268,o),
(313,1147,o),
(313,704,cs),
(313,369,o),
(434,149,o),
(785,149,cs),
(894,149,o),
(967,163,o),
(1027,175,c),
(1041,175,l),
(1041,579,l),
(871,599,l)
);
}
);
};
layerId = "01C703B5-1257-45FB-9F79-4B1C4C3BA1BB";
shapes = (
{
closed = 1;
nodes = (
(871,751,l),
(1231,751,l),
(1231,54,l),
(1099,12,o),
(952,-26,o),
(752,-26,cs),
(311,-26,o),
(105,281,o),
(105,700,cs),
(105,1261,o),
(450,1442,o),
(763,1442,cs),
(936,1442,o),
(1167,1369,o),
(1203,1093,c),
(1027,1051,l),
(994,1198,o),
(892,1268,o),
(767,1268,cs),
(544,1268,o),
(313,1147,o),
(313,704,cs),
(313,369,o),
(434,149,o),
(785,149,cs),
(894,149,o),
(967,163,o),
(1027,175,c),
(1041,175,l),
(1041,579,l),
(871,599,l)
);
}
);
width = 1368;
}
);
unicode = 71;
},
{
color = 9;
glyphname = Gbreve;
lastChange = "2023-07-13 14:31:29 +0000";
layers = (
{
background = {
anchors = (
{
name = bottom;
pos = (684,0);
},
{
name = top;
pos = (684,1900);
}
);
shapes = (
{
closed = 1;
nodes = (
(871,751,l),
(1231,751,l),
(1231,54,l),
(1099,12,o),
(952,-26,o),
(752,-26,cs),
(311,-26,o),
(105,281,o),
(105,700,cs),
(105,1261,o),
(450,1442,o),
(763,1442,cs),
(936,1442,o),
(1167,1369,o),
(1203,1093,c),
(1027,1051,l),
(994,1198,o),
(892,1268,o),
(767,1268,cs),
(544,1268,o),
(313,1147,o),
(313,704,cs),
(313,369,o),
(434,149,o),
(785,149,cs),
(894,149,o),
(967,163,o),
(1027,175,c),
(1041,175,l),
(1041,579,l),
(871,599,l)
);
},
{
closed = 1;
nodes = (
(513,1900,l),
(520,1787,o),
(569,1718,o),
(680,1718,cs),
(829,1718,o),
(850,1849,o),
(855,1900,c),
(954,1900,l),
(951,1691,o),
(865,1581,o),
(680,1581,cs),
(425,1581,o),
(413,1810,o),
(413,1900,c)
);
}
);
};
layerId = "01C703B5-1257-45FB-9F79-4B1C4C3BA1BB";
shapes = (
{
ref = G;
},
{
pos = (412,428);
ref = brevecomb;
}
);
width = 1368;
}
);
unicode = 286;
},
{
color = 9;
glyphname = Gcommaaccent;
lastChange = "2023-07-13 14:31:29 +0000";
layers = (
{
background = {
anchors = (
{
name = bottom;
pos = (684,0);
},
{
name = top;
pos = (684,1412);
}
);
shapes = (
{
closed = 1;
nodes = (
(871,751,l),
(1231,751,l),
(1231,54,l),
(1099,12,o),
(952,-26,o),
(752,-26,cs),
(311,-26,o),
(105,281,o),
(105,700,cs),
(105,1261,o),
(450,1442,o),
(763,1442,cs),
(936,1442,o),
(1167,1369,o),
(1203,1093,c),
(1027,1051,l),
(994,1198,o),
(892,1268,o),
(767,1268,cs),
(544,1268,o),
(313,1147,o),
(313,704,cs),
(313,369,o),
(434,149,o),
(785,149,cs),
(894,149,o),
(967,163,o),
(1027,175,c),
(1041,175,l),
(1041,579,l),
(871,599,l)
);
},
{
closed = 1;
nodes = (
(38,-599,l),
(150,-107,l),
(372,-107,l),
(178,-599,l)
);
}
);
};
layerId = "01C703B5-1257-45FB-9F79-4B1C4C3BA1BB";
shapes = (
{
ref = G;
},
{
ref = commaaccentcomb;
}
);
width = 1368;
}
);
unicode = 290;
},
{
color = 9;
glyphname = Gdotaccent;
lastChange = "2023-07-13 14:31:29 +0000";
layers = (
{
background = {
anchors = (
{
name = bottom;
pos = (684,0);
},
{
name = top;
pos = (684,1838);
}
);
shapes = (
{
closed = 1;
nodes = (
(871,751,l),
(1231,751,l),
(1231,54,l),
(1099,12,o),
(952,-26,o),
(752,-26,cs),
(311,-26,o),
(105,281,o),
(105,700,cs),
(105,1261,o),
(450,1442,o),
(763,1442,cs),
(936,1442,o),
(1167,1369,o),
(1203,1093,c),
(1027,1051,l),
(994,1198,o),
(892,1268,o),
(767,1268,cs),
(544,1268,o),
(313,1147,o),
(313,704,cs),
(313,369,o),
(434,149,o),
(785,149,cs),
(894,149,o),
(967,163,o),
(1027,175,c),
(1041,175,l),
(1041,579,l),
(871,599,l)
);
},
{
closed = 1;
nodes = (
(589,1838,l),
(779,1838,l),
(779,1625,l),
(589,1625,l)
);
}
);
};
layerId = "01C703B5-1257-45FB-9F79-4B1C4C3BA1BB";
shapes = (
{
ref = G;
},
{
pos = (412,428);
ref = dotaccentcomb;
}
);
width = 1368;
}
);
unicode = 288;
},
{
glyphname = H;
lastChange = "2023-07-13 14:31:02 +0000";
layers = (
{
anchors = (
{
name = bottom;
pos = (709,0);
},
{
name = center;
pos = (709,706);
},
{
name = top;
pos = (709,1412);
},
{
name = topleft;
pos = (20,1412);
}
);
background = {
anchors = (
{
name = bottom;
pos = (709,0);
},
{
name = center;
pos = (709,706);
},
{
name = top;
pos = (709,1412);
},
{
name = topleft;
pos = (20,1412);
}
);
shapes = (
{
closed = 1;
nodes = (
(191,1412,l),
(388,1412,l),
(388,818,l),
(1029,818,l),
(1029,1412,l),
(1226,1412,l),
(1226,0,l),
(1029,0,l),
(1029,640,l),
(388,640,l),
(388,0,l),
(191,0,l)
);
}
);
};
layerId = "01C703B5-1257-45FB-9F79-4B1C4C3BA1BB";
shapes = (
{
closed = 1;
nodes = (
(191,1412,l),
(388,1412,l),
(388,818,l),
(1029,818,l),
(1029,1412,l),
(1226,1412,l),
(1226,0,l),
(1029,0,l),
(1029,640,l),
(388,640,l),
(388,0,l),
(191,0,l)
);
}
);
width = 1417;
}
);
unicode = 72;
},
{
glyphname = I;
lastChange = "2023-07-13 14:31:02 +0000";
layers = (
{
anchors = (
{
name = bottom;
pos = (289,0);
},
{
name = ogonek;
pos = (519,10);
},
{
name = top;
pos = (289,1412);
},
{
name = topleft;
pos = (20,1412);
}
);
background = {
anchors = (
{
name = bottom;
pos = (289,0);
},
{
name = ogonek;
pos = (519,10);
},
{
name = top;
pos = (289,1412);
},
{
name = topleft;
pos = (20,1412);
}
);
shapes = (
{
closed = 1;
nodes = (
(191,0,l),
(191,1412,l),
(387,1412,l),
(387,0,l)
);
}
);
};
layerId = "01C703B5-1257-45FB-9F79-4B1C4C3BA1BB";
shapes = (
{
closed = 1;
nodes = (
(191,0,l),
(191,1412,l),
(387,1412,l),
(387,0,l)
);
}
);
width = 577;
}
);
unicode = 73;
},
{
color = 9;
glyphname = IJ;
lastChange = "2023-07-13 14:31:29 +0000";
layers = (
{
background = {
anchors = (
{
name = bottom;
pos = (865,0);
},
{
name = ogonek;
pos = (519,10);
},
{
name = top;
pos = (865,1412);
},
{
name = topleft;
pos = (20,1412);
}
);
shapes = (
{
closed = 1;
nodes = (
(191,0,l),
(191,1412,l),
(387,1412,l),
(387,0,l)
);
},
{
closed = 1;
nodes = (
(608,1412,l),
(962,1412,l),
(962,126,ls),
(962,-150,o),
(823,-273,o),
(653,-273,cs),
(580,-273,o),
(501,-251,o),
(425,-208,c),
(460,-57,l),
(512,-84,o),
(563,-102,o),
(608,-102,cs),
(700,-102,o),
(768,-54,o),
(768,125,cs),
(768,1242,l),
(608,1242,l)
);
}
);
};
layerId = "01C703B5-1257-45FB-9F79-4B1C4C3BA1BB";
shapes = (
{
ref = I;
},
{
pos = (577,0);
ref = J;
}
);
width = 1152;
}
);
unicode = 306;
},
{
glyphname = Iacute;
lastChange = "2023-07-13 14:31:29 +0000";
layers = (
{
background = {
anchors = (
{
name = bottom;
pos = (289,0);
},
{
name = ogonek;
pos = (519,10);
},
{
name = top;
pos = (289,1412);
},
{
name = topleft;
pos = (20,1412);
}
);
shapes = (
{
closed = 1;
nodes = (
(224,1564,l),
(392,1873,l),
(611,1873,l),
(355,1564,l)
);
},
{
closed = 1;
nodes = (
(191,0,l),
(191,1412,l),
(387,1412,l),
(387,0,l)
);
}
);
};
layerId = "01C703B5-1257-45FB-9F79-4B1C4C3BA1BB";
shapes = (
{
ref = I;
},
{
pos = (-154,428);
ref = acutecomb;
}
);
width = 577;
}
);
unicode = 205;
},
{
glyphname = Icircumflex;
lastChange = "2023-07-13 14:31:29 +0000";
layers = (
{
background = {
anchors = (
{
name = bottom;
pos = (289,0);
},
{
name = ogonek;
pos = (519,10);
},
{
name = top;
pos = (289,1412);
},
{
name = topleft;
pos = (20,1412);
}
);
shapes = (
{
closed = 1;
nodes = (
(451,1564,l),
(288,1790,l),
(122,1564,l),
(-59,1564,l),
(201,1922,l),
(383,1922,l),
(639,1564,l)
);
},
{
closed = 1;
nodes = (
(191,0,l),
(191,1412,l),
(387,1412,l),
(387,0,l)
);
}
);
};
layerId = "01C703B5-1257-45FB-9F79-4B1C4C3BA1BB";
shapes = (
{
ref = I;
},
{
pos = (-113,428);
ref = circumflexcomb;
}
);
width = 577;
}
);
unicode = 206;
},
{
glyphname = Idblgrave;
lastChange = "2023-07-13 14:31:29 +0000";
layers = (
{
background = {
anchors = (
{
name = bottom;
pos = (289,0);
},
{
name = ogonek;
pos = (519,10);
},
{
name = top;
pos = (289,1412);
},
{
name = topleft;
pos = (20,1412);
}
);
shapes = (
{
closed = 1;
nodes = (
(512,1564,l),
(376,1564,l),
(128,1857,l),
(345,1857,l)
);
},
{
closed = 1;
nodes = (
(204,1564,l),
(67,1564,l),
(-181,1857,l),
(35,1857,l)
);
},
{
closed = 1;
nodes = (
(191,0,l),
(191,1412,l),
(387,1412,l),
(387,0,l)
);
}
);
};
layerId = "01C703B5-1257-45FB-9F79-4B1C4C3BA1BB";
shapes = (
{
ref = I;
},
{
ref = dblgravecomb;
}
);
width = 577;
}
);
unicode = 520;
},
{
glyphname = Idieresis;
lastChange = "2023-07-13 14:31:29 +0000";
layers = (
{
background = {
anchors = (
{
name = bottom;
pos = (289,0);
},
{
name = ogonek;
pos = (519,10);
},
{
name = top;
pos = (289,1412);
},
{
name = topleft;
pos = (20,1412);
}
);
shapes = (
{
closed = 1;
nodes = (
(212,1736,l),
(212,1564,l),
(-10,1564,l),
(-10,1736,l)
);
},
{
closed = 1;
nodes = (
(590,1736,l),
(590,1564,l),
(368,1564,l),
(368,1736,l)
);
},
{
closed = 1;
nodes = (
(191,0,l),
(191,1412,l),
(387,1412,l),
(387,0,l)
);
}
);
};
layerId = "01C703B5-1257-45FB-9F79-4B1C4C3BA1BB";
shapes = (
{
ref = I;
},
{
pos = (-116,428);
ref = dieresiscomb;
}
);
width = 577;
}
);
unicode = 207;
},
{
color = 9;
glyphname = Idotaccent;
lastChange = "2023-07-13 14:31:29 +0000";
layers = (
{
background = {
anchors = (
{
name = bottom;
pos = (289,0);
},
{
name = ogonek;
pos = (519,10);
},
{
name = top;
pos = (289,1838);
},
{
name = topleft;
pos = (20,1412);
}
);
shapes = (
{
closed = 1;
nodes = (
(191,0,l),
(191,1412,l),
(387,1412,l),
(387,0,l)
);
},
{
closed = 1;
nodes = (
(194,1838,l),
(384,1838,l),
(384,1625,l),
(194,1625,l)
);
}
);
};
layerId = "01C703B5-1257-45FB-9F79-4B1C4C3BA1BB";
shapes = (
{
ref = I;
},
{
pos = (17,428);
ref = dotaccentcomb;
}
);
width = 577;
}
);
unicode = 304;
},
{
glyphname = Igrave;
lastChange = "2023-07-13 14:31:29 +0000";
layers = (
{
background = {
anchors = (
{
name = bottom;
pos = (289,0);
},
{
name = ogonek;
pos = (519,10);
},
{
name = top;
pos = (289,1412);
},
{
name = topleft;
pos = (20,1412);
}
);
shapes = (
{
closed = 1;
nodes = (
(226,1564,l),
(-47,1873,l),
(183,1873,l),
(355,1564,l)
);
},
{
closed = 1;
nodes = (
(191,0,l),
(191,1412,l),
(387,1412,l),
(387,0,l)
);
}
);
};
layerId = "01C703B5-1257-45FB-9F79-4B1C4C3BA1BB";
shapes = (
{
ref = I;
},
{
pos = (-74,428);
ref = gravecomb;
}
);
width = 577;
}
);
unicode = 204;
},
{
glyphname = Iinvertedbreve;
lastChange = "2023-07-13 14:31:29 +0000";
layers = (
{
background = {
anchors = (
{
name = bottom;
pos = (289,0);
},
{
name = ogonek;
pos = (519,10);
},
{
name = top;
pos = (289,1412);
},
{
name = topleft;
pos = (20,1412);
}
);
shapes = (
{
closed = 1;
nodes = (
(19,1564,l),
(19,1653,o),
(31,1883,o),
(286,1883,cs),
(471,1883,o),
(557,1773,o),
(560,1564,c),
(461,1564,l),
(456,1615,o),
(435,1746,o),
(286,1746,cs),
(175,1746,o),
(126,1677,o),
(119,1564,c)
);
},
{
closed = 1;
nodes = (
(191,0,l),
(191,1412,l),
(387,1412,l),
(387,0,l)
);
}
);
};
layerId = "01C703B5-1257-45FB-9F79-4B1C4C3BA1BB";
shapes = (
{
ref = I;
},
{
ref = breveinvertedcomb;
}
);
width = 577;
}
);
unicode = 522;
},
{
color = 9;
glyphname = Imacron;
lastChange = "2023-07-13 14:31:29 +0000";
layers = (
{
background = {
anchors = (
{
name = bottom;
pos = (289,0);
},
{
name = ogonek;
pos = (519,10);
},
{
name = top;
pos = (289,1787);
},
{
name = topleft;
pos = (20,1412);
}
);
shapes = (
{
closed = 1;
nodes = (
(191,0,l),
(191,1412,l),
(387,1412,l),
(387,0,l)
);
},
{
closed = 1;
nodes = (
(17,1787,l),
(560,1787,l),
(560,1670,l),
(17,1670,l)
);
}
);
};
layerId = "01C703B5-1257-45FB-9F79-4B1C4C3BA1BB";
shapes = (
{
ref = I;
},
{
pos = (20,428);
ref = macroncomb;
}
);
width = 577;
}
);
unicode = 298;
},
{
color = 9;
glyphname = Iogonek;
lastChange = "2023-07-13 14:31:29 +0000";
layers = (
{
background = {
anchors = (
{
name = bottom;
pos = (289,0);
},
{
name = ogonek;
pos = (519,10);
},
{
name = top;
pos = (289,1412);
},
{
name = topleft;
pos = (20,1412);
}
);
shapes = (
{
closed = 1;
nodes = (
(191,0,l),
(191,1412,l),
(387,1412,l),
(387,0,l)
);
},
{
closed = 1;
nodes = (
(483,10,l),
(392,-51,o),
(308,-112,o),
(308,-181,cs),
(308,-271,o),
(411,-271,o),
(427,-271,cs),
(464,-271,o),
(487,-260,o),
(519,-241,c),
(519,-337,l),
(468,-364,o),
(415,-389,o),
(332,-389,cs),
(191,-389,o),
(144,-302,o),
(144,-238,cs),
(144,-129,o),
(253,-46,o),
(384,10,c)
);
}
);
};
layerId = "01C703B5-1257-45FB-9F79-4B1C4C3BA1BB";
shapes = (
{
ref = I;
},
{
pos = (60,-5);
ref = ogonekcomb;
}
);
width = 577;
}
);
unicode = 302;
},
{
glyphname = J;
lastChange = "2023-07-13 14:31:02 +0000";
layers = (
{
anchors = (
{
name = bottom;
pos = (288,0);
},
{
name = top;
pos = (288,1412);
}
);
background = {
anchors = (
{
name = bottom;
pos = (288,0);
},
{
name = top;
pos = (288,1412);
}
);
shapes = (
{
closed = 1;
nodes = (
(31,1412,l),
(385,1412,l),
(385,126,ls),
(385,-150,o),
(246,-273,o),
(76,-273,cs),
(3,-273,o),
(-76,-251,o),
(-152,-208,c),
(-117,-57,l),
(-65,-84,o),
(-14,-102,o),
(31,-102,cs),
(123,-102,o),
(191,-54,o),
(191,125,cs),
(191,1242,l),
(31,1242,l)
);
}
);
};
layerId = "01C703B5-1257-45FB-9F79-4B1C4C3BA1BB";
shapes = (
{
closed = 1;
nodes = (
(31,1412,l),
(385,1412,l),
(385,126,ls),
(385,-150,o),
(246,-273,o),
(76,-273,cs),
(3,-273,o),
(-76,-251,o),
(-152,-208,c),
(-117,-57,l),
(-65,-84,o),
(-14,-102,o),
(31,-102,cs),
(123,-102,o),
(191,-54,o),
(191,125,cs),
(191,1242,l),
(31,1242,l)
);
}
);
width = 575;
}
);
unicode = 74;
},
{
glyphname = K;
lastChange = "2023-07-13 14:31:02 +0000";
layers = (
{
anchors = (
{
name = bottom;
pos = (616,0);
},
{
name = top;
pos = (616,1412);
}
);
background = {
anchors = (
{
name = bottom;
pos = (616,0);
},
{
name = top;
pos = (616,1412);
}
);
shapes = (
{
closed = 1;
nodes = (
(1244,0,l),
(988,0,l),
(443,706,l),
(387,636,l),
(387,0,l),
(191,0,l),
(191,1412,l),
(387,1412,l),
(387,769,l),
(494,896,l),
(948,1412,l),
(1200,1412,l),
(626,785,l)
);
}
);
};
layerId = "01C703B5-1257-45FB-9F79-4B1C4C3BA1BB";
shapes = (
{
closed = 1;
nodes = (
(1244,0,l),
(988,0,l),
(443,706,l),
(387,636,l),
(387,0,l),
(191,0,l),
(191,1412,l),
(387,1412,l),
(387,769,l),
(494,896,l),
(948,1412,l),
(1200,1412,l),
(626,785,l)
);
}
);
width = 1231;
}
);
unicode = 75;
},
{
color = 9;
glyphname = Kcommaaccent;
lastChange = "2023-07-13 14:31:29 +0000";
layers = (
{
background = {
anchors = (
{
name = bottom;
pos = (616,0);
},
{
name = top;
pos = (616,1412);
}
);
shapes = (
{
closed = 1;
nodes = (
(1244,0,l),
(988,0,l),
(443,706,l),
(387,636,l),
(387,0,l),
(191,0,l),
(191,1412,l),
(387,1412,l),
(387,769,l),
(494,896,l),
(948,1412,l),
(1200,1412,l),
(626,785,l)
);
},
{
closed = 1;
nodes = (
(38,-599,l),
(150,-107,l),
(372,-107,l),
(178,-599,l)
);
}
);
};
layerId = "01C703B5-1257-45FB-9F79-4B1C4C3BA1BB";
shapes = (
{
ref = K;
},
{
ref = commaaccentcomb;
}
);
width = 1231;
}
);
unicode = 310;
},
{
glyphname = L;
lastChange = "2023-07-13 14:31:02 +0000";
layers = (
{
anchors = (
{
name = bottom;
pos = (513,0);
},
{
name = center;
pos = (513,706);
},
{
name = top;
pos = (513,1412);
},
{
name = topright;
pos = (1005,1412);
}
);
background = {
anchors = (
{
name = bottom;
pos = (513,0);
},
{
name = center;
pos = (513,706);
},
{
name = top;
pos = (513,1412);
},
{
name = topright;
pos = (1005,1412);
}
);
shapes = (
{
closed = 1;
nodes = (
(190,0,l),
(190,1412,l),
(387,1412,l),
(387,170,l),
(991,170,l),
(991,0,l)
);
}
);
};
layerId = "01C703B5-1257-45FB-9F79-4B1C4C3BA1BB";
shapes = (
{
closed = 1;
nodes = (
(190,0,l),
(190,1412,l),
(387,1412,l),
(387,170,l),
(991,170,l),
(991,0,l)
);
}
);
width = 1025;
}
);
unicode = 76;
},
{
glyphname = Lacute;
lastChange = "2023-07-13 14:31:29 +0000";
layers = (
{
background = {
anchors = (
{
name = bottom;
pos = (513,0);
},
{
name = center;
pos = (513,706);
},
{
name = top;
pos = (513,1412);
},
{
name = topright;
pos = (1005,1412);
}
);
shapes = (
{
closed = 1;
nodes = (
(525,1564,l),
(693,1873,l),
(912,1873,l),
(656,1564,l)
);
},
{
closed = 1;
nodes = (
(190,0,l),
(190,1412,l),
(387,1412,l),
(387,170,l),
(991,170,l),
(991,0,l)
);
}
);
};
layerId = "01C703B5-1257-45FB-9F79-4B1C4C3BA1BB";
shapes = (
{
ref = L;
},
{
pos = (70,428);
ref = acutecomb;
}
);
width = 1025;
}
);
unicode = 313;
},
{
glyphname = Lcaron;
lastChange = "2023-07-13 14:31:29 +0000";
layers = (
{
background = {
anchors = (
{
name = bottom;
pos = (513,0);
},
{
name = center;
pos = (513,706);
},
{
name = top;
pos = (513,1412);
},
{
name = topright;
pos = (1005,1412);
}
);
shapes = (
{
closed = 1;
nodes = (
(1174,950,l),
(1286,1442,l),
(1508,1442,l),
(1314,950,l)
);
},
{
closed = 1;
nodes = (
(190,0,l),
(190,1412,l),
(387,1412,l),
(387,170,l),
(991,170,l),
(991,0,l)
);
}
);
};
layerId = "01C703B5-1257-45FB-9F79-4B1C4C3BA1BB";
shapes = (
{
ref = L;
},
{
pos = (235,428);
ref = caroncomb;
}
);
width = 1025;
}
);
unicode = 317;
},
{
color = 9;
glyphname = Lcommaaccent;
lastChange = "2023-07-13 14:31:29 +0000";
layers = (
{
background = {
anchors = (
{
name = bottom;
pos = (513,0);
},
{
name = center;
pos = (513,706);
},
{
name = top;
pos = (513,1412);
},
{
name = topright;
pos = (1005,1412);
}
);
shapes = (
{
closed = 1;
nodes = (
(190,0,l),
(190,1412,l),
(387,1412,l),
(387,170,l),
(991,170,l),
(991,0,l)
);
},
{
closed = 1;
nodes = (
(38,-599,l),
(150,-107,l),
(372,-107,l),
(178,-599,l)
);
}
);
};
layerId = "01C703B5-1257-45FB-9F79-4B1C4C3BA1BB";
shapes = (
{
ref = L;
},
{
ref = commaaccentcomb;
}
);
width = 1025;
}
);
unicode = 315;
},
{
glyphname = Lslash;
lastChange = "2023-07-13 14:31:02 +0000";
layers = (
{
background = {
shapes = (
{
closed = 1;
nodes = (
(196,0,l),
(196,516,l),
(74,441,l),
(74,607,l),
(196,681,l),
(196,1412,l),
(391,1412,l),
(391,799,l),
(763,1025,l),
(763,859,l),
(391,635,l),
(391,180,l),
(996,180,l),
(996,0,l)
);
}
);
};
layerId = "01C703B5-1257-45FB-9F79-4B1C4C3BA1BB";
shapes = (
{
closed = 1;
nodes = (
(196,0,l),
(196,516,l),
(74,441,l),
(74,607,l),
(196,681,l),
(196,1412,l),
(391,1412,l),
(391,799,l),
(763,1025,l),
(763,859,l),
(391,635,l),
(391,180,l),
(996,180,l),
(996,0,l)
);
}
);
width = 1030;
}
);
unicode = 321;
},
{
glyphname = M;
lastChange = "2023-07-13 14:31:02 +0000";
layers = (
{
anchors = (
{
name = bottom;
pos = (895,0);
},
{
name = top;
pos = (895,1412);
}
);
background = {
anchors = (
{
name = bottom;
pos = (895,0);
},
{
name = top;
pos = (895,1412);
}
);
shapes = (
{
closed = 1;
nodes = (
(1404,0,l),
(1404,735,ls),
(1404,773,o),
(1405,1005,o),
(1408,1146,c),
(1384,1150,l),
(971,0,l),
(797,0,l),
(398,1139,l),
(373,1135,l),
(376,994,o),
(379,768,o),
(379,728,cs),
(379,0,l),
(190,0,l),
(190,1412,l),
(505,1412,l),
(889,252,l),
(1296,1412,l),
(1599,1412,l),
(1599,0,l)
);
}
);
};
layerId = "01C703B5-1257-45FB-9F79-4B1C4C3BA1BB";
shapes = (
{
closed = 1;
nodes = (
(1404,0,l),
(1404,735,ls),
(1404,773,o),
(1405,1005,o),
(1408,1146,c),
(1384,1150,l),
(971,0,l),
(797,0,l),
(398,1139,l),
(373,1135,l),
(376,994,o),
(379,768,o),
(379,728,cs),
(379,0,l),
(190,0,l),
(190,1412,l),
(505,1412,l),
(889,252,l),
(1296,1412,l),
(1599,1412,l),
(1599,0,l)
);
}
);
width = 1789;
}
);
unicode = 77;
},
{
glyphname = N;
lastChange = "2023-07-13 14:31:02 +0000";
layers = (
{
anchors = (
{
name = bottom;
pos = (744,0);
},
{
name = top;
pos = (744,1412);
}
);
background = {
anchors = (
{
name = bottom;
pos = (744,0);
},
{
name = top;
pos = (744,1412);
}
);
shapes = (
{
closed = 1;
nodes = (
(191,0,l),
(191,1412,l),
(437,1412,l),
(1096,305,l),
(1118,310,l),
(1114,438,o),
(1112,699,o),
(1112,742,cs),
(1112,1412,l),
(1296,1412,l),
(1296,0,l),
(1059,0,l),
(387,1123,l),
(366,1118,l),
(370,988,o),
(372,720,o),
(372,675,cs),
(372,0,l)
);
}
);
};
layerId = "01C703B5-1257-45FB-9F79-4B1C4C3BA1BB";
shapes = (
{
closed = 1;
nodes = (
(191,0,l),
(191,1412,l),
(437,1412,l),
(1096,305,l),
(1118,310,l),
(1114,438,o),
(1112,699,o),
(1112,742,cs),
(1112,1412,l),
(1296,1412,l),
(1296,0,l),
(1059,0,l),
(387,1123,l),
(366,1118,l),
(370,988,o),
(372,720,o),
(372,675,cs),
(372,0,l)
);
}
);
width = 1487;
}
);
unicode = 78;
},
{
glyphname = Nacute;
lastChange = "2023-07-13 14:31:29 +0000";
layers = (
{
background = {
anchors = (
{
name = bottom;
pos = (744,0);
},
{
name = top;
pos = (744,1412);
}
);
shapes = (
{
closed = 1;
nodes = (
(678,1564,l),
(846,1873,l),
(1065,1873,l),
(809,1564,l)
);
},
{
closed = 1;
nodes = (
(191,0,l),
(191,1412,l),
(437,1412,l),
(1096,305,l),
(1118,310,l),
(1114,438,o),
(1112,699,o),
(1112,742,cs),
(1112,1412,l),
(1296,1412,l),
(1296,0,l),
(1059,0,l),
(387,1123,l),
(366,1118,l),
(370,988,o),
(372,720,o),
(372,675,cs),
(372,0,l)
);
}
);
};
layerId = "01C703B5-1257-45FB-9F79-4B1C4C3BA1BB";
shapes = (
{
ref = N;
},
{
pos = (301,428);
ref = acutecomb;
}
);
width = 1487;
}
);
unicode = 323;
},
{
glyphname = Ncaron;
lastChange = "2023-07-13 14:31:29 +0000";
layers = (
{
background = {
anchors = (
{
name = bottom;
pos = (744,0);
},
{
name = top;
pos = (744,1412);
}
);
shapes = (
{
closed = 1;
nodes = (
(835,1564,l),
(651,1564,l),
(428,1874,l),
(605,1874,l),
(741,1694,l),
(872,1874,l),
(1059,1874,l)
);
},
{
closed = 1;
nodes = (
(191,0,l),
(191,1412,l),
(437,1412,l),
(1096,305,l),
(1118,310,l),
(1114,438,o),
(1112,699,o),
(1112,742,cs),
(1112,1412,l),
(1296,1412,l),
(1296,0,l),
(1059,0,l),
(387,1123,l),
(366,1118,l),
(370,988,o),
(372,720,o),
(372,675,cs),
(372,0,l)
);
}
);
};
layerId = "01C703B5-1257-45FB-9F79-4B1C4C3BA1BB";
shapes = (
{
ref = N;
},
{
pos = (466,428);
ref = caroncomb;
}
);
width = 1487;
}
);
unicode = 327;
},
{
color = 9;
glyphname = Ncommaaccent;
lastChange = "2023-07-13 14:31:29 +0000";
layers = (
{
background = {
anchors = (
{
name = bottom;
pos = (744,0);
},
{
name = top;
pos = (744,1412);
}
);
shapes = (
{
closed = 1;
nodes = (
(191,0,l),
(191,1412,l),
(437,1412,l),
(1096,305,l),
(1118,310,l),
(1114,438,o),
(1112,699,o),
(1112,742,cs),
(1112,1412,l),
(1296,1412,l),
(1296,0,l),
(1059,0,l),
(387,1123,l),
(366,1118,l),
(370,988,o),
(372,720,o),
(372,675,cs),
(372,0,l)
);
},
{
closed = 1;
nodes = (
(38,-599,l),
(150,-107,l),
(372,-107,l),
(178,-599,l)
);
}
);
};
layerId = "01C703B5-1257-45FB-9F79-4B1C4C3BA1BB";
shapes = (
{
ref = N;
},
{
ref = commaaccentcomb;
}
);
width = 1487;
}
);
unicode = 325;
},
{
glyphname = Ntilde;
lastChange = "2023-07-13 14:31:29 +0000";
layers = (
{
background = {
anchors = (
{
name = bottom;
pos = (744,0);
},
{
name = top;
pos = (744,1412);
}
);
shapes = (
{
closed = 1;
nodes = (
(792,1574,o),
(669,1650,o),
(616,1650,cs),
(573,1650,o),
(553,1627,o),
(532,1564,c),
(436,1564,l),
(436,1700,o),
(522,1795,o),
(622,1795,cs),
(705,1795,o),
(796,1722,o),
(869,1722,cs),
(916,1722,o),
(939,1753,o),
(950,1809,c),
(1050,1809,l),
(1042,1645,o),
(958,1574,o),
(864,1574,cs)
);
},
{
closed = 1;
nodes = (
(191,0,l),
(191,1412,l),
(437,1412,l),
(1096,305,l),
(1118,310,l),
(1114,438,o),
(1112,699,o),
(1112,742,cs),
(1112,1412,l),
(1296,1412,l),
(1296,0,l),
(1059,0,l),
(387,1123,l),
(366,1118,l),
(370,988,o),
(372,720,o),
(372,675,cs),
(372,0,l)
);
}
);
};
layerId = "01C703B5-1257-45FB-9F79-4B1C4C3BA1BB";
shapes = (
{
ref = N;
},
{
pos = (329,428);
ref = tildecomb;
}
);
width = 1487;
}
);
unicode = 209;
},
{
glyphname = O;
lastChange = "2023-07-13 14:31:02 +0000";
layers = (
{
anchors = (
{
name = bottom;
pos = (742,0);
},
{
name = center;
pos = (742,706);
},
{
name = ogonek;
pos = (1335,10);
},
{
name = top;
pos = (742,1412);
},
{
name = topleft;
pos = (20,1412);
},
{
name = topright;
pos = (1463,1412);
}
);
background = {
anchors = (
{
name = bottom;
pos = (742,0);
},
{
name = center;
pos = (742,706);
},
{
name = ogonek;
pos = (1335,10);
},
{
name = top;
pos = (742,1412);
},
{
name = topleft;
pos = (20,1412);
},
{
name = topright;
pos = (1463,1412);
}
);
shapes = (
{
closed = 1;
nodes = (
(279,-26,o),
(112,320,o),
(112,703,cs),
(112,1095,o),
(293,1442,o),
(742,1442,cs),
(1192,1442,o),
(1371,1095,o),
(1371,703,cs),
(1371,320,o),
(1206,-26,o),
(742,-26,cs)
);
},
{
closed = 1;
nodes = (
(1073,149,o),
(1164,408,o),
(1164,708,cs),
(1164,1020,o),
(1065,1268,o),
(742,1268,cs),
(420,1268,o),
(319,1020,o),
(319,708,cs),
(319,408,o),
(410,149,o),
(742,149,cs)
);
}
);
};
layerId = "01C703B5-1257-45FB-9F79-4B1C4C3BA1BB";
shapes = (
{
closed = 1;
nodes = (
(279,-26,o),
(112,320,o),
(112,703,cs),
(112,1095,o),
(293,1442,o),
(742,1442,cs),
(1192,1442,o),
(1371,1095,o),
(1371,703,cs),
(1371,320,o),
(1206,-26,o),
(742,-26,cs)
);
},
{
closed = 1;
nodes = (
(1073,149,o),
(1164,408,o),
(1164,708,cs),
(1164,1020,o),
(1065,1268,o),
(742,1268,cs),
(420,1268,o),
(319,1020,o),
(319,708,cs),
(319,408,o),
(410,149,o),
(742,149,cs)
);
}
);
width = 1483;
}
);
unicode = 79;
},
{
glyphname = Oacute;
lastChange = "2023-07-13 14:31:29 +0000";
layers = (
{
background = {
anchors = (
{
name = bottom;
pos = (742,0);
},
{
name = center;
pos = (742,706);
},
{
name = ogonek;
pos = (1335,10);
},
{
name = top;
pos = (742,1412);
},
{
name = topleft;
pos = (20,1412);
},
{
name = topright;
pos = (1463,1412);
}
);
shapes = (
{
closed = 1;
nodes = (
(677,1564,l),
(845,1873,l),
(1064,1873,l),
(808,1564,l)
);
},
{
closed = 1;
nodes = (
(279,-26,o),
(112,320,o),
(112,703,cs),
(112,1095,o),
(293,1442,o),
(742,1442,cs),
(1192,1442,o),
(1371,1095,o),
(1371,703,cs),
(1371,320,o),
(1206,-26,o),
(742,-26,cs)
);
},
{
closed = 1;
nodes = (
(1073,149,o),
(1164,408,o),
(1164,708,cs),
(1164,1020,o),
(1065,1268,o),
(742,1268,cs),
(420,1268,o),
(319,1020,o),
(319,708,cs),
(319,408,o),
(410,149,o),
(742,149,cs)
);
}
);
};
layerId = "01C703B5-1257-45FB-9F79-4B1C4C3BA1BB";
shapes = (
{
ref = O;
},
{
pos = (299,428);
ref = acutecomb;
}
);
width = 1483;
}
);
unicode = 211;
},
{
glyphname = Ocircumflex;
lastChange = "2023-07-13 14:31:29 +0000";
layers = (
{
background = {
anchors = (
{
name = bottom;
pos = (742,0);
},
{
name = center;
pos = (742,706);
},
{
name = ogonek;
pos = (1335,10);
},
{
name = top;
pos = (742,1412);
},
{
name = topleft;
pos = (20,1412);
},
{
name = topright;
pos = (1463,1412);
}
);
shapes = (
{
closed = 1;
nodes = (
(903,1564,l),
(740,1790,l),
(574,1564,l),
(393,1564,l),
(653,1922,l),
(835,1922,l),
(1091,1564,l)
);
},
{
closed = 1;
nodes = (
(279,-26,o),
(112,320,o),
(112,703,cs),
(112,1095,o),
(293,1442,o),
(742,1442,cs),
(1192,1442,o),
(1371,1095,o),
(1371,703,cs),
(1371,320,o),
(1206,-26,o),
(742,-26,cs)
);
},
{
closed = 1;
nodes = (
(1073,149,o),
(1164,408,o),
(1164,708,cs),
(1164,1020,o),
(1065,1268,o),
(742,1268,cs),
(420,1268,o),
(319,1020,o),
(319,708,cs),
(319,408,o),
(410,149,o),
(742,149,cs)
);
}
);
};
layerId = "01C703B5-1257-45FB-9F79-4B1C4C3BA1BB";
shapes = (
{
ref = O;
},
{
pos = (340,428);
ref = circumflexcomb;
}
);
width = 1483;
}
);
unicode = 212;
},
{
glyphname = Odblgrave;
lastChange = "2023-07-13 14:31:29 +0000";
layers = (
{
background = {
anchors = (
{
name = bottom;
pos = (742,0);
},
{
name = center;
pos = (742,706);
},
{
name = ogonek;
pos = (1335,10);
},
{
name = top;
pos = (742,1412);
},
{
name = topleft;
pos = (20,1412);
},
{
name = topright;
pos = (1463,1412);
}
);
shapes = (
{
closed = 1;
nodes = (
(965,1564,l),
(829,1564,l),
(581,1857,l),
(798,1857,l)
);
},
{
closed = 1;
nodes = (
(657,1564,l),
(520,1564,l),
(272,1857,l),
(488,1857,l)
);
},
{
closed = 1;
nodes = (
(279,-26,o),
(112,320,o),
(112,703,cs),
(112,1095,o),
(293,1442,o),
(742,1442,cs),
(1192,1442,o),
(1371,1095,o),
(1371,703,cs),
(1371,320,o),
(1206,-26,o),
(742,-26,cs)
);
},
{
closed = 1;
nodes = (
(1073,149,o),
(1164,408,o),
(1164,708,cs),
(1164,1020,o),
(1065,1268,o),
(742,1268,cs),
(420,1268,o),
(319,1020,o),
(319,708,cs),
(319,408,o),
(410,149,o),
(742,149,cs)
);
}
);
};
layerId = "01C703B5-1257-45FB-9F79-4B1C4C3BA1BB";
shapes = (
{
ref = O;
},
{
ref = dblgravecomb;
}
);
width = 1483;
}
);
unicode = 524;
},
{
glyphname = Odieresis;
lastChange = "2023-07-13 14:31:29 +0000";
layers = (
{
background = {
anchors = (
{
name = bottom;
pos = (742,0);
},
{
name = center;
pos = (742,706);
},
{
name = ogonek;
pos = (1335,10);
},
{
name = top;
pos = (742,1412);
},
{
name = topleft;
pos = (20,1412);
},
{
name = topright;
pos = (1463,1412);
}
);
shapes = (
{
closed = 1;
nodes = (
(664,1736,l),
(664,1564,l),
(442,1564,l),
(442,1736,l)
);
},
{
closed = 1;
nodes = (
(1042,1736,l),
(1042,1564,l),
(820,1564,l),
(820,1736,l)
);
},
{
closed = 1;
nodes = (
(279,-26,o),
(112,320,o),
(112,703,cs),
(112,1095,o),
(293,1442,o),
(742,1442,cs),
(1192,1442,o),
(1371,1095,o),
(1371,703,cs),
(1371,320,o),
(1206,-26,o),
(742,-26,cs)
);
},
{
closed = 1;
nodes = (
(1073,149,o),
(1164,408,o),
(1164,708,cs),
(1164,1020,o),
(1065,1268,o),
(742,1268,cs),
(420,1268,o),
(319,1020,o),
(319,708,cs),
(319,408,o),
(410,149,o),
(742,149,cs)
);
}
);
};
layerId = "01C703B5-1257-45FB-9F79-4B1C4C3BA1BB";
shapes = (
{
ref = O;
},
{
pos = (337,428);
ref = dieresiscomb;
}
);
width = 1483;
}
);
unicode = 214;
},
{
glyphname = Ograve;
lastChange = "2023-07-13 14:31:29 +0000";
layers = (
{
background = {
anchors = (
{
name = bottom;
pos = (742,0);
},
{
name = center;
pos = (742,706);
},
{
name = ogonek;
pos = (1335,10);
},
{
name = top;
pos = (742,1412);
},
{
name = topleft;
pos = (20,1412);
},
{
name = topright;
pos = (1463,1412);
}
);
shapes = (
{
closed = 1;
nodes = (
(677,1564,l),
(404,1873,l),
(634,1873,l),
(806,1564,l)
);
},
{
closed = 1;
nodes = (
(279,-26,o),
(112,320,o),
(112,703,cs),
(112,1095,o),
(293,1442,o),
(742,1442,cs),
(1192,1442,o),
(1371,1095,o),
(1371,703,cs),
(1371,320,o),
(1206,-26,o),
(742,-26,cs)
);
},
{
closed = 1;
nodes = (
(1073,149,o),
(1164,408,o),
(1164,708,cs),
(1164,1020,o),
(1065,1268,o),
(742,1268,cs),
(420,1268,o),
(319,1020,o),
(319,708,cs),
(319,408,o),
(410,149,o),
(742,149,cs)
);
}
);
};
layerId = "01C703B5-1257-45FB-9F79-4B1C4C3BA1BB";
shapes = (
{
ref = O;
},
{
pos = (379,428);
ref = gravecomb;
}
);
width = 1483;
}
);
unicode = 210;
},
{
glyphname = Ohungarumlaut;
lastChange = "2023-07-13 14:31:29 +0000";
layers = (
{
background = {
anchors = (
{
name = bottom;
pos = (742,0);
},
{
name = center;
pos = (742,706);
},
{
name = ogonek;
pos = (1335,10);
},
{
name = top;
pos = (742,1412);
},
{
name = topleft;
pos = (20,1412);
},
{
name = topright;
pos = (1463,1412);
}
);
shapes = (
{
closed = 1;
nodes = (
(687,1857,l),
(904,1857,l),
(656,1564,l),
(520,1564,l)
);
},
{
closed = 1;
nodes = (
(997,1857,l),
(1213,1857,l),
(965,1564,l),
(828,1564,l)
);
},
{
closed = 1;
nodes = (
(279,-26,o),
(112,320,o),
(112,703,cs),
(112,1095,o),
(293,1442,o),
(742,1442,cs),
(1192,1442,o),
(1371,1095,o),
(1371,703,cs),
(1371,320,o),
(1206,-26,o),
(742,-26,cs)
);
},
{
closed = 1;
nodes = (
(1073,149,o),
(1164,408,o),
(1164,708,cs),
(1164,1020,o),
(1065,1268,o),
(742,1268,cs),
(420,1268,o),
(319,1020,o),
(319,708,cs),
(319,408,o),
(410,149,o),
(742,149,cs)
);
}
);
};
layerId = "01C703B5-1257-45FB-9F79-4B1C4C3BA1BB";
shapes = (
{
ref = O;
},
{
pos = (327,428);
ref = hungarumlautcomb;
}
);
width = 1483;
}
);
unicode = 336;
},
{
glyphname = Oinvertedbreve;
lastChange = "2023-07-13 14:31:29 +0000";
layers = (
{
background = {
anchors = (
{
name = bottom;
pos = (742,0);
},
{
name = center;
pos = (742,706);
},
{
name = ogonek;
pos = (1335,10);
},
{
name = top;
pos = (742,1412);
},
{
name = topleft;
pos = (20,1412);
},
{
name = topright;
pos = (1463,1412);
}
);
shapes = (
{
closed = 1;
nodes = (
(471,1564,l),
(471,1653,o),
(483,1883,o),
(738,1883,cs),
(923,1883,o),
(1009,1773,o),
(1012,1564,c),
(913,1564,l),
(908,1615,o),
(887,1746,o),
(738,1746,cs),
(627,1746,o),
(578,1677,o),
(571,1564,c)
);
},
{
closed = 1;
nodes = (
(279,-26,o),
(112,320,o),
(112,703,cs),
(112,1095,o),
(293,1442,o),
(742,1442,cs),
(1192,1442,o),
(1371,1095,o),
(1371,703,cs),
(1371,320,o),
(1206,-26,o),
(742,-26,cs)
);
},
{
closed = 1;
nodes = (
(1073,149,o),
(1164,408,o),
(1164,708,cs),
(1164,1020,o),
(1065,1268,o),
(742,1268,cs),
(420,1268,o),
(319,1020,o),
(319,708,cs),
(319,408,o),
(410,149,o),
(742,149,cs)
);
}
);
};
layerId = "01C703B5-1257-45FB-9F79-4B1C4C3BA1BB";
shapes = (
{
ref = O;
},
{
ref = breveinvertedcomb;
}
);
width = 1483;
}
);
unicode = 526;
},
{
color = 9;
glyphname = Omacron;
lastChange = "2023-07-13 14:31:29 +0000";
layers = (
{
background = {
anchors = (
{
name = bottom;
pos = (742,0);
},
{
name = center;
pos = (742,706);
},
{
name = ogonek;
pos = (1335,10);
},
{
name = top;
pos = (742,1787);
},
{
name = topleft;
pos = (20,1412);
},
{
name = topright;
pos = (1463,1412);
}
);
shapes = (
{
closed = 1;
nodes = (
(279,-26,o),
(112,320,o),
(112,703,cs),
(112,1095,o),
(293,1442,o),
(742,1442,cs),
(1192,1442,o),
(1371,1095,o),
(1371,703,cs),
(1371,320,o),
(1206,-26,o),
(742,-26,cs)
);
},
{
closed = 1;
nodes = (
(1073,149,o),
(1164,408,o),
(1164,708,cs),
(1164,1020,o),
(1065,1268,o),
(742,1268,cs),
(420,1268,o),
(319,1020,o),
(319,708,cs),
(319,408,o),
(410,149,o),
(742,149,cs)
);
},
{
closed = 1;
nodes = (
(470,1787,l),
(1013,1787,l),
(1013,1670,l),
(470,1670,l)
);
}
);
};
layerId = "01C703B5-1257-45FB-9F79-4B1C4C3BA1BB";
shapes = (
{
ref = O;
},
{
pos = (473,428);
ref = macroncomb;
}
);
width = 1483;
}
);
unicode = 332;
},
{
glyphname = Oslash;
lastChange = "2023-07-13 14:31:02 +0000";
layers = (
{
anchors = (
{
name = bottom;
pos = (743,0);
},
{
name = top;
pos = (743,1412);
}
);
background = {
anchors = (
{
name = bottom;
pos = (743,0);
},
{
name = top;
pos = (743,1412);
}
);
shapes = (
{
closed = 1;
nodes = (
(1371,311,o),
(1192,-26,o),
(737,-26,cs),
(604,-26,o),
(503,0,o),
(415,47,c),
(324,-103,l),
(195,-69,l),
(311,123,l),
(172,254,o),
(113,463,o),
(113,703,cs),
(113,886,o),
(154,1101,o),
(280,1248,c),
(279,1248,l),
(407,1387,o),
(583,1442,o),
(747,1442,cs),
(868,1442,o),
(973,1416,o),
(1062,1368,c),
(1152,1517,l),
(1283,1482,l),
(1167,1291,l),
(1300,1166,o),
(1371,975,o),
(1371,714,cs)
);
},
{
closed = 1;
nodes = (
(862,149,o),
(973,196,o),
(1049,284,c),
(1139,398,o),
(1161,590,o),
(1161,715,cs),
(1161,886,o),
(1132,1020,o),
(1064,1120,c),
(513,210,l),
(578,169,o),
(657,149,o),
(741,149,cs)
);
},
{
closed = 1;
nodes = (
(320,555,o),
(347,411,o),
(419,302,c),
(968,1212,l),
(908,1248,o),
(837,1268,o),
(748,1268,cs),
(425,1268,o),
(320,1020,o),
(320,708,cs)
);
}
);
};
layerId = "01C703B5-1257-45FB-9F79-4B1C4C3BA1BB";
shapes = (
{
closed = 1;
nodes = (
(1371,311,o),
(1192,-26,o),
(737,-26,cs),
(604,-26,o),
(503,0,o),
(415,47,c),
(324,-103,l),
(195,-69,l),
(311,123,l),
(172,254,o),
(113,463,o),
(113,703,cs),
(113,886,o),
(154,1101,o),
(280,1248,c),
(279,1248,l),
(407,1387,o),
(583,1442,o),
(747,1442,cs),
(868,1442,o),
(973,1416,o),
(1062,1368,c),
(1152,1517,l),
(1283,1482,l),
(1167,1291,l),
(1300,1166,o),
(1371,975,o),
(1371,714,cs)
);
},
{
closed = 1;
nodes = (
(862,149,o),
(973,196,o),
(1049,284,c),
(1139,398,o),
(1161,590,o),
(1161,715,cs),
(1161,886,o),
(1132,1020,o),
(1064,1120,c),
(513,210,l),
(578,169,o),
(657,149,o),
(741,149,cs)
);
},
{
closed = 1;
nodes = (
(320,555,o),
(347,411,o),
(419,302,c),
(968,1212,l),
(908,1248,o),
(837,1268,o),
(748,1268,cs),
(425,1268,o),
(320,1020,o),
(320,708,cs)
);
}
);
width = 1485;
}
);
unicode = 216;
},
{
glyphname = Otilde;
lastChange = "2023-07-13 14:31:29 +0000";
layers = (
{
background = {
anchors = (
{
name = bottom;
pos = (742,0);
},
{
name = center;
pos = (742,706);
},
{
name = ogonek;
pos = (1335,10);
},
{
name = top;
pos = (742,1412);
},
{
name = topleft;
pos = (20,1412);
},
{
name = topright;
pos = (1463,1412);
}
);
shapes = (
{
closed = 1;
nodes = (
(791,1574,o),
(668,1650,o),
(615,1650,cs),
(572,1650,o),
(552,1627,o),
(531,1564,c),
(435,1564,l),
(435,1700,o),
(521,1795,o),
(621,1795,cs),
(704,1795,o),
(795,1722,o),
(868,1722,cs),
(915,1722,o),
(938,1753,o),
(949,1809,c),
(1049,1809,l),
(1041,1645,o),
(957,1574,o),
(863,1574,cs)
);
},
{
closed = 1;
nodes = (
(279,-26,o),
(112,320,o),
(112,703,cs),
(112,1095,o),
(293,1442,o),
(742,1442,cs),
(1192,1442,o),
(1371,1095,o),
(1371,703,cs),
(1371,320,o),
(1206,-26,o),
(742,-26,cs)
);
},
{
closed = 1;
nodes = (
(1073,149,o),
(1164,408,o),
(1164,708,cs),
(1164,1020,o),
(1065,1268,o),
(742,1268,cs),
(420,1268,o),
(319,1020,o),
(319,708,cs),
(319,408,o),
(410,149,o),
(742,149,cs)
);
}
);
};
layerId = "01C703B5-1257-45FB-9F79-4B1C4C3BA1BB";
shapes = (
{
ref = O;
},
{
pos = (327,428);
ref = tildecomb;
}
);
width = 1483;
}
);
unicode = 213;
},
{
glyphname = OE;
lastChange = "2023-07-13 14:31:02 +0000";
layers = (
{
anchors = (
{
name = bottom;
pos = (1000,0);
},
{
name = top;
pos = (1000,1412);
}
);
background = {
anchors = (
{
name = bottom;
pos = (1000,0);
},
{
name = top;
pos = (1000,1412);
}
);
shapes = (
{
closed = 1;
nodes = (
(1875,0,l),
(743,0,ls),
(406,0,o),
(107,230,o),
(107,715,cs),
(107,1025,o),
(243,1412,o),
(792,1412,cs),
(1869,1412,l),
(1869,1240,l),
(1208,1240,l),
(1208,817,l),
(1839,817,l),
(1839,640,l),
(1208,640,l),
(1208,180,l),
(1875,180,l)
);
},
{
closed = 1;
nodes = (
(1000,1240,l),
(792,1240,ls),
(356,1240,o),
(321,888,o),
(321,718,cs),
(321,510,o),
(366,180,o),
(823,180,cs),
(1000,180,l)
);
}
);
};
layerId = "01C703B5-1257-45FB-9F79-4B1C4C3BA1BB";
shapes = (
{
closed = 1;
nodes = (
(1875,0,l),
(743,0,ls),
(406,0,o),
(107,230,o),
(107,715,cs),
(107,1025,o),
(243,1412,o),
(792,1412,cs),
(1869,1412,l),
(1869,1240,l),
(1208,1240,l),
(1208,817,l),
(1839,817,l),
(1839,640,l),
(1208,640,l),
(1208,180,l),
(1875,180,l)
);
},
{
closed = 1;
nodes = (
(1000,1240,l),
(792,1240,ls),
(356,1240,o),
(321,888,o),
(321,718,cs),
(321,510,o),
(366,180,o),
(823,180,cs),
(1000,180,l)
);
}
);
width = 1999;
}
);
unicode = 338;
},
{
glyphname = P;
lastChange = "2023-07-13 14:31:02 +0000";
layers = (
{
anchors = (
{
name = bottom;
pos = (580,0);
},
{
name = top;
pos = (580,1412);
}
);
background = {
anchors = (
{
name = bottom;
pos = (580,0);
},
{
name = top;
pos = (580,1412);
}
);
shapes = (
{
closed = 1;
nodes = (
(61,1412,l),
(608,1412,ls),
(890,1412,o),
(1101,1307,o),
(1101,1010,cs),
(1101,784,o),
(975,587,o),
(571,587,cs),
(387,587,l),
(387,0,l),
(191,0,l),
(191,1242,l),
(61,1242,l)
);
},
{
closed = 1;
nodes = (
(387,757,l),
(482,757,ls),
(684,757,o),
(896,756,o),
(896,1010,cs),
(896,1207,o),
(752,1242,o),
(601,1242,cs),
(387,1242,l)
);
}
);
};
layerId = "01C703B5-1257-45FB-9F79-4B1C4C3BA1BB";
shapes = (
{
closed = 1;
nodes = (
(61,1412,l),
(608,1412,ls),
(890,1412,o),
(1101,1307,o),
(1101,1010,cs),
(1101,784,o),
(975,587,o),
(571,587,cs),
(387,587,l),
(387,0,l),
(191,0,l),
(191,1242,l),
(61,1242,l)
);
},
{
closed = 1;
nodes = (
(387,757,l),
(482,757,ls),
(684,757,o),
(896,756,o),
(896,1010,cs),
(896,1207,o),
(752,1242,o),
(601,1242,cs),
(387,1242,l)
);
}
);
width = 1160;
}
);
unicode = 80;
},
{
glyphname = Thorn;
lastChange = "2023-07-13 14:31:02 +0000";
layers = (
{
anchors = (
{
name = bottom;
pos = (580,0);
},
{
name = top;
pos = (580,1412);
}
);
background = {
anchors = (
{
name = bottom;
pos = (580,0);
},
{
name = top;
pos = (580,1412);
}
);
shapes = (
{
closed = 1;
nodes = (
(189,1457,l),
(385,1457,l),
(385,1269,l),
(606,1269,ls),
(890,1269,o),
(1099,1166,o),
(1099,868,cs),
(1099,568,o),
(905,444,o),
(569,444,cs),
(385,444,l),
(385,0,l),
(189,0,l)
);
},
{
closed = 1;
nodes = (
(385,614,l),
(480,614,ls),
(682,614,o),
(894,613,o),
(894,868,cs),
(894,1062,o),
(750,1100,o),
(599,1100,cs),
(385,1100,l)
);
}
);
};
layerId = "01C703B5-1257-45FB-9F79-4B1C4C3BA1BB";
shapes = (
{
closed = 1;
nodes = (
(189,1457,l),
(385,1457,l),
(385,1269,l),
(606,1269,ls),
(890,1269,o),
(1099,1166,o),
(1099,868,cs),
(1099,568,o),
(905,444,o),
(569,444,cs),
(385,444,l),
(385,0,l),
(189,0,l)
);
},
{
closed = 1;
nodes = (
(385,614,l),
(480,614,ls),
(682,614,o),
(894,613,o),
(894,868,cs),
(894,1062,o),
(750,1100,o),
(599,1100,cs),
(385,1100,l)
);
}
);
width = 1160;
}
);
unicode = 222;
},
{
glyphname = Q;
lastChange = "2023-07-13 14:31:02 +0000";
layers = (
{
anchors = (
{
name = bottom;
pos = (734,0);
},
{
name = top;
pos = (734,1412);
}
);
background = {
anchors = (
{
name = bottom;
pos = (734,0);
},
{
name = top;
pos = (734,1412);
}
);
shapes = (
{
closed = 1;
nodes = (
(1352,507,o),
(1288,255,o),
(1064,92,c),
(1152,68,o),
(1286,17,o),
(1362,-25,c),
(1305,-180,l),
(1120,-107,o),
(945,-61,o),
(752,-24,c),
(733,-25,o),
(717,-26,o),
(698,-26,cs),
(343,-26,o),
(111,243,o),
(111,703,cs),
(111,1095,o),
(304,1442,o),
(728,1442,cs),
(1177,1442,o),
(1352,1107,o),
(1352,722,cs)
);
},
{
closed = 1;
nodes = (
(319,419,o),
(420,149,o),
(730,149,cs),
(1076,149,o),
(1149,468,o),
(1149,704,cs),
(1149,1055,o),
(1010,1268,o),
(733,1268,cs),
(394,1268,o),
(319,940,o),
(319,700,cs)
);
}
);
};
layerId = "01C703B5-1257-45FB-9F79-4B1C4C3BA1BB";
shapes = (
{
closed = 1;
nodes = (
(1352,507,o),
(1288,255,o),
(1064,92,c),
(1152,68,o),
(1286,17,o),
(1362,-25,c),
(1305,-180,l),
(1120,-107,o),
(945,-61,o),
(752,-24,c),
(733,-25,o),
(717,-26,o),
(698,-26,cs),
(343,-26,o),
(111,243,o),
(111,703,cs),
(111,1095,o),
(304,1442,o),
(728,1442,cs),
(1177,1442,o),
(1352,1107,o),
(1352,722,cs)
);
},
{
closed = 1;
nodes = (
(319,419,o),
(420,149,o),
(730,149,cs),
(1076,149,o),
(1149,468,o),
(1149,704,cs),
(1149,1055,o),
(1010,1268,o),
(733,1268,cs),
(394,1268,o),
(319,940,o),
(319,700,cs)
);
}
);
width = 1467;
}
);
unicode = 81;
},
{
glyphname = R;
lastChange = "2023-07-13 14:31:02 +0000";
layers = (
{
anchors = (
{
name = bottom;
pos = (642,0);
},
{
name = top;
pos = (642,1412);
}
);
background = {
anchors = (
{
name = bottom;
pos = (642,0);
},
{
name = top;
pos = (642,1412);
}
);
shapes = (
{
closed = 1;
nodes = (
(61,1412,l),
(624,1412,ls),
(869,1412,o),
(1113,1324,o),
(1113,1043,cs),
(1113,862,o),
(1014,753,o),
(854,692,c),
(1175,616,o),
(1055,416,o),
(1183,0,c),
(973,0,l),
(889,437,o),
(945,607,o),
(635,607,cs),
(387,607,l),
(387,0,l),
(191,0,l),
(191,1242,l),
(61,1242,l)
);
},
{
closed = 1;
nodes = (
(386,755,l),
(618,755,ls),
(781,755,o),
(909,824,o),
(909,1019,cs),
(909,1227,o),
(737,1242,o),
(592,1242,cs),
(386,1242,l)
);
}
);
};
layerId = "01C703B5-1257-45FB-9F79-4B1C4C3BA1BB";
shapes = (
{
closed = 1;
nodes = (
(61,1412,l),
(624,1412,ls),
(869,1412,o),
(1113,1324,o),
(1113,1043,cs),
(1113,862,o),
(1014,753,o),
(854,692,c),
(1175,616,o),
(1055,416,o),
(1183,0,c),
(973,0,l),
(889,437,o),
(945,607,o),
(635,607,cs),
(387,607,l),
(387,0,l),
(191,0,l),
(191,1242,l),
(61,1242,l)
);
},
{
closed = 1;
nodes = (
(386,755,l),
(618,755,ls),
(781,755,o),
(909,824,o),
(909,1019,cs),
(909,1227,o),
(737,1242,o),
(592,1242,cs),
(386,1242,l)
);
}
);
width = 1284;
}
);
unicode = 82;
},
{
glyphname = Racute;
lastChange = "2023-07-13 14:31:29 +0000";
layers = (
{
background = {
anchors = (
{
name = bottom;
pos = (642,0);
},
{
name = top;
pos = (642,1412);
}
);
shapes = (
{
closed = 1;
nodes = (
(277,1564,l),
(445,1873,l),
(664,1873,l),
(408,1564,l)
);
},
{
closed = 1;
nodes = (
(61,1412,l),
(624,1412,ls),
(869,1412,o),
(1113,1324,o),
(1113,1043,cs),
(1113,862,o),
(1014,753,o),
(854,692,c),
(1175,616,o),
(1055,416,o),
(1183,0,c),
(973,0,l),
(889,437,o),
(945,607,o),
(635,607,cs),
(387,607,l),
(387,0,l),
(191,0,l),
(191,1242,l),
(61,1242,l)
);
},
{
closed = 1;
nodes = (
(386,755,l),
(618,755,ls),
(781,755,o),
(909,824,o),
(909,1019,cs),
(909,1227,o),
(737,1242,o),
(592,1242,cs),
(386,1242,l)
);
}
);
};
layerId = "01C703B5-1257-45FB-9F79-4B1C4C3BA1BB";
shapes = (
{
ref = R;
},
{
pos = (199,428);
ref = acutecomb;
}
);
width = 1284;
}
);
unicode = 340;
},
{
glyphname = Rcaron;
lastChange = "2023-07-13 14:31:29 +0000";
layers = (
{
background = {
anchors = (
{
name = bottom;
pos = (642,0);
},
{
name = top;
pos = (642,1412);
}
);
shapes = (
{
closed = 1;
nodes = (
(434,1564,l),
(250,1564,l),
(27,1874,l),
(204,1874,l),
(340,1694,l),
(471,1874,l),
(658,1874,l)
);
},
{
closed = 1;
nodes = (
(61,1412,l),
(624,1412,ls),
(869,1412,o),
(1113,1324,o),
(1113,1043,cs),
(1113,862,o),
(1014,753,o),
(854,692,c),
(1175,616,o),
(1055,416,o),
(1183,0,c),
(973,0,l),
(889,437,o),
(945,607,o),
(635,607,cs),
(387,607,l),
(387,0,l),
(191,0,l),
(191,1242,l),
(61,1242,l)
);
},
{
closed = 1;
nodes = (
(386,755,l),
(618,755,ls),
(781,755,o),
(909,824,o),
(909,1019,cs),
(909,1227,o),
(737,1242,o),
(592,1242,cs),
(386,1242,l)
);
}
);
};
layerId = "01C703B5-1257-45FB-9F79-4B1C4C3BA1BB";
shapes = (
{
ref = R;
},
{
pos = (364,428);
ref = caroncomb;
}
);
width = 1284;
}
);
unicode = 344;
},
{
color = 9;
glyphname = Rcommaaccent;
lastChange = "2023-07-13 14:31:29 +0000";
layers = (
{
background = {
anchors = (
{
name = bottom;
pos = (642,0);
},
{
name = top;
pos = (642,1412);
}
);
shapes = (
{
closed = 1;
nodes = (
(61,1412,l),
(624,1412,ls),
(869,1412,o),
(1113,1324,o),
(1113,1043,cs),
(1113,862,o),
(1014,753,o),
(854,692,c),
(1175,616,o),
(1055,416,o),
(1183,0,c),
(973,0,l),
(889,437,o),
(945,607,o),
(635,607,cs),
(387,607,l),
(387,0,l),
(191,0,l),
(191,1242,l),
(61,1242,l)
);
},
{
closed = 1;
nodes = (
(386,755,l),
(618,755,ls),
(781,755,o),
(909,824,o),
(909,1019,cs),
(909,1227,o),
(737,1242,o),
(592,1242,cs),
(386,1242,l)
);
},
{
closed = 1;
nodes = (
(38,-599,l),
(150,-107,l),
(372,-107,l),
(178,-599,l)
);
}
);
};
layerId = "01C703B5-1257-45FB-9F79-4B1C4C3BA1BB";
shapes = (
{
ref = R;
},
{
ref = commaaccentcomb;
}
);
width = 1284;
}
);
unicode = 342;
},
{
glyphname = Rdblgrave;
lastChange = "2023-07-13 14:31:29 +0000";
layers = (
{
background = {
anchors = (
{
name = bottom;
pos = (642,0);
},
{
name = top;
pos = (642,1412);
}
);
shapes = (
{
closed = 1;
nodes = (
(566,1564,l),
(430,1564,l),
(182,1857,l),
(399,1857,l)
);
},
{
closed = 1;
nodes = (
(258,1564,l),
(121,1564,l),
(-127,1857,l),
(89,1857,l)
);
},
{
closed = 1;
nodes = (
(61,1412,l),
(624,1412,ls),
(869,1412,o),
(1113,1324,o),
(1113,1043,cs),
(1113,862,o),
(1014,753,o),
(854,692,c),
(1175,616,o),
(1055,416,o),
(1183,0,c),
(973,0,l),
(889,437,o),
(945,607,o),
(635,607,cs),
(387,607,l),
(387,0,l),
(191,0,l),
(191,1242,l),
(61,1242,l)
);
},
{
closed = 1;
nodes = (
(386,755,l),
(618,755,ls),
(781,755,o),
(909,824,o),
(909,1019,cs),
(909,1227,o),
(737,1242,o),
(592,1242,cs),
(386,1242,l)
);
}
);
};
layerId = "01C703B5-1257-45FB-9F79-4B1C4C3BA1BB";
shapes = (
{
ref = R;
},
{
ref = dblgravecomb;
}
);
width = 1284;
}
);
unicode = 528;
},
{
glyphname = Rinvertedbreve;
lastChange = "2023-07-13 14:31:29 +0000";
layers = (
{
background = {
anchors = (
{
name = bottom;
pos = (642,0);
},
{
name = top;
pos = (642,1412);
}
);
shapes = (
{
closed = 1;
nodes = (
(301,1564,l),
(301,1653,o),
(313,1883,o),
(568,1883,cs),
(753,1883,o),
(839,1773,o),
(842,1564,c),
(743,1564,l),
(738,1615,o),
(717,1746,o),
(568,1746,cs),
(457,1746,o),
(408,1677,o),
(401,1564,c)
);
},
{
closed = 1;
nodes = (
(61,1412,l),
(624,1412,ls),
(869,1412,o),
(1113,1324,o),
(1113,1043,cs),
(1113,862,o),
(1014,753,o),
(854,692,c),
(1175,616,o),
(1055,416,o),
(1183,0,c),
(973,0,l),
(889,437,o),
(945,607,o),
(635,607,cs),
(387,607,l),
(387,0,l),
(191,0,l),
(191,1242,l),
(61,1242,l)
);
},
{
closed = 1;
nodes = (
(386,755,l),
(618,755,ls),
(781,755,o),
(909,824,o),
(909,1019,cs),
(909,1227,o),
(737,1242,o),
(592,1242,cs),
(386,1242,l)
);
}
);
};
layerId = "01C703B5-1257-45FB-9F79-4B1C4C3BA1BB";
shapes = (
{
ref = R;
},
{
ref = breveinvertedcomb;
}
);
width = 1284;
}
);
unicode = 530;
},
{
glyphname = S;
lastChange = "2023-07-13 14:31:02 +0000";
layers = (
{
anchors = (
{
name = bottom;
pos = (548,0);
},
{
name = top;
pos = (548,1412);
}
);
background = {
anchors = (
{
name = bottom;
pos = (548,0);
},
{
name = top;
pos = (548,1412);
}
);
shapes = (
{
closed = 1;
nodes = (
(708,149,o),
(804,251,o),
(804,383,cs),
(804,517,o),
(717,573,o),
(500,651,cs),
(217,752,o),
(120,873,o),
(120,1070,cs),
(120,1313,o),
(313,1442,o),
(561,1442,cs),
(690,1442,o),
(830,1401,o),
(975,1305,c),
(898,1159,l),
(777,1236,o),
(665,1268,o),
(565,1268,cs),
(400,1268,o),
(311,1195,o),
(311,1074,cs),
(311,939,o),
(380,887,o),
(582,821,c),
(937,701,o),
(994,583,o),
(994,401,cs),
(994,137,o),
(812,-26,o),
(501,-26,cs),
(380,-26,o),
(240,9,o),
(87,93,c),
(151,249,l),
(280,181,o),
(389,149,o),
(489,149,cs)
);
}
);
};
layerId = "01C703B5-1257-45FB-9F79-4B1C4C3BA1BB";
shapes = (
{
closed = 1;
nodes = (
(708,149,o),
(804,251,o),
(804,383,cs),
(804,517,o),
(717,573,o),
(500,651,cs),
(217,752,o),
(120,873,o),
(120,1070,cs),
(120,1313,o),
(313,1442,o),
(561,1442,cs),
(690,1442,o),
(830,1401,o),
(975,1305,c),
(898,1159,l),
(777,1236,o),
(665,1268,o),
(565,1268,cs),
(400,1268,o),
(311,1195,o),
(311,1074,cs),
(311,939,o),
(380,887,o),
(582,821,c),
(937,701,o),
(994,583,o),
(994,401,cs),
(994,137,o),
(812,-26,o),
(501,-26,cs),
(380,-26,o),
(240,9,o),
(87,93,c),
(151,249,l),
(280,181,o),
(389,149,o),
(489,149,cs)
);
}
);
width = 1095;
}
);
unicode = 83;
},
{
glyphname = Sacute;
lastChange = "2023-07-13 14:31:29 +0000";
layers = (
{
background = {
anchors = (
{
name = bottom;
pos = (548,0);
},
{
name = top;
pos = (548,1412);
}
);
shapes = (
{
closed = 1;
nodes = (
(495,1564,l),
(663,1873,l),
(882,1873,l),
(626,1564,l)
);
},
{
closed = 1;
nodes = (
(708,149,o),
(804,251,o),
(804,383,cs),
(804,517,o),
(717,573,o),
(500,651,cs),
(217,752,o),
(120,873,o),
(120,1070,cs),
(120,1313,o),
(313,1442,o),
(561,1442,cs),
(690,1442,o),
(830,1401,o),
(975,1305,c),
(898,1159,l),
(777,1236,o),
(665,1268,o),
(565,1268,cs),
(400,1268,o),
(311,1195,o),
(311,1074,cs),
(311,939,o),
(380,887,o),
(582,821,c),
(937,701,o),
(994,583,o),
(994,401,cs),
(994,137,o),
(812,-26,o),
(501,-26,cs),
(380,-26,o),
(240,9,o),
(87,93,c),
(151,249,l),
(280,181,o),
(389,149,o),
(489,149,cs)
);
}
);
};
layerId = "01C703B5-1257-45FB-9F79-4B1C4C3BA1BB";
shapes = (
{
ref = S;
},
{
pos = (105,428);
ref = acutecomb;
}
);
width = 1095;
}
);
unicode = 346;
},
{
glyphname = Scaron;
lastChange = "2023-07-13 14:31:29 +0000";
layers = (
{
background = {
anchors = (
{
name = bottom;
pos = (548,0);
},
{
name = top;
pos = (548,1412);
}
);
shapes = (
{
closed = 1;
nodes = (
(653,1564,l),
(469,1564,l),
(246,1874,l),
(423,1874,l),
(559,1694,l),
(690,1874,l),
(877,1874,l)
);
},
{
closed = 1;
nodes = (
(708,149,o),
(804,251,o),
(804,383,cs),
(804,517,o),
(717,573,o),
(500,651,cs),
(217,752,o),
(120,873,o),
(120,1070,cs),
(120,1313,o),
(313,1442,o),
(561,1442,cs),
(690,1442,o),
(830,1401,o),
(975,1305,c),
(898,1159,l),
(777,1236,o),
(665,1268,o),
(565,1268,cs),
(400,1268,o),
(311,1195,o),
(311,1074,cs),
(311,939,o),
(380,887,o),
(582,821,c),
(937,701,o),
(994,583,o),
(994,401,cs),
(994,137,o),
(812,-26,o),
(501,-26,cs),
(380,-26,o),
(240,9,o),
(87,93,c),
(151,249,l),
(280,181,o),
(389,149,o),
(489,149,cs)
);
}
);
};
layerId = "01C703B5-1257-45FB-9F79-4B1C4C3BA1BB";
shapes = (
{
ref = S;
},
{
pos = (270,428);
ref = caroncomb;
}
);
width = 1095;
}
);
unicode = 352;
},
{
glyphname = Scedilla;
lastChange = "2023-07-13 14:31:29 +0000";
layers = (
{
background = {
anchors = (
{
name = bottom;
pos = (548,0);
},
{
name = top;
pos = (548,1412);
}
);
shapes = (
{
closed = 1;
nodes = (
(672,-344,o),
(630,-467,o),
(413,-467,cs),
(353,-467,o),
(309,-455,o),
(272,-440,c),
(298,-341,l),
(325,-352,o),
(364,-358,o),
(404,-358,cs),
(472,-358,o),
(520,-332,o),
(520,-284,cs),
(520,-231,o),
(458,-217,o),
(413,-217,cs),
(402,-217,o),
(395,-217,o),
(387,-218,c),
(334,-191,l),
(446,-10,l),
(557,-10,l),
(486,-125,l),
(615,-144,o),
(672,-188,o),
(672,-276,cs)
);
},
{
closed = 1;
nodes = (
(708,149,o),
(804,251,o),
(804,383,cs),
(804,517,o),
(717,573,o),
(500,651,cs),
(217,752,o),
(120,873,o),
(120,1070,cs),
(120,1313,o),
(313,1442,o),
(561,1442,cs),
(690,1442,o),
(830,1401,o),
(975,1305,c),
(898,1159,l),
(777,1236,o),
(665,1268,o),
(565,1268,cs),
(400,1268,o),
(311,1195,o),
(311,1074,cs),
(311,939,o),
(380,887,o),
(582,821,c),
(937,701,o),
(994,583,o),
(994,401,cs),
(994,137,o),
(812,-26,o),
(501,-26,cs),
(380,-26,o),
(240,9,o),
(87,93,c),
(151,249,l),
(280,181,o),
(389,149,o),
(489,149,cs)
);
}
);
};
layerId = "01C703B5-1257-45FB-9F79-4B1C4C3BA1BB";
shapes = (
{
ref = S;
},
{
pos = (314,0);
ref = cedillacomb;
}
);
width = 1095;
}
);
unicode = 350;
},
{
glyphname = Scommaaccent;
lastChange = "2023-07-13 14:31:29 +0000";
layers = (
{
background = {
anchors = (
{
name = bottom;
pos = (548,0);
},
{
name = top;
pos = (548,1412);
}
);
shapes = (
{
closed = 1;
nodes = (
(334,-639,l),
(446,-147,l),
(668,-147,l),
(474,-639,l)
);
},
{
closed = 1;
nodes = (
(708,149,o),
(804,251,o),
(804,383,cs),
(804,517,o),
(717,573,o),
(500,651,cs),
(217,752,o),
(120,873,o),
(120,1070,cs),
(120,1313,o),
(313,1442,o),
(561,1442,cs),
(690,1442,o),
(830,1401,o),
(975,1305,c),
(898,1159,l),
(777,1236,o),
(665,1268,o),
(565,1268,cs),
(400,1268,o),
(311,1195,o),
(311,1074,cs),
(311,939,o),
(380,887,o),
(582,821,c),
(937,701,o),
(994,583,o),
(994,401,cs),
(994,137,o),
(812,-26,o),
(501,-26,cs),
(380,-26,o),
(240,9,o),
(87,93,c),
(151,249,l),
(280,181,o),
(389,149,o),
(489,149,cs)
);
}
);
};
layerId = "01C703B5-1257-45FB-9F79-4B1C4C3BA1BB";
shapes = (
{
ref = S;
},
{
ref = commaaccentcomb;
}
);
width = 1095;
}
);
unicode = 536;
},
{
glyphname = T;
lastChange = "2023-07-13 14:31:02 +0000";
layers = (
{
anchors = (
{
name = bottom;
pos = (570,0);
},
{
name = center;
pos = (570,706);
},
{
name = top;
pos = (570,1412);
}
);
background = {
anchors = (
{
name = bottom;
pos = (570,0);
},
{
name = center;
pos = (570,706);
},
{
name = top;
pos = (570,1412);
}
);
shapes = (
{
closed = 1;
nodes = (
(668,0,l),
(473,0,l),
(473,1242,l),
(35,1242,l),
(35,1412,l),
(1106,1412,l),
(1106,1242,l),
(668,1242,l)
);
}
);
};
layerId = "01C703B5-1257-45FB-9F79-4B1C4C3BA1BB";
shapes = (
{
closed = 1;
nodes = (
(668,0,l),
(473,0,l),
(473,1242,l),
(35,1242,l),
(35,1412,l),
(1106,1412,l),
(1106,1242,l),
(668,1242,l)
);
}
);
width = 1140;
}
);
unicode = 84;
},
{
glyphname = Tcaron;
lastChange = "2023-07-13 14:31:29 +0000";
layers = (
{
background = {
anchors = (
{
name = bottom;
pos = (570,0);
},
{
name = center;
pos = (570,706);
},
{
name = top;
pos = (570,1412);
}
);
shapes = (
{
closed = 1;
nodes = (
(662,1564,l),
(478,1564,l),
(255,1874,l),
(432,1874,l),
(568,1694,l),
(699,1874,l),
(886,1874,l)
);
},
{
closed = 1;
nodes = (
(668,0,l),
(473,0,l),
(473,1242,l),
(35,1242,l),
(35,1412,l),
(1106,1412,l),
(1106,1242,l),
(668,1242,l)
);
}
);
};
layerId = "01C703B5-1257-45FB-9F79-4B1C4C3BA1BB";
shapes = (
{
ref = T;
},
{
pos = (292,428);
ref = caroncomb;
}
);
width = 1140;
}
);
unicode = 356;
},
{
glyphname = Tcedilla;
lastChange = "2023-07-13 14:31:29 +0000";
layers = (
{
background = {
anchors = (
{
name = bottom;
pos = (570,0);
},
{
name = center;
pos = (570,706);
},
{
name = top;
pos = (570,1412);
}
);
shapes = (
{
closed = 1;
nodes = (
(741,-318,o),
(699,-441,o),
(482,-441,cs),
(422,-441,o),
(378,-429,o),
(341,-414,c),
(367,-315,l),
(394,-326,o),
(433,-332,o),
(473,-332,cs),
(541,-332,o),
(589,-306,o),
(589,-258,cs),
(589,-205,o),
(527,-191,o),
(482,-191,cs),
(471,-191,o),
(464,-191,o),
(456,-192,c),
(403,-165,l),
(515,16,l),
(626,16,l),
(555,-99,l),
(684,-118,o),
(741,-162,o),
(741,-250,cs)
);
},
{
closed = 1;
nodes = (
(668,0,l),
(473,0,l),
(473,1242,l),
(35,1242,l),
(35,1412,l),
(1106,1412,l),
(1106,1242,l),
(668,1242,l)
);
}
);
};
layerId = "01C703B5-1257-45FB-9F79-4B1C4C3BA1BB";
shapes = (
{
ref = T;
},
{
pos = (336,0);
ref = cedillacomb;
}
);
width = 1140;
}
);
unicode = 354;
},
{
glyphname = Tcommaaccent;
lastChange = "2023-07-13 14:31:29 +0000";
layers = (
{
background = {
anchors = (
{
name = bottom;
pos = (570,0);
},
{
name = center;
pos = (570,706);
},
{
name = top;
pos = (570,1412);
}
);
shapes = (
{
closed = 1;
nodes = (
(404,-613,l),
(516,-121,l),
(738,-121,l),
(544,-613,l)
);
},
{
closed = 1;
nodes = (
(668,0,l),
(473,0,l),
(473,1242,l),
(35,1242,l),
(35,1412,l),
(1106,1412,l),
(1106,1242,l),
(668,1242,l)
);
}
);
};
layerId = "01C703B5-1257-45FB-9F79-4B1C4C3BA1BB";
shapes = (
{
ref = T;
},
{
ref = commaaccentcomb;
}
);
width = 1140;
}
);
unicode = 538;
},
{
glyphname = U;
lastChange = "2023-07-13 14:31:02 +0000";
layers = (
{
anchors = (
{
name = bottom;
pos = (721,0);
},
{
name = ogonek;
pos = (1297,10);
},
{
name = top;
pos = (721,1412);
},
{
name = topright;
pos = (1421,1412);
}
);
background = {
anchors = (
{
name = bottom;
pos = (721,0);
},
{
name = ogonek;
pos = (1297,10);
},
{
name = top;
pos = (721,1412);
},
{
name = topright;
pos = (1421,1412);
}
);
shapes = (
{
closed = 1;
nodes = (
(1266,1412,l),
(1266,524,ls),
(1266,193,o),
(1045,-26,o),
(721,-26,cs),
(398,-26,o),
(174,163,o),
(174,531,cs),
(174,1412,l),
(370,1412,l),
(370,519,ls),
(370,222,o),
(554,150,o),
(725,150,cs),
(1029,150,o),
(1073,376,o),
(1073,524,cs),
(1073,1412,l)
);
}
);
};
layerId = "01C703B5-1257-45FB-9F79-4B1C4C3BA1BB";
shapes = (
{
closed = 1;
nodes = (
(1266,1412,l),
(1266,524,ls),
(1266,193,o),
(1045,-26,o),
(721,-26,cs),
(398,-26,o),
(174,163,o),
(174,531,cs),
(174,1412,l),
(370,1412,l),
(370,519,ls),
(370,222,o),
(554,150,o),
(725,150,cs),
(1029,150,o),
(1073,376,o),
(1073,524,cs),
(1073,1412,l)
);
}
);
width = 1441;
}
);
unicode = 85;
},
{
glyphname = Uacute;
lastChange = "2023-07-13 14:31:29 +0000";
layers = (
{
background = {
anchors = (
{
name = bottom;
pos = (721,0);
},
{
name = ogonek;
pos = (1297,10);
},
{
name = top;
pos = (721,1412);
},
{
name = topright;
pos = (1421,1412);
}
);
shapes = (
{
closed = 1;
nodes = (
(655,1564,l),
(823,1873,l),
(1042,1873,l),
(786,1564,l)
);
},
{
closed = 1;
nodes = (
(1266,1412,l),
(1266,524,ls),
(1266,193,o),
(1045,-26,o),
(721,-26,cs),
(398,-26,o),
(174,163,o),
(174,531,cs),
(174,1412,l),
(370,1412,l),
(370,519,ls),
(370,222,o),
(554,150,o),
(725,150,cs),
(1029,150,o),
(1073,376,o),
(1073,524,cs),
(1073,1412,l)
);
}
);
};
layerId = "01C703B5-1257-45FB-9F79-4B1C4C3BA1BB";
shapes = (
{
ref = U;
},
{
pos = (278,428);
ref = acutecomb;
}
);
width = 1441;
}
);
unicode = 218;
},
{
color = 9;
glyphname = Ubreve;
lastChange = "2023-07-13 14:31:29 +0000";
layers = (
{
background = {
anchors = (
{
name = bottom;
pos = (721,0);
},
{
name = ogonek;
pos = (1297,10);
},
{
name = top;
pos = (721,1900);
},
{
name = topright;
pos = (1421,1412);
}
);
shapes = (
{
closed = 1;
nodes = (
(1266,1412,l),
(1266,524,ls),
(1266,193,o),
(1045,-26,o),
(721,-26,cs),
(398,-26,o),
(174,163,o),
(174,531,cs),
(174,1412,l),
(370,1412,l),
(370,519,ls),
(370,222,o),
(554,150,o),
(725,150,cs),
(1029,150,o),
(1073,376,o),
(1073,524,cs),
(1073,1412,l)
);
},
{
closed = 1;
nodes = (
(550,1900,l),
(557,1787,o),
(606,1718,o),
(717,1718,cs),
(866,1718,o),
(887,1849,o),
(892,1900,c),
(991,1900,l),
(988,1691,o),
(902,1581,o),
(717,1581,cs),
(462,1581,o),
(450,1810,o),
(450,1900,c)
);
}
);
};
layerId = "01C703B5-1257-45FB-9F79-4B1C4C3BA1BB";
shapes = (
{
ref = U;
},
{
pos = (449,428);
ref = brevecomb;
}
);
width = 1441;
}
);
unicode = 364;
},
{
glyphname = Ucircumflex;
lastChange = "2023-07-13 14:31:29 +0000";
layers = (
{
background = {
anchors = (
{
name = bottom;
pos = (721,0);
},
{
name = ogonek;
pos = (1297,10);
},
{
name = top;
pos = (721,1412);
},
{
name = topright;
pos = (1421,1412);
}
);
shapes = (
{
closed = 1;
nodes = (
(881,1564,l),
(718,1790,l),
(552,1564,l),
(371,1564,l),
(631,1922,l),
(813,1922,l),
(1069,1564,l)
);
},
{
closed = 1;
nodes = (
(1266,1412,l),
(1266,524,ls),
(1266,193,o),
(1045,-26,o),
(721,-26,cs),
(398,-26,o),
(174,163,o),
(174,531,cs),
(174,1412,l),
(370,1412,l),
(370,519,ls),
(370,222,o),
(554,150,o),
(725,150,cs),
(1029,150,o),
(1073,376,o),
(1073,524,cs),
(1073,1412,l)
);
}
);
};
layerId = "01C703B5-1257-45FB-9F79-4B1C4C3BA1BB";
shapes = (
{
ref = U;
},
{
pos = (319,428);
ref = circumflexcomb;
}
);
width = 1441;
}
);
unicode = 219;
},
{
glyphname = Udblgrave;
lastChange = "2023-07-13 14:31:29 +0000";
layers = (
{
background = {
anchors = (
{
name = bottom;
pos = (721,0);
},
{
name = ogonek;
pos = (1297,10);
},
{
name = top;
pos = (721,1412);
},
{
name = topright;
pos = (1421,1412);
}
);
shapes = (
{
closed = 1;
nodes = (
(943,1564,l),
(807,1564,l),
(559,1857,l),
(776,1857,l)
);
},
{
closed = 1;
nodes = (
(635,1564,l),
(498,1564,l),
(250,1857,l),
(466,1857,l)
);
},
{
closed = 1;
nodes = (
(1266,1412,l),
(1266,524,ls),
(1266,193,o),
(1045,-26,o),
(721,-26,cs),
(398,-26,o),
(174,163,o),
(174,531,cs),
(174,1412,l),
(370,1412,l),
(370,519,ls),
(370,222,o),
(554,150,o),
(725,150,cs),
(1029,150,o),
(1073,376,o),
(1073,524,cs),
(1073,1412,l)
);
}
);
};
layerId = "01C703B5-1257-45FB-9F79-4B1C4C3BA1BB";
shapes = (
{
ref = U;
},
{
ref = dblgravecomb;
}
);
width = 1441;
}
);
unicode = 532;
},
{
glyphname = Udieresis;
lastChange = "2023-07-13 14:31:29 +0000";
layers = (
{
background = {
anchors = (
{
name = bottom;
pos = (721,0);
},
{
name = ogonek;
pos = (1297,10);
},
{
name = top;
pos = (721,1412);
},
{
name = topright;
pos = (1421,1412);
}
);
shapes = (
{
closed = 1;
nodes = (
(642,1736,l),
(642,1564,l),
(420,1564,l),
(420,1736,l)
);
},
{
closed = 1;
nodes = (
(1020,1736,l),
(1020,1564,l),
(798,1564,l),
(798,1736,l)
);
},
{
closed = 1;
nodes = (
(1266,1412,l),
(1266,524,ls),
(1266,193,o),
(1045,-26,o),
(721,-26,cs),
(398,-26,o),
(174,163,o),
(174,531,cs),
(174,1412,l),
(370,1412,l),
(370,519,ls),
(370,222,o),
(554,150,o),
(725,150,cs),
(1029,150,o),
(1073,376,o),
(1073,524,cs),
(1073,1412,l)
);
}
);
};
layerId = "01C703B5-1257-45FB-9F79-4B1C4C3BA1BB";
shapes = (
{
ref = U;
},
{
pos = (316,428);
ref = dieresiscomb;
}
);
width = 1441;
}
);
unicode = 220;
},
{
glyphname = Ugrave;
lastChange = "2023-07-13 14:31:29 +0000";
layers = (
{
background = {
anchors = (
{
name = bottom;
pos = (721,0);
},
{
name = ogonek;
pos = (1297,10);
},
{
name = top;
pos = (721,1412);
},
{
name = topright;
pos = (1421,1412);
}
);
shapes = (
{
closed = 1;
nodes = (
(655,1564,l),
(382,1873,l),
(612,1873,l),
(784,1564,l)
);
},
{
closed = 1;
nodes = (
(1266,1412,l),
(1266,524,ls),
(1266,193,o),
(1045,-26,o),
(721,-26,cs),
(398,-26,o),
(174,163,o),
(174,531,cs),
(174,1412,l),
(370,1412,l),
(370,519,ls),
(370,222,o),
(554,150,o),
(725,150,cs),
(1029,150,o),
(1073,376,o),
(1073,524,cs),
(1073,1412,l)
);
}
);
};
layerId = "01C703B5-1257-45FB-9F79-4B1C4C3BA1BB";
shapes = (
{
ref = U;
},
{
pos = (358,428);
ref = gravecomb;
}
);
width = 1441;
}
);
unicode = 217;
},
{
glyphname = Uhungarumlaut;
lastChange = "2023-07-13 14:31:29 +0000";
layers = (
{
background = {
anchors = (
{
name = bottom;
pos = (721,0);
},
{
name = ogonek;
pos = (1297,10);
},
{
name = top;
pos = (721,1412);
},
{
name = topright;
pos = (1421,1412);
}
);
shapes = (
{
closed = 1;
nodes = (
(665,1857,l),
(882,1857,l),
(634,1564,l),
(498,1564,l)
);
},
{
closed = 1;
nodes = (
(975,1857,l),
(1191,1857,l),
(943,1564,l),
(806,1564,l)
);
},
{
closed = 1;
nodes = (
(1266,1412,l),
(1266,524,ls),
(1266,193,o),
(1045,-26,o),
(721,-26,cs),
(398,-26,o),
(174,163,o),
(174,531,cs),
(174,1412,l),
(370,1412,l),
(370,519,ls),
(370,222,o),
(554,150,o),
(725,150,cs),
(1029,150,o),
(1073,376,o),
(1073,524,cs),
(1073,1412,l)
);
}
);
};
layerId = "01C703B5-1257-45FB-9F79-4B1C4C3BA1BB";
shapes = (
{
ref = U;
},
{
pos = (306,428);
ref = hungarumlautcomb;
}
);
width = 1441;
}
);
unicode = 368;
},
{
glyphname = Uinvertedbreve;
lastChange = "2023-07-13 14:31:29 +0000";
layers = (
{
background = {
anchors = (
{
name = bottom;
pos = (721,0);
},
{
name = ogonek;
pos = (1297,10);
},
{
name = top;
pos = (721,1412);
},
{
name = topright;
pos = (1421,1412);
}
);
shapes = (
{
closed = 1;
nodes = (
(449,1564,l),
(449,1653,o),
(461,1883,o),
(716,1883,cs),
(901,1883,o),
(987,1773,o),
(990,1564,c),
(891,1564,l),
(886,1615,o),
(865,1746,o),
(716,1746,cs),
(605,1746,o),
(556,1677,o),
(549,1564,c)
);
},
{
closed = 1;
nodes = (
(1266,1412,l),
(1266,524,ls),
(1266,193,o),
(1045,-26,o),
(721,-26,cs),
(398,-26,o),
(174,163,o),
(174,531,cs),
(174,1412,l),
(370,1412,l),
(370,519,ls),
(370,222,o),
(554,150,o),
(725,150,cs),
(1029,150,o),
(1073,376,o),
(1073,524,cs),
(1073,1412,l)
);
}
);
};
layerId = "01C703B5-1257-45FB-9F79-4B1C4C3BA1BB";
shapes = (
{
ref = U;
},
{
ref = breveinvertedcomb;
}
);
width = 1441;
}
);
unicode = 534;
},
{
color = 9;
glyphname = Umacron;
lastChange = "2023-07-13 14:31:29 +0000";
layers = (
{
background = {
anchors = (
{
name = bottom;
pos = (721,0);
},
{
name = ogonek;
pos = (1297,10);
},
{
name = top;
pos = (721,1787);
},
{
name = topright;
pos = (1421,1412);
}
);
shapes = (
{
closed = 1;
nodes = (
(1266,1412,l),
(1266,524,ls),
(1266,193,o),
(1045,-26,o),
(721,-26,cs),
(398,-26,o),
(174,163,o),
(174,531,cs),
(174,1412,l),
(370,1412,l),
(370,519,ls),
(370,222,o),
(554,150,o),
(725,150,cs),
(1029,150,o),
(1073,376,o),
(1073,524,cs),
(1073,1412,l)
);
},
{
closed = 1;
nodes = (
(449,1787,l),
(992,1787,l),
(992,1670,l),
(449,1670,l)
);
}
);
};
layerId = "01C703B5-1257-45FB-9F79-4B1C4C3BA1BB";
shapes = (
{
ref = U;
},
{
pos = (452,428);
ref = macroncomb;
}
);
width = 1441;
}
);
unicode = 362;
},
{
color = 9;
glyphname = Uogonek;
lastChange = "2023-07-13 14:31:29 +0000";
layers = (
{
background = {
anchors = (
{
name = bottom;
pos = (721,0);
},
{
name = ogonek;
pos = (1297,10);
},
{
name = top;
pos = (721,1412);
},
{
name = topright;
pos = (1421,1412);
}
);
shapes = (
{
closed = 1;
nodes = (
(1266,1412,l),
(1266,524,ls),
(1266,193,o),
(1045,-26,o),
(721,-26,cs),
(398,-26,o),
(174,163,o),
(174,531,cs),
(174,1412,l),
(370,1412,l),
(370,519,ls),
(370,222,o),
(554,150,o),
(725,150,cs),
(1029,150,o),
(1073,376,o),
(1073,524,cs),
(1073,1412,l)
);
},
{
closed = 1;
nodes = (
(1261,10,l),
(1170,-51,o),
(1086,-112,o),
(1086,-181,cs),
(1086,-271,o),
(1189,-271,o),
(1205,-271,cs),
(1242,-271,o),
(1265,-260,o),
(1297,-241,c),
(1297,-337,l),
(1246,-364,o),
(1193,-389,o),
(1110,-389,cs),
(969,-389,o),
(922,-302,o),
(922,-238,cs),
(922,-129,o),
(1031,-46,o),
(1162,10,c)
);
}
);
};
layerId = "01C703B5-1257-45FB-9F79-4B1C4C3BA1BB";
shapes = (
{
ref = U;
},
{
pos = (838,-5);
ref = ogonekcomb;
}
);
width = 1441;
}
);
unicode = 370;
},
{
glyphname = Uring;
lastChange = "2023-07-13 14:31:29 +0000";
layers = (
{
background = {
anchors = (
{
name = bottom;
pos = (721,0);
},
{
name = ogonek;
pos = (1297,10);
},
{
name = top;
pos = (721,1412);
},
{
name = topright;
pos = (1421,1412);
}
);
shapes = (
{
closed = 1;
nodes = (
(721,1937,l),
(645,1937,o),
(576,1880,o),
(576,1795,cs),
(576,1718,o),
(634,1658,o),
(721,1658,cs),
(805,1658,o),
(864,1718,o),
(864,1795,cs),
(864,1880,o),
(795,1937,o),
(719,1937,c)
);
},
{
closed = 1;
nodes = (
(859,2030,o),
(957,1933,o),
(957,1795,cs),
(957,1660,o),
(859,1564,o),
(720,1564,cs),
(581,1564,o),
(483,1660,o),
(483,1795,cs),
(483,1933,o),
(581,2030,o),
(720,2030,cs)
);
},
{
closed = 1;
nodes = (
(1266,1412,l),
(1266,524,ls),
(1266,193,o),
(1045,-26,o),
(721,-26,cs),
(398,-26,o),
(174,163,o),
(174,531,cs),
(174,1412,l),
(370,1412,l),
(370,519,ls),
(370,222,o),
(554,150,o),
(725,150,cs),
(1029,150,o),
(1073,376,o),
(1073,524,cs),
(1073,1412,l)
);
}
);
};
layerId = "01C703B5-1257-45FB-9F79-4B1C4C3BA1BB";
shapes = (
{
ref = U;
},
{
pos = (318,428);
ref = ringcomb;
}
);
width = 1441;
}
);
unicode = 366;
},
{
glyphname = V;
lastChange = "2023-07-13 14:31:02 +0000";
layers = (
{
anchors = (
{
name = bottom;
pos = (606,0);
},
{
name = top;
pos = (606,1412);
}
);
background = {
anchors = (
{
name = bottom;
pos = (606,0);
},
{
name = top;
pos = (606,1412);
}
);
shapes = (
{
closed = 1;
nodes = (
(1000,1412,l),
(1205,1412,l),
(706,0,l),
(500,0,l),
(15,1412,l),
(229,1412,l),
(467,638,l),
(601,194,l),
(612,194,l),
(757,641,l)
);
}
);
};
layerId = "01C703B5-1257-45FB-9F79-4B1C4C3BA1BB";
shapes = (
{
closed = 1;
nodes = (
(1000,1412,l),
(1205,1412,l),
(706,0,l),
(500,0,l),
(15,1412,l),
(229,1412,l),
(467,638,l),
(601,194,l),
(612,194,l),
(757,641,l)
);
}
);
width = 1212;
}
);
unicode = 86;
},
{
glyphname = W;
lastChange = "2023-07-13 14:31:02 +0000";
layers = (
{
anchors = (
{
name = bottom;
pos = (949,0);
},
{
name = top;
pos = (949,1412);
}
);
background = {
anchors = (
{
name = bottom;
pos = (949,0);
},
{
name = top;
pos = (949,1412);
}
);
shapes = (
{
closed = 1;
nodes = (
(1068,1412,l),
(1369,240,l),
(1390,240,l),
(1490,707,l),
(1666,1412,l),
(1874,1412,l),
(1486,0,l),
(1285,0,l),
(1084,735,l),
(961,1219,l),
(951,1219,l),
(828,735,l),
(627,0,l),
(426,0,l),
(38,1412,l),
(246,1412,l),
(422,707,l),
(522,240,l),
(543,240,l),
(844,1412,l),
(1067,1412,l)
);
}
);
};
layerId = "01C703B5-1257-45FB-9F79-4B1C4C3BA1BB";
shapes = (
{
closed = 1;
nodes = (
(1068,1412,l),
(1369,240,l),
(1390,240,l),
(1490,707,l),
(1666,1412,l),
(1874,1412,l),
(1486,0,l),
(1285,0,l),
(1084,735,l),
(961,1219,l),
(951,1219,l),
(828,735,l),
(627,0,l),
(426,0,l),
(38,1412,l),
(246,1412,l),
(422,707,l),
(522,240,l),
(543,240,l),
(844,1412,l),
(1067,1412,l)
);
}
);
width = 1898;
}
);
unicode = 87;
},
{
color = 9;
glyphname = Wacute;
lastChange = "2023-07-13 14:31:29 +0000";
layers = (
{
background = {
anchors = (
{
name = bottom;
pos = (949,0);
},
{
name = top;
pos = (949,1902);
}
);
shapes = (
{
closed = 1;
nodes = (
(1068,1412,l),
(1369,240,l),
(1390,240,l),
(1490,707,l),
(1666,1412,l),
(1874,1412,l),
(1486,0,l),
(1285,0,l),
(1084,735,l),
(961,1219,l),
(951,1219,l),
(828,735,l),
(627,0,l),
(426,0,l),
(38,1412,l),
(246,1412,l),
(422,707,l),
(522,240,l),
(543,240,l),
(844,1412,l),
(1067,1412,l)
);
},
{
closed = 1;
nodes = (
(755,1593,l),
(923,1902,l),
(1142,1902,l),
(886,1593,l)
);
}
);
};
layerId = "01C703B5-1257-45FB-9F79-4B1C4C3BA1BB";
shapes = (
{
ref = W;
},
{
pos = (506,428);
ref = acutecomb;
}
);
width = 1898;
}
);
unicode = 7810;
},
{
color = 9;
glyphname = Wcircumflex;
lastChange = "2023-07-13 14:31:29 +0000";
layers = (
{
background = {
anchors = (
{
name = bottom;
pos = (949,0);
},
{
name = top;
pos = (949,1973);
}
);
shapes = (
{
closed = 1;
nodes = (
(1068,1412,l),
(1369,240,l),
(1390,240,l),
(1490,707,l),
(1666,1412,l),
(1874,1412,l),
(1486,0,l),
(1285,0,l),
(1084,735,l),
(961,1219,l),
(951,1219,l),
(828,735,l),
(627,0,l),
(426,0,l),
(38,1412,l),
(246,1412,l),
(422,707,l),
(522,240,l),
(543,240,l),
(844,1412,l),
(1067,1412,l)
);
},
{
closed = 1;
nodes = (
(1110,1615,l),
(947,1841,l),
(781,1615,l),
(600,1615,l),
(860,1973,l),
(1042,1973,l),
(1298,1615,l)
);
}
);
};
layerId = "01C703B5-1257-45FB-9F79-4B1C4C3BA1BB";
shapes = (
{
ref = W;
},
{
pos = (547,428);
ref = circumflexcomb;
}
);
width = 1898;
}
);
unicode = 372;
},
{
color = 9;
glyphname = Wdieresis;
lastChange = "2023-07-13 14:31:29 +0000";
layers = (
{
background = {
anchors = (
{
name = bottom;
pos = (949,0);
},
{
name = top;
pos = (949,1805);
}
);
shapes = (
{
closed = 1;
nodes = (
(1068,1412,l),
(1369,240,l),
(1390,240,l),
(1490,707,l),
(1666,1412,l),
(1874,1412,l),
(1486,0,l),
(1285,0,l),
(1084,735,l),
(961,1219,l),
(951,1219,l),
(828,735,l),
(627,0,l),
(426,0,l),
(38,1412,l),
(246,1412,l),
(422,707,l),
(522,240,l),
(543,240,l),
(844,1412,l),
(1067,1412,l)
);
},
{
closed = 1;
nodes = (
(871,1805,l),
(871,1633,l),
(649,1633,l),
(649,1805,l)
);
},
{
closed = 1;
nodes = (
(1249,1805,l),
(1249,1633,l),
(1027,1633,l),
(1027,1805,l)
);
}
);
};
layerId = "01C703B5-1257-45FB-9F79-4B1C4C3BA1BB";
shapes = (
{
ref = W;
},
{
pos = (544,428);
ref = dieresiscomb;
}
);
width = 1898;
}
);
unicode = 7812;
},
{
color = 9;
glyphname = Wgrave;
lastChange = "2023-07-13 14:31:29 +0000";
layers = (
{
background = {
anchors = (
{
name = bottom;
pos = (949,0);
},
{
name = top;
pos = (949,1901);
}
);
shapes = (
{
closed = 1;
nodes = (
(1068,1412,l),
(1369,240,l),
(1390,240,l),
(1490,707,l),
(1666,1412,l),
(1874,1412,l),
(1486,0,l),
(1285,0,l),
(1084,735,l),
(961,1219,l),
(951,1219,l),
(828,735,l),
(627,0,l),
(426,0,l),
(38,1412,l),
(246,1412,l),
(422,707,l),
(522,240,l),
(543,240,l),
(844,1412,l),
(1067,1412,l)
);
},
{
closed = 1;
nodes = (
(1021,1592,l),
(748,1901,l),
(978,1901,l),
(1150,1592,l)
);
}
);
};
layerId = "01C703B5-1257-45FB-9F79-4B1C4C3BA1BB";
shapes = (
{
ref = W;
},
{
pos = (586,428);
ref = gravecomb;
}
);
width = 1898;
}
);
unicode = 7808;
},
{
glyphname = X;
lastChange = "2023-07-13 14:31:02 +0000";
layers = (
{
anchors = (
{
name = bottom;
pos = (631,0);
},
{
name = top;
pos = (631,1412);
}
);
background = {
anchors = (
{
name = bottom;
pos = (631,0);
},
{
name = top;
pos = (631,1412);
}
);
shapes = (
{
closed = 1;
nodes = (
(1242,0,l),
(1003,0,l),
(624,599,l),
(235,0,l),
(12,0,l),
(509,737,l),
(57,1412,l),
(291,1412,l),
(640,878,l),
(987,1412,l),
(1212,1412,l),
(754,738,l)
);
}
);
};
layerId = "01C703B5-1257-45FB-9F79-4B1C4C3BA1BB";
shapes = (
{
closed = 1;
nodes = (
(1242,0,l),
(1003,0,l),
(624,599,l),
(235,0,l),
(12,0,l),
(509,737,l),
(57,1412,l),
(291,1412,l),
(640,878,l),
(987,1412,l),
(1212,1412,l),
(754,738,l)
);
}
);
width = 1261;
}
);
unicode = 88;
},
{
glyphname = Y;
lastChange = "2023-07-13 14:31:02 +0000";
layers = (
{
anchors = (
{
name = bottom;
pos = (587,0);
},
{
name = top;
pos = (587,1412);
},
{
name = topleft;
pos = (20,1412);
}
);
background = {
anchors = (
{
name = bottom;
pos = (587,0);
},
{
name = top;
pos = (587,1412);
},
{
name = topleft;
pos = (20,1412);
}
);
shapes = (
{
closed = 1;
nodes = (
(594,723,l),
(963,1412,l),
(1183,1412,l),
(687,547,l),
(687,0,l),
(487,0,l),
(487,547,l),
(-9,1412,l),
(223,1412,l)
);
}
);
};
layerId = "01C703B5-1257-45FB-9F79-4B1C4C3BA1BB";
shapes = (
{
closed = 1;
nodes = (
(594,723,l),
(963,1412,l),
(1183,1412,l),
(687,547,l),
(687,0,l),
(487,0,l),
(487,547,l),
(-9,1412,l),
(223,1412,l)
);
}
);
width = 1174;
}
);
unicode = 89;
},
{
glyphname = Yacute;
lastChange = "2023-07-13 14:31:29 +0000";
layers = (
{
background = {
anchors = (
{
name = bottom;
pos = (587,0);
},
{
name = top;
pos = (587,1412);
},
{
name = topleft;
pos = (20,1412);
}
);
shapes = (
{
closed = 1;
nodes = (
(521,1564,l),
(689,1873,l),
(908,1873,l),
(652,1564,l)
);
},
{
closed = 1;
nodes = (
(594,723,l),
(963,1412,l),
(1183,1412,l),
(687,547,l),
(687,0,l),
(487,0,l),
(487,547,l),
(-9,1412,l),
(223,1412,l)
);
}
);
};
layerId = "01C703B5-1257-45FB-9F79-4B1C4C3BA1BB";
shapes = (
{
ref = Y;
},
{
pos = (144,428);
ref = acutecomb;
}
);
width = 1174;
}
);
unicode = 221;
},
{
color = 9;
glyphname = Ycircumflex;
lastChange = "2023-07-13 14:31:29 +0000";
layers = (
{
background = {
anchors = (
{
name = bottom;
pos = (587,0);
},
{
name = top;
pos = (587,1973);
},
{
name = topleft;
pos = (20,1412);
}
);
shapes = (
{
closed = 1;
nodes = (
(594,723,l),
(963,1412,l),
(1183,1412,l),
(687,547,l),
(687,0,l),
(487,0,l),
(487,547,l),
(-9,1412,l),
(223,1412,l)
);
},
{
closed = 1;
nodes = (
(748,1615,l),
(585,1841,l),
(419,1615,l),
(238,1615,l),
(498,1973,l),
(680,1973,l),
(936,1615,l)
);
}
);
};
layerId = "01C703B5-1257-45FB-9F79-4B1C4C3BA1BB";
shapes = (
{
ref = Y;
},
{
pos = (185,428);
ref = circumflexcomb;
}
);
width = 1174;
}
);
unicode = 374;
},
{
glyphname = Ydieresis;
lastChange = "2023-07-13 14:31:29 +0000";
layers = (
{
background = {
anchors = (
{
name = bottom;
pos = (587,0);
},
{
name = top;
pos = (587,1412);
},
{
name = topleft;
pos = (20,1412);
}
);
shapes = (
{
closed = 1;
nodes = (
(509,1736,l),
(509,1564,l),
(287,1564,l),
(287,1736,l)
);
},
{
closed = 1;
nodes = (
(887,1736,l),
(887,1564,l),
(665,1564,l),
(665,1736,l)
);
},
{
closed = 1;
nodes = (
(594,723,l),
(963,1412,l),
(1183,1412,l),
(687,547,l),
(687,0,l),
(487,0,l),
(487,547,l),
(-9,1412,l),
(223,1412,l)
);
}
);
};
layerId = "01C703B5-1257-45FB-9F79-4B1C4C3BA1BB";
shapes = (
{
ref = Y;
},
{
pos = (182,428);
ref = dieresiscomb;
}
);
width = 1174;
}
);
unicode = 376;
},
{
color = 9;
glyphname = Ygrave;
lastChange = "2023-07-13 14:31:29 +0000";
layers = (
{
background = {
anchors = (
{
name = bottom;
pos = (587,0);
},
{
name = top;
pos = (587,1901);
},
{
name = topleft;
pos = (20,1412);
}
);
shapes = (
{
closed = 1;
nodes = (
(594,723,l),
(963,1412,l),
(1183,1412,l),
(687,547,l),
(687,0,l),
(487,0,l),
(487,547,l),
(-9,1412,l),
(223,1412,l)
);
},
{
closed = 1;
nodes = (
(659,1592,l),
(386,1901,l),
(616,1901,l),
(788,1592,l)
);
}
);
};
layerId = "01C703B5-1257-45FB-9F79-4B1C4C3BA1BB";
shapes = (
{
ref = Y;
},
{
pos = (224,428);
ref = gravecomb;
}
);
width = 1174;
}
);
unicode = 7922;
},
{
glyphname = Z;
lastChange = "2023-07-13 14:31:02 +0000";
layers = (
{
anchors = (
{
name = bottom;
pos = (587,0);
},
{
name = center;
pos = (587,706);
},
{
name = top;
pos = (587,1412);
}
);
background = {
anchors = (
{
name = bottom;
pos = (587,0);
},
{
name = center;
pos = (587,706);
},
{
name = top;
pos = (587,1412);
}
);
shapes = (
{
closed = 1;
nodes = (
(1082,0,l),
(89,0,l),
(89,169,l),
(831,1242,l),
(110,1242,l),
(110,1412,l),
(1064,1412,l),
(1064,1235,l),
(320,170,l),
(1082,170,l)
);
}
);
};
layerId = "01C703B5-1257-45FB-9F79-4B1C4C3BA1BB";
shapes = (
{
closed = 1;
nodes = (
(1082,0,l),
(89,0,l),
(89,169,l),
(831,1242,l),
(110,1242,l),
(110,1412,l),
(1064,1412,l),
(1064,1235,l),
(320,170,l),
(1082,170,l)
);
}
);
width = 1173;
}
);
unicode = 90;
},
{
glyphname = Zacute;
lastChange = "2023-07-13 14:31:29 +0000";
layers = (
{
background = {
anchors = (
{
name = bottom;
pos = (587,0);
},
{
name = center;
pos = (587,706);
},
{
name = top;
pos = (587,1412);
}
);
shapes = (
{
closed = 1;
nodes = (
(521,1564,l),
(689,1873,l),
(908,1873,l),
(652,1564,l)
);
},
{
closed = 1;
nodes = (
(1082,0,l),
(89,0,l),
(89,169,l),
(831,1242,l),
(110,1242,l),
(110,1412,l),
(1064,1412,l),
(1064,1235,l),
(320,170,l),
(1082,170,l)
);
}
);
};
layerId = "01C703B5-1257-45FB-9F79-4B1C4C3BA1BB";
shapes = (
{
ref = Z;
},
{
pos = (144,428);
ref = acutecomb;
}
);
width = 1173;
}
);
unicode = 377;
},
{
glyphname = Zcaron;
lastChange = "2023-07-13 14:31:29 +0000";
layers = (
{
background = {
anchors = (
{
name = bottom;
pos = (587,0);
},
{
name = center;
pos = (587,706);
},
{
name = top;
pos = (587,1412);
}
);
shapes = (
{
closed = 1;
nodes = (
(679,1564,l),
(495,1564,l),
(272,1874,l),
(449,1874,l),
(585,1694,l),
(716,1874,l),
(903,1874,l)
);
},
{
closed = 1;
nodes = (
(1082,0,l),
(89,0,l),
(89,169,l),
(831,1242,l),
(110,1242,l),
(110,1412,l),
(1064,1412,l),
(1064,1235,l),
(320,170,l),
(1082,170,l)
);
}
);
};
layerId = "01C703B5-1257-45FB-9F79-4B1C4C3BA1BB";
shapes = (
{
ref = Z;
},
{
pos = (309,428);
ref = caroncomb;
}
);
width = 1173;
}
);
unicode = 381;
},
{
glyphname = Zdotaccent;
lastChange = "2023-07-13 14:31:29 +0000";
layers = (
{
background = {
anchors = (
{
name = bottom;
pos = (587,0);
},
{
name = center;
pos = (587,706);
},
{
name = top;
pos = (587,1412);
}
);
shapes = (
{
closed = 1;
nodes = (
(492,1777,l),
(682,1777,l),
(682,1564,l),
(492,1564,l)
);
},
{
closed = 1;
nodes = (
(1082,0,l),
(89,0,l),
(89,169,l),
(831,1242,l),
(110,1242,l),
(110,1412,l),
(1064,1412,l),
(1064,1235,l),
(320,170,l),
(1082,170,l)
);
}
);
};
layerId = "01C703B5-1257-45FB-9F79-4B1C4C3BA1BB";
shapes = (
{
ref = Z;
},
{
pos = (315,428);
ref = dotaccentcomb;
}
);
width = 1173;
}
);
unicode = 379;
},
{
glyphname = a;
lastChange = "2023-07-13 14:31:02 +0000";
layers = (
{
anchors = (
{
name = bottom;
pos = (520,0);
},
{
name = ogonek;
pos = (935,10);
},
{
name = top;
pos = (520,984);
}
);
background = {
anchors = (
{
name = bottom;
pos = (520,0);
},
{
name = ogonek;
pos = (935,10);
},
{
name = top;
pos = (520,984);
}
);
shapes = (
{
closed = 1;
nodes = (
(154,883,l),
(261,950,o),
(408,1000,o),
(533,1000,cs),
(726,1000,o),
(887,910,o),
(887,685,cs),
(887,289,ls),
(887,149,o),
(897,61,o),
(910,0,c),
(741,0,l),
(737,23,o),
(734,86,o),
(731,159,c),
(643,17,o),
(520,-17,o),
(405,-17,cs),
(204,-17,o),
(77,89,o),
(77,267,cs),
(77,353,o),
(114,460,o),
(223,529,cs),
(338,601,o),
(513,602,o),
(653,602,cs),
(707,602,l),
(707,673,ls),
(707,814,o),
(626,860,o),
(526,860,cs),
(417,860,o),
(284,807,o),
(209,761,c)
);
},
{
closed = 1;
nodes = (
(696,257,o),
(706,338,o),
(706,471,c),
(677,471,ls),
(494,471,o),
(259,460,o),
(259,264,cs),
(259,195,o),
(306,122,o),
(417,122,cs),
(513,122,o),
(599,146,o),
(646,202,c)
);
}
);
};
layerId = "01C703B5-1257-45FB-9F79-4B1C4C3BA1BB";
shapes = (
{
closed = 1;
nodes = (
(154,883,l),
(261,950,o),
(408,1000,o),
(533,1000,cs),
(726,1000,o),
(887,910,o),
(887,685,cs),
(887,289,ls),
(887,149,o),
(897,61,o),
(910,0,c),
(741,0,l),
(737,23,o),
(734,86,o),
(731,159,c),
(643,17,o),
(520,-17,o),
(405,-17,cs),
(204,-17,o),
(77,89,o),
(77,267,cs),
(77,353,o),
(114,460,o),
(223,529,cs),
(338,601,o),
(513,602,o),
(653,602,cs),
(707,602,l),
(707,673,ls),
(707,814,o),
(626,860,o),
(526,860,cs),
(417,860,o),
(284,807,o),
(209,761,c)
);
},
{
closed = 1;
nodes = (
(696,257,o),
(706,338,o),
(706,471,c),
(677,471,ls),
(494,471,o),
(259,460,o),
(259,264,cs),
(259,195,o),
(306,122,o),
(417,122,cs),
(513,122,o),
(599,146,o),
(646,202,c)
);
}
);
width = 1039;
}
);
unicode = 97;
},
{
glyphname = aacute;
lastChange = "2023-07-13 14:31:29 +0000";
layers = (
{
background = {
anchors = (
{
name = bottom;
pos = (520,0);
},
{
name = ogonek;
pos = (935,10);
},
{
name = top;
pos = (520,984);
}
);
shapes = (
{
closed = 1;
nodes = (
(467,1123,l),
(635,1432,l),
(854,1432,l),
(598,1123,l)
);
},
{
closed = 1;
nodes = (
(154,883,l),
(261,950,o),
(408,1000,o),
(533,1000,cs),
(726,1000,o),
(887,910,o),
(887,685,cs),
(887,289,ls),
(887,149,o),
(897,61,o),
(910,0,c),
(741,0,l),
(737,23,o),
(734,86,o),
(731,159,c),
(643,17,o),
(520,-17,o),
(405,-17,cs),
(204,-17,o),
(77,89,o),
(77,267,cs),
(77,353,o),
(114,460,o),
(223,529,cs),
(338,601,o),
(513,602,o),
(653,602,cs),
(707,602,l),
(707,673,ls),
(707,814,o),
(626,860,o),
(526,860,cs),
(417,860,o),
(284,807,o),
(209,761,c)
);
},
{
closed = 1;
nodes = (
(696,257,o),
(706,338,o),
(706,471,c),
(677,471,ls),
(494,471,o),
(259,460,o),
(259,264,cs),
(259,195,o),
(306,122,o),
(417,122,cs),
(513,122,o),
(599,146,o),
(646,202,c)
);
}
);
};
layerId = "01C703B5-1257-45FB-9F79-4B1C4C3BA1BB";
shapes = (
{
ref = a;
},
{
pos = (77,0);
ref = acutecomb;
}
);
width = 1039;
}
);
unicode = 225;
},
{
glyphname = abreve;
lastChange = "2023-07-13 14:31:29 +0000";
layers = (
{
background = {
anchors = (
{
name = bottom;
pos = (520,0);
},
{
name = ogonek;
pos = (935,10);
},
{
name = top;
pos = (520,984);
}
);
shapes = (
{
closed = 1;
nodes = (
(363,1442,l),
(370,1329,o),
(419,1260,o),
(530,1260,cs),
(679,1260,o),
(700,1391,o),
(705,1442,c),
(804,1442,l),
(801,1233,o),
(715,1123,o),
(530,1123,cs),
(275,1123,o),
(263,1352,o),
(263,1442,c)
);
},
{
closed = 1;
nodes = (
(154,883,l),
(261,950,o),
(408,1000,o),
(533,1000,cs),
(726,1000,o),
(887,910,o),
(887,685,cs),
(887,289,ls),
(887,149,o),
(897,61,o),
(910,0,c),
(741,0,l),
(737,23,o),
(734,86,o),
(731,159,c),
(643,17,o),
(520,-17,o),
(405,-17,cs),
(204,-17,o),
(77,89,o),
(77,267,cs),
(77,353,o),
(114,460,o),
(223,529,cs),
(338,601,o),
(513,602,o),
(653,602,cs),
(707,602,l),
(707,673,ls),
(707,814,o),
(626,860,o),
(526,860,cs),
(417,860,o),
(284,807,o),
(209,761,c)
);
},
{
closed = 1;
nodes = (
(696,257,o),
(706,338,o),
(706,471,c),
(677,471,ls),
(494,471,o),
(259,460,o),
(259,264,cs),
(259,195,o),
(306,122,o),
(417,122,cs),
(513,122,o),
(599,146,o),
(646,202,c)
);
}
);
};
layerId = "01C703B5-1257-45FB-9F79-4B1C4C3BA1BB";
shapes = (
{
ref = a;
},
{
pos = (248,0);
ref = brevecomb;
}
);
width = 1039;
}
);
unicode = 259;
},
{
glyphname = acircumflex;
lastChange = "2023-07-13 14:31:29 +0000";
layers = (
{
background = {
anchors = (
{
name = bottom;
pos = (520,0);
},
{
name = ogonek;
pos = (935,10);
},
{
name = top;
pos = (520,984);
}
);
shapes = (
{
closed = 1;
nodes = (
(694,1123,l),
(531,1349,l),
(365,1123,l),
(184,1123,l),
(444,1481,l),
(626,1481,l),
(882,1123,l)
);
},
{
closed = 1;
nodes = (
(154,883,l),
(261,950,o),
(408,1000,o),
(533,1000,cs),
(726,1000,o),
(887,910,o),
(887,685,cs),
(887,289,ls),
(887,149,o),
(897,61,o),
(910,0,c),
(741,0,l),
(737,23,o),
(734,86,o),
(731,159,c),
(643,17,o),
(520,-17,o),
(405,-17,cs),
(204,-17,o),
(77,89,o),
(77,267,cs),
(77,353,o),
(114,460,o),
(223,529,cs),
(338,601,o),
(513,602,o),
(653,602,cs),
(707,602,l),
(707,673,ls),
(707,814,o),
(626,860,o),
(526,860,cs),
(417,860,o),
(284,807,o),
(209,761,c)
);
},
{
closed = 1;
nodes = (
(696,257,o),
(706,338,o),
(706,471,c),
(677,471,ls),
(494,471,o),
(259,460,o),
(259,264,cs),
(259,195,o),
(306,122,o),
(417,122,cs),
(513,122,o),
(599,146,o),
(646,202,c)
);
}
);
};
layerId = "01C703B5-1257-45FB-9F79-4B1C4C3BA1BB";
shapes = (
{
ref = a;
},
{
pos = (118,0);
ref = circumflexcomb;
}
);
width = 1039;
}
);
unicode = 226;
},
{
glyphname = adblgrave;
lastChange = "2023-07-13 14:31:29 +0000";
layers = (
{
background = {
anchors = (
{
name = bottom;
pos = (520,0);
},
{
name = ogonek;
pos = (935,10);
},
{
name = top;
pos = (520,984);
}
);
shapes = (
{
closed = 1;
nodes = (
(755,1123,l),
(619,1123,l),
(371,1416,l),
(588,1416,l)
);
},
{
closed = 1;
nodes = (
(447,1123,l),
(310,1123,l),
(62,1416,l),
(278,1416,l)
);
},
{
closed = 1;
nodes = (
(154,883,l),
(261,950,o),
(408,1000,o),
(533,1000,cs),
(726,1000,o),
(887,910,o),
(887,685,cs),
(887,289,ls),
(887,149,o),
(897,61,o),
(910,0,c),
(741,0,l),
(737,23,o),
(734,86,o),
(731,159,c),
(643,17,o),
(520,-17,o),
(405,-17,cs),
(204,-17,o),
(77,89,o),
(77,267,cs),
(77,353,o),
(114,460,o),
(223,529,cs),
(338,601,o),
(513,602,o),
(653,602,cs),
(707,602,l),
(707,673,ls),
(707,814,o),
(626,860,o),
(526,860,cs),
(417,860,o),
(284,807,o),
(209,761,c)
);
},
{
closed = 1;
nodes = (
(696,257,o),
(706,338,o),
(706,471,c),
(677,471,ls),
(494,471,o),
(259,460,o),
(259,264,cs),
(259,195,o),
(306,122,o),
(417,122,cs),
(513,122,o),
(599,146,o),
(646,202,c)
);
}
);
};
layerId = "01C703B5-1257-45FB-9F79-4B1C4C3BA1BB";
shapes = (
{
ref = a;
},
{
ref = dblgravecomb;
}
);
width = 1039;
}
);
unicode = 513;
},
{
glyphname = adieresis;
lastChange = "2023-07-13 14:31:29 +0000";
layers = (
{
background = {
anchors = (
{
name = bottom;
pos = (520,0);
},
{
name = ogonek;
pos = (935,10);
},
{
name = top;
pos = (520,984);
}
);
shapes = (
{
closed = 1;
nodes = (
(455,1295,l),
(455,1123,l),
(233,1123,l),
(233,1295,l)
);
},
{
closed = 1;
nodes = (
(833,1295,l),
(833,1123,l),
(611,1123,l),
(611,1295,l)
);
},
{
closed = 1;
nodes = (
(154,883,l),
(261,950,o),
(408,1000,o),
(533,1000,cs),
(726,1000,o),
(887,910,o),
(887,685,cs),
(887,289,ls),
(887,149,o),
(897,61,o),
(910,0,c),
(741,0,l),
(737,23,o),
(734,86,o),
(731,159,c),
(643,17,o),
(520,-17,o),
(405,-17,cs),
(204,-17,o),
(77,89,o),
(77,267,cs),
(77,353,o),
(114,460,o),
(223,529,cs),
(338,601,o),
(513,602,o),
(653,602,cs),
(707,602,l),
(707,673,ls),
(707,814,o),
(626,860,o),
(526,860,cs),
(417,860,o),
(284,807,o),
(209,761,c)
);
},
{
closed = 1;
nodes = (
(696,257,o),
(706,338,o),
(706,471,c),
(677,471,ls),
(494,471,o),
(259,460,o),
(259,264,cs),
(259,195,o),
(306,122,o),
(417,122,cs),
(513,122,o),
(599,146,o),
(646,202,c)
);
}
);
};
layerId = "01C703B5-1257-45FB-9F79-4B1C4C3BA1BB";
shapes = (
{
ref = a;
},
{
pos = (115,0);
ref = dieresiscomb;
}
);
width = 1039;
}
);
unicode = 228;
},
{
glyphname = agrave;
lastChange = "2023-07-13 14:31:29 +0000";
layers = (
{
background = {
anchors = (
{
name = bottom;
pos = (520,0);
},
{
name = ogonek;
pos = (935,10);
},
{
name = top;
pos = (520,984);
}
);
shapes = (
{
closed = 1;
nodes = (
(469,1123,l),
(196,1432,l),
(426,1432,l),
(598,1123,l)
);
},
{
closed = 1;
nodes = (
(154,883,l),
(261,950,o),
(408,1000,o),
(533,1000,cs),
(726,1000,o),
(887,910,o),
(887,685,cs),
(887,289,ls),
(887,149,o),
(897,61,o),
(910,0,c),
(741,0,l),
(737,23,o),
(734,86,o),
(731,159,c),
(643,17,o),
(520,-17,o),
(405,-17,cs),
(204,-17,o),
(77,89,o),
(77,267,cs),
(77,353,o),
(114,460,o),
(223,529,cs),
(338,601,o),
(513,602,o),
(653,602,cs),
(707,602,l),
(707,673,ls),
(707,814,o),
(626,860,o),
(526,860,cs),
(417,860,o),
(284,807,o),
(209,761,c)
);
},
{
closed = 1;
nodes = (
(696,257,o),
(706,338,o),
(706,471,c),
(677,471,ls),
(494,471,o),
(259,460,o),
(259,264,cs),
(259,195,o),
(306,122,o),
(417,122,cs),
(513,122,o),
(599,146,o),
(646,202,c)
);
}
);
};
layerId = "01C703B5-1257-45FB-9F79-4B1C4C3BA1BB";
shapes = (
{
ref = a;
},
{
pos = (157,0);
ref = gravecomb;
}
);
width = 1039;
}
);
unicode = 224;
},
{
glyphname = ainvertedbreve;
lastChange = "2023-07-13 14:31:29 +0000";
layers = (
{
background = {
anchors = (
{
name = bottom;
pos = (520,0);
},
{
name = ogonek;
pos = (935,10);
},
{
name = top;
pos = (520,984);
}
);
shapes = (
{
closed = 1;
nodes = (
(263,1123,l),
(263,1212,o),
(275,1442,o),
(530,1442,cs),
(715,1442,o),
(801,1332,o),
(804,1123,c),
(705,1123,l),
(700,1174,o),
(679,1305,o),
(530,1305,cs),
(419,1305,o),
(370,1236,o),
(363,1123,c)
);
},
{
closed = 1;
nodes = (
(154,883,l),
(261,950,o),
(408,1000,o),
(533,1000,cs),
(726,1000,o),
(887,910,o),
(887,685,cs),
(887,289,ls),
(887,149,o),
(897,61,o),
(910,0,c),
(741,0,l),
(737,23,o),
(734,86,o),
(731,159,c),
(643,17,o),
(520,-17,o),
(405,-17,cs),
(204,-17,o),
(77,89,o),
(77,267,cs),
(77,353,o),
(114,460,o),
(223,529,cs),
(338,601,o),
(513,602,o),
(653,602,cs),
(707,602,l),
(707,673,ls),
(707,814,o),
(626,860,o),
(526,860,cs),
(417,860,o),
(284,807,o),
(209,761,c)
);
},
{
closed = 1;
nodes = (
(696,257,o),
(706,338,o),
(706,471,c),
(677,471,ls),
(494,471,o),
(259,460,o),
(259,264,cs),
(259,195,o),
(306,122,o),
(417,122,cs),
(513,122,o),
(599,146,o),
(646,202,c)
);
}
);
};
layerId = "01C703B5-1257-45FB-9F79-4B1C4C3BA1BB";
shapes = (
{
ref = a;
},
{
ref = breveinvertedcomb;
}
);
width = 1039;
}
);
unicode = 515;
},
{
color = 9;
glyphname = amacron;
lastChange = "2023-07-13 14:31:29 +0000";
layers = (
{
background = {
anchors = (
{
name = bottom;
pos = (520,0);
},
{
name = ogonek;
pos = (935,10);
},
{
name = top;
pos = (520,1359);
}
);
shapes = (
{
closed = 1;
nodes = (
(154,883,l),
(261,950,o),
(408,1000,o),
(533,1000,cs),
(726,1000,o),
(887,910,o),
(887,685,cs),
(887,289,ls),
(887,149,o),
(897,61,o),
(910,0,c),
(741,0,l),
(737,23,o),
(734,86,o),
(731,159,c),
(643,17,o),
(520,-17,o),
(405,-17,cs),
(204,-17,o),
(77,89,o),
(77,267,cs),
(77,353,o),
(114,460,o),
(223,529,cs),
(338,601,o),
(513,602,o),
(653,602,cs),
(707,602,l),
(707,673,ls),
(707,814,o),
(626,860,o),
(526,860,cs),
(417,860,o),
(284,807,o),
(209,761,c)
);
},
{
closed = 1;
nodes = (
(696,257,o),
(706,338,o),
(706,471,c),
(677,471,ls),
(494,471,o),
(259,460,o),
(259,264,cs),
(259,195,o),
(306,122,o),
(417,122,cs),
(513,122,o),
(599,146,o),
(646,202,c)
);
},
{
closed = 1;
nodes = (
(248,1359,l),
(791,1359,l),
(791,1242,l),
(248,1242,l)
);
}
);
};
layerId = "01C703B5-1257-45FB-9F79-4B1C4C3BA1BB";
shapes = (
{
ref = a;
},
{
pos = (251,0);
ref = macroncomb;
}
);
width = 1039;
}
);
unicode = 257;
},
{
glyphname = aogonek;
lastChange = "2023-07-13 14:31:29 +0000";
layers = (
{
background = {
anchors = (
{
name = bottom;
pos = (520,0);
},
{
name = ogonek;
pos = (935,10);
},
{
name = top;
pos = (520,984);
}
);
shapes = (
{
closed = 1;
nodes = (
(504,-3,l),
(413,-64,o),
(329,-125,o),
(329,-194,cs),
(329,-284,o),
(432,-284,o),
(448,-284,cs),
(485,-284,o),
(508,-273,o),
(540,-254,c),
(540,-350,l),
(489,-377,o),
(436,-402,o),
(353,-402,cs),
(212,-402,o),
(165,-315,o),
(165,-251,cs),
(165,-142,o),
(274,-59,o),
(405,-3,c)
);
},
{
closed = 1;
nodes = (
(154,883,l),
(261,950,o),
(408,1000,o),
(533,1000,cs),
(726,1000,o),
(887,910,o),
(887,685,cs),
(887,289,ls),
(887,149,o),
(897,61,o),
(910,0,c),
(741,0,l),
(737,23,o),
(734,86,o),
(731,159,c),
(643,17,o),
(520,-17,o),
(405,-17,cs),
(204,-17,o),
(77,89,o),
(77,267,cs),
(77,353,o),
(114,460,o),
(223,529,cs),
(338,601,o),
(513,602,o),
(653,602,cs),
(707,602,l),
(707,673,ls),
(707,814,o),
(626,860,o),
(526,860,cs),
(417,860,o),
(284,807,o),
(209,761,c)
);
},
{
closed = 1;
nodes = (
(696,257,o),
(706,338,o),
(706,471,c),
(677,471,ls),
(494,471,o),
(259,460,o),
(259,264,cs),
(259,195,o),
(306,122,o),
(417,122,cs),
(513,122,o),
(599,146,o),
(646,202,c)
);
}
);
};
layerId = "01C703B5-1257-45FB-9F79-4B1C4C3BA1BB";
shapes = (
{
ref = a;
},
{
pos = (476,-5);
ref = ogonekcomb;
}
);
width = 1039;
}
);
unicode = 261;
},
{
glyphname = aring;
lastChange = "2023-07-13 14:31:29 +0000";
layers = (
{
background = {
anchors = (
{
name = bottom;
pos = (520,0);
},
{
name = ogonek;
pos = (935,10);
},
{
name = top;
pos = (520,984);
}
);
shapes = (
{
closed = 1;
nodes = (
(534,1496,l),
(458,1496,o),
(389,1439,o),
(389,1354,cs),
(389,1277,o),
(447,1217,o),
(534,1217,cs),
(618,1217,o),
(677,1277,o),
(677,1354,cs),
(677,1439,o),
(608,1496,o),
(532,1496,c)
);
},
{
closed = 1;
nodes = (
(672,1589,o),
(770,1492,o),
(770,1354,cs),
(770,1219,o),
(672,1123,o),
(533,1123,cs),
(394,1123,o),
(296,1219,o),
(296,1354,cs),
(296,1492,o),
(394,1589,o),
(533,1589,cs)
);
},
{
closed = 1;
nodes = (
(154,883,l),
(261,950,o),
(408,1000,o),
(533,1000,cs),
(726,1000,o),
(887,910,o),
(887,685,cs),
(887,289,ls),
(887,149,o),
(897,61,o),
(910,0,c),
(741,0,l),
(737,23,o),
(734,86,o),
(731,159,c),
(643,17,o),
(520,-17,o),
(405,-17,cs),
(204,-17,o),
(77,89,o),
(77,267,cs),
(77,353,o),
(114,460,o),
(223,529,cs),
(338,601,o),
(513,602,o),
(653,602,cs),
(707,602,l),
(707,673,ls),
(707,814,o),
(626,860,o),
(526,860,cs),
(417,860,o),
(284,807,o),
(209,761,c)
);
},
{
closed = 1;
nodes = (
(696,257,o),
(706,338,o),
(706,471,c),
(677,471,ls),
(494,471,o),
(259,460,o),
(259,264,cs),
(259,195,o),
(306,122,o),
(417,122,cs),
(513,122,o),
(599,146,o),
(646,202,c)
);
}
);
};
layerId = "01C703B5-1257-45FB-9F79-4B1C4C3BA1BB";
shapes = (
{
ref = a;
},
{
pos = (117,0);
ref = ringcomb;
}
);
width = 1039;
}
);
unicode = 229;
},
{
glyphname = atilde;
lastChange = "2023-07-13 14:31:29 +0000";
layers = (
{
background = {
anchors = (
{
name = bottom;
pos = (520,0);
},
{
name = ogonek;
pos = (935,10);
},
{
name = top;
pos = (520,984);
}
);
shapes = (
{
closed = 1;
nodes = (
(582,1133,o),
(459,1209,o),
(406,1209,cs),
(363,1209,o),
(343,1186,o),
(322,1123,c),
(226,1123,l),
(226,1259,o),
(312,1354,o),
(412,1354,cs),
(495,1354,o),
(586,1281,o),
(659,1281,cs),
(706,1281,o),
(729,1312,o),
(740,1368,c),
(840,1368,l),
(832,1204,o),
(748,1133,o),
(654,1133,cs)
);
},
{
closed = 1;
nodes = (
(154,883,l),
(261,950,o),
(408,1000,o),
(533,1000,cs),
(726,1000,o),
(887,910,o),
(887,685,cs),
(887,289,ls),
(887,149,o),
(897,61,o),
(910,0,c),
(741,0,l),
(737,23,o),
(734,86,o),
(731,159,c),
(643,17,o),
(520,-17,o),
(405,-17,cs),
(204,-17,o),
(77,89,o),
(77,267,cs),
(77,353,o),
(114,460,o),
(223,529,cs),
(338,601,o),
(513,602,o),
(653,602,cs),
(707,602,l),
(707,673,ls),
(707,814,o),
(626,860,o),
(526,860,cs),
(417,860,o),
(284,807,o),
(209,761,c)
);
},
{
closed = 1;
nodes = (
(696,257,o),
(706,338,o),
(706,471,c),
(677,471,ls),
(494,471,o),
(259,460,o),
(259,264,cs),
(259,195,o),
(306,122,o),
(417,122,cs),
(513,122,o),
(599,146,o),
(646,202,c)
);
}
);
};
layerId = "01C703B5-1257-45FB-9F79-4B1C4C3BA1BB";
shapes = (
{
ref = a;
},
{
pos = (105,0);
ref = tildecomb;
}
);
width = 1039;
}
);
unicode = 227;
},
{
glyphname = ae;
lastChange = "2023-07-13 14:31:02 +0000";
layers = (
{
anchors = (
{
name = bottom;
pos = (829,0);
},
{
name = top;
pos = (829,984);
}
);
background = {
anchors = (
{
name = bottom;
pos = (829,0);
},
{
name = top;
pos = (829,984);
}
);
shapes = (
{
closed = 1;
nodes = (
(1529,116,l),
(1443,46,o),
(1347,-22,o),
(1179,-22,cs),
(1054,-22,o),
(884,34,o),
(804,216,c),
(724,36,o),
(549,-26,o),
(405,-26,cs),
(202,-26,o),
(76,90,o),
(76,279,cs),
(76,547,o),
(360,632,o),
(603,632,cs),
(639,632,o),
(673,630,o),
(706,627,c),
(706,688,ls),
(706,867,o),
(624,907,o),
(506,907,cs),
(402,907,o),
(328,862,o),
(247,808,c),
(215,845,o),
(181,881,o),
(149,916,c),
(262,1007,o),
(362,1060,o),
(507,1060,cs),
(656,1060,o),
(761,1013,o),
(833,893,c),
(915,1004,o),
(1042,1059,o),
(1152,1059,cs),
(1440,1059,o),
(1565,839,o),
(1565,580,cs),
(1565,480,l),
(898,480,l),
(901,292,o),
(981,139,o),
(1183,139,cs),
(1300,139,o),
(1392,174,o),
(1480,246,c)
);
},
{
closed = 1;
nodes = (
(1020,904,o),
(925,816,o),
(905,647,c),
(905,631,l),
(1368,631,l),
(1363,774,o),
(1317,904,o),
(1148,904,cs)
);
},
{
closed = 1;
nodes = (
(693,276,o),
(705,353,o),
(705,491,c),
(676,491,ls),
(532,491,o),
(269,488,o),
(269,292,cs),
(269,208,o),
(320,131,o),
(448,131,cs),
(532,131,o),
(602,160,o),
(645,217,c)
);
}
);
};
layerId = "01C703B5-1257-45FB-9F79-4B1C4C3BA1BB";
shapes = (
{
closed = 1;
nodes = (
(1529,116,l),
(1443,46,o),
(1347,-22,o),
(1179,-22,cs),
(1054,-22,o),
(884,34,o),
(804,216,c),
(724,36,o),
(549,-26,o),
(405,-26,cs),
(202,-26,o),
(76,90,o),
(76,279,cs),
(76,547,o),
(360,632,o),
(603,632,cs),
(639,632,o),
(673,630,o),
(706,627,c),
(706,688,ls),
(706,867,o),
(624,907,o),
(506,907,cs),
(402,907,o),
(328,862,o),
(247,808,c),
(215,845,o),
(181,881,o),
(149,916,c),
(262,1007,o),
(362,1060,o),
(507,1060,cs),
(656,1060,o),
(761,1013,o),
(833,893,c),
(915,1004,o),
(1042,1059,o),
(1152,1059,cs),
(1440,1059,o),
(1565,839,o),
(1565,580,cs),
(1565,480,l),
(898,480,l),
(901,292,o),
(981,139,o),
(1183,139,cs),
(1300,139,o),
(1392,174,o),
(1480,246,c)
);
},
{
closed = 1;
nodes = (
(1020,904,o),
(925,816,o),
(905,647,c),
(905,631,l),
(1368,631,l),
(1363,774,o),
(1317,904,o),
(1148,904,cs)
);
},
{
closed = 1;
nodes = (
(693,276,o),
(705,353,o),
(705,491,c),
(676,491,ls),
(532,491,o),
(269,488,o),
(269,292,cs),
(269,208,o),
(320,131,o),
(448,131,cs),
(532,131,o),
(602,160,o),
(645,217,c)
);
}
);
width = 1658;
}
);
unicode = 230;
},
{
glyphname = b;
lastChange = "2023-07-13 14:31:02 +0000";
layers = (
{
anchors = (
{
name = bottom;
pos = (579,0);
},
{
name = center;
pos = (579,492);
},
{
name = top;
pos = (579,984);
}
);
background = {
anchors = (
{
name = bottom;
pos = (579,0);
},
{
name = center;
pos = (579,492);
},
{
name = top;
pos = (579,984);
}
);
shapes = (
{
closed = 1;
nodes = (
(345,1357,l),
(345,1016,l),
(342,855,l),
(398,929,o),
(487,1000,o),
(622,1000,cs),
(933,1000,o),
(1058,771,o),
(1058,502,cs),
(1058,205,o),
(932,-17,o),
(615,-17,cs),
(528,-17,o),
(418,23,o),
(336,132,c),
(331,105,o),
(323,56,o),
(320,0,c),
(158,0,l),
(158,1215,l),
(56,1215,l),
(36,1357,l)
);
},
{
closed = 1;
nodes = (
(345,338,ls),
(345,250,o),
(427,122,o),
(619,122,cs),
(807,122,o),
(876,300,o),
(876,496,cs),
(876,676,o),
(825,859,o),
(613,859,cs),
(473,859,o),
(345,739,o),
(345,650,cs)
);
}
);
};
layerId = "01C703B5-1257-45FB-9F79-4B1C4C3BA1BB";
shapes = (
{
closed = 1;
nodes = (
(345,1357,l),
(345,1016,l),
(342,855,l),
(398,929,o),
(487,1000,o),
(622,1000,cs),
(933,1000,o),
(1058,771,o),
(1058,502,cs),
(1058,205,o),
(932,-17,o),
(615,-17,cs),
(528,-17,o),
(418,23,o),
(336,132,c),
(331,105,o),
(323,56,o),
(320,0,c),
(158,0,l),
(158,1215,l),
(56,1215,l),
(36,1357,l)
);
},
{
closed = 1;
nodes = (
(345,338,ls),
(345,250,o),
(427,122,o),
(619,122,cs),
(807,122,o),
(876,300,o),
(876,496,cs),
(876,676,o),
(825,859,o),
(613,859,cs),
(473,859,o),
(345,739,o),
(345,650,cs)
);
}
);
width = 1158;
}
);
unicode = 98;
},
{
glyphname = c;
lastChange = "2023-07-13 14:31:02 +0000";
layers = (
{
anchors = (
{
name = bottom;
pos = (480,0);
},
{
name = top;
pos = (480,984);
}
);
background = {
anchors = (
{
name = bottom;
pos = (480,0);
},
{
name = top;
pos = (480,984);
}
);
shapes = (
{
closed = 1;
nodes = (
(862,83,l),
(758,15,o),
(638,-17,o),
(530,-17,cs),
(309,-17,o),
(98,135,o),
(98,502,cs),
(98,842,o),
(332,1000,o),
(548,1000,cs),
(700,1000,o),
(853,930,o),
(896,734,c),
(737,708,l),
(708,825,o),
(630,859,o),
(551,859,cs),
(424,859,o),
(283,753,o),
(283,508,cs),
(283,264,o),
(362,122,o),
(547,122,cs),
(662,122,o),
(744,164,o),
(805,208,c)
);
}
);
};
layerId = "01C703B5-1257-45FB-9F79-4B1C4C3BA1BB";
shapes = (
{
closed = 1;
nodes = (
(862,83,l),
(758,15,o),
(638,-17,o),
(530,-17,cs),
(309,-17,o),
(98,135,o),
(98,502,cs),
(98,842,o),
(332,1000,o),
(548,1000,cs),
(700,1000,o),
(853,930,o),
(896,734,c),
(737,708,l),
(708,825,o),
(630,859,o),
(551,859,cs),
(424,859,o),
(283,753,o),
(283,508,cs),
(283,264,o),
(362,122,o),
(547,122,cs),
(662,122,o),
(744,164,o),
(805,208,c)
);
}
);
width = 960;
}
);
unicode = 99;
},
{
glyphname = cacute;
lastChange = "2023-07-13 14:31:29 +0000";
layers = (
{
background = {
anchors = (
{
name = bottom;
pos = (480,0);
},
{
name = top;
pos = (480,984);
}
);
shapes = (
{
closed = 1;
nodes = (
(483,1123,l),
(651,1432,l),
(870,1432,l),
(614,1123,l)
);
},
{
closed = 1;
nodes = (
(862,83,l),
(758,15,o),
(638,-17,o),
(530,-17,cs),
(309,-17,o),
(98,135,o),
(98,502,cs),
(98,842,o),
(332,1000,o),
(548,1000,cs),
(700,1000,o),
(853,930,o),
(896,734,c),
(737,708,l),
(708,825,o),
(630,859,o),
(551,859,cs),
(424,859,o),
(283,753,o),
(283,508,cs),
(283,264,o),
(362,122,o),
(547,122,cs),
(662,122,o),
(744,164,o),
(805,208,c)
);
}
);
};
layerId = "01C703B5-1257-45FB-9F79-4B1C4C3BA1BB";
shapes = (
{
ref = c;
},
{
pos = (37,0);
ref = acutecomb;
}
);
width = 960;
}
);
unicode = 263;
},
{
glyphname = ccaron;
lastChange = "2023-07-13 14:31:29 +0000";
layers = (
{
background = {
anchors = (
{
name = bottom;
pos = (480,0);
},
{
name = top;
pos = (480,984);
}
);
shapes = (
{
closed = 1;
nodes = (
(639,1123,l),
(455,1123,l),
(232,1433,l),
(409,1433,l),
(545,1253,l),
(676,1433,l),
(863,1433,l)
);
},
{
closed = 1;
nodes = (
(862,83,l),
(758,15,o),
(638,-17,o),
(530,-17,cs),
(309,-17,o),
(98,135,o),
(98,502,cs),
(98,842,o),
(332,1000,o),
(548,1000,cs),
(700,1000,o),
(853,930,o),
(896,734,c),
(737,708,l),
(708,825,o),
(630,859,o),
(551,859,cs),
(424,859,o),
(283,753,o),
(283,508,cs),
(283,264,o),
(362,122,o),
(547,122,cs),
(662,122,o),
(744,164,o),
(805,208,c)
);
}
);
};
layerId = "01C703B5-1257-45FB-9F79-4B1C4C3BA1BB";
shapes = (
{
ref = c;
},
{
pos = (202,0);
ref = caroncomb;
}
);
width = 960;
}
);
unicode = 269;
},
{
glyphname = ccedilla;
lastChange = "2023-07-13 14:31:29 +0000";
layers = (
{
background = {
anchors = (
{
name = bottom;
pos = (511,-439);
},
{
name = top;
pos = (481,984);
}
);
shapes = (
{
closed = 1;
nodes = (
(863,83,l),
(759,15,o),
(639,-17,o),
(531,-17,cs),
(310,-17,o),
(99,135,o),
(99,502,cs),
(99,842,o),
(333,1000,o),
(549,1000,cs),
(701,1000,o),
(854,930,o),
(897,734,c),
(738,708,l),
(709,825,o),
(631,859,o),
(552,859,cs),
(425,859,o),
(284,753,o),
(284,508,cs),
(284,264,o),
(363,122,o),
(548,122,cs),
(663,122,o),
(745,164,o),
(806,208,c)
);
},
{
closed = 1;
nodes = (
(711,-316,o),
(669,-439,o),
(452,-439,cs),
(392,-439,o),
(348,-427,o),
(311,-412,c),
(337,-313,l),
(364,-324,o),
(403,-330,o),
(443,-330,cs),
(511,-330,o),
(559,-304,o),
(559,-256,cs),
(559,-203,o),
(497,-189,o),
(452,-189,cs),
(441,-189,o),
(434,-189,o),
(426,-190,c),
(373,-163,l),
(485,18,l),
(596,18,l),
(525,-97,l),
(654,-116,o),
(711,-160,o),
(711,-248,cs)
);
}
);
};
layerId = "01C703B5-1257-45FB-9F79-4B1C4C3BA1BB";
shapes = (
{
ref = c;
},
{
pos = (246,0);
ref = cedillacomb;
}
);
width = 960;
}
);
unicode = 231;
},
{
color = 9;
glyphname = cdotaccent;
lastChange = "2023-07-13 14:31:29 +0000";
layers = (
{
background = {
anchors = (
{
name = bottom;
pos = (480,0);
},
{
name = top;
pos = (480,1410);
}
);
shapes = (
{
closed = 1;
nodes = (
(862,83,l),
(758,15,o),
(638,-17,o),
(530,-17,cs),
(309,-17,o),
(98,135,o),
(98,502,cs),
(98,842,o),
(332,1000,o),
(548,1000,cs),
(700,1000,o),
(853,930,o),
(896,734,c),
(737,708,l),
(708,825,o),
(630,859,o),
(551,859,cs),
(424,859,o),
(283,753,o),
(283,508,cs),
(283,264,o),
(362,122,o),
(547,122,cs),
(662,122,o),
(744,164,o),
(805,208,c)
);
},
{
closed = 1;
nodes = (
(385,1410,l),
(575,1410,l),
(575,1197,l),
(385,1197,l)
);
}
);
};
layerId = "01C703B5-1257-45FB-9F79-4B1C4C3BA1BB";
shapes = (
{
ref = c;
},
{
pos = (208,0);
ref = dotaccentcomb;
}
);
width = 960;
}
);
unicode = 267;
},
{
glyphname = d;
lastChange = "2023-07-13 14:31:02 +0000";
layers = (
{
anchors = (
{
name = bottom;
pos = (580,0);
},
{
name = center;
pos = (580,492);
},
{
name = top;
pos = (580,2030);
},
{
name = topright;
pos = (1139,2030);
}
);
background = {
anchors = (
{
name = bottom;
pos = (580,0);
},
{
name = center;
pos = (580,492);
},
{
name = top;
pos = (580,2030);
},
{
name = topright;
pos = (1139,2030);
}
);
shapes = (
{
closed = 1;
nodes = (
(1000,1357,l),
(1000,0,l),
(838,0,l),
(831,53,ls),
(827,84,o),
(825,116,o),
(822,132,c),
(737,23,o),
(630,-17,o),
(543,-17,cs),
(225,-17,o),
(100,205,o),
(100,502,cs),
(100,771,o),
(223,1000,o),
(536,1000,cs),
(671,1000,o),
(760,929,o),
(816,855,c),
(813,1016,l),
(813,1215,l),
(710,1215,l),
(690,1357,l)
);
},
{
closed = 1;
nodes = (
(813,650,ls),
(813,739,o),
(685,859,o),
(545,859,cs),
(333,859,o),
(282,676,o),
(282,496,cs),
(282,300,o),
(351,122,o),
(539,122,cs),
(731,122,o),
(813,250,o),
(813,338,cs)
);
}
);
};
layerId = "01C703B5-1257-45FB-9F79-4B1C4C3BA1BB";
shapes = (
{
closed = 1;
nodes = (
(1000,1357,l),
(1000,0,l),
(838,0,l),
(831,53,ls),
(827,84,o),
(825,116,o),
(822,132,c),
(737,23,o),
(630,-17,o),
(543,-17,cs),
(225,-17,o),
(100,205,o),
(100,502,cs),
(100,771,o),
(223,1000,o),
(536,1000,cs),
(671,1000,o),
(760,929,o),
(816,855,c),
(813,1016,l),
(813,1215,l),
(710,1215,l),
(690,1357,l)
);
},
{
closed = 1;
nodes = (
(813,650,ls),
(813,739,o),
(685,859,o),
(545,859,cs),
(333,859,o),
(282,676,o),
(282,496,cs),
(282,300,o),
(351,122,o),
(539,122,cs),
(731,122,o),
(813,250,o),
(813,338,cs)
);
}
);
width = 1159;
}
);
unicode = 100;
},
{
glyphname = dcaron;
lastChange = "2023-07-13 14:31:29 +0000";
layers = (
{
background = {
anchors = (
{
name = bottom;
pos = (580,0);
},
{
name = center;
pos = (580,492);
},
{
name = top;
pos = (580,2030);
},
{
name = topright;
pos = (1139,2030);
}
);
shapes = (
{
closed = 1;
nodes = (
(1183,865,l),
(1295,1357,l),
(1517,1357,l),
(1323,865,l)
);
},
{
closed = 1;
nodes = (
(1000,1357,l),
(1000,0,l),
(838,0,l),
(831,53,ls),
(827,84,o),
(825,116,o),
(822,132,c),
(737,23,o),
(630,-17,o),
(543,-17,cs),
(225,-17,o),
(100,205,o),
(100,502,cs),
(100,771,o),
(223,1000,o),
(536,1000,cs),
(671,1000,o),
(760,929,o),
(816,855,c),
(813,1016,l),
(813,1215,l),
(710,1215,l),
(690,1357,l)
);
},
{
closed = 1;
nodes = (
(813,650,ls),
(813,739,o),
(685,859,o),
(545,859,cs),
(333,859,o),
(282,676,o),
(282,496,cs),
(282,300,o),
(351,122,o),
(539,122,cs),
(731,122,o),
(813,250,o),
(813,338,cs)
);
}
);
};
layerId = "01C703B5-1257-45FB-9F79-4B1C4C3BA1BB";
shapes = (
{
ref = d;
},
{
pos = (302,1046);
ref = caroncomb;
}
);
width = 1159;
}
);
unicode = 271;
},
{
glyphname = dcroat;
lastChange = "2023-07-13 14:31:16 +0000";
layers = (
{
background = {
anchors = (
{
name = bottom;
pos = (580,0);
},
{
name = center;
pos = (580,492);
},
{
name = top;
pos = (580,2030);
},
{
name = topright;
pos = (1139,2030);
}
);
shapes = (
{
closed = 1;
nodes = (
(1000,1357,l),
(1000,0,l),
(838,0,l),
(831,53,ls),
(827,84,o),
(825,116,o),
(822,132,c),
(737,23,o),
(630,-17,o),
(543,-17,cs),
(225,-17,o),
(100,205,o),
(100,502,cs),
(100,771,o),
(223,1000,o),
(536,1000,cs),
(671,1000,o),
(760,929,o),
(816,855,c),
(813,1016,l),
(813,1215,l),
(710,1215,l),
(690,1357,l)
);
},
{
closed = 1;
nodes = (
(813,650,ls),
(813,739,o),
(685,859,o),
(545,859,cs),
(333,859,o),
(282,676,o),
(282,496,cs),
(282,300,o),
(351,122,o),
(539,122,cs),
(731,122,o),
(813,250,o),
(813,338,cs)
);
},
{
closed = 1;
nodes = (
(335,439,l),
(335,606,l),
(824,606,l),
(824,439,l)
);
}
);
};
layerId = "01C703B5-1257-45FB-9F79-4B1C4C3BA1BB";
shapes = (
{
alignment = -1;
ref = d;
},
{
alignment = -1;
pos = (192,0);
ref = hyphen;
}
);
width = 1159;
}
);
unicode = 273;
},
{
glyphname = eth;
lastChange = "2023-07-13 14:31:02 +0000";
layers = (
{
anchors = (
{
name = bottom;
pos = (551,0);
},
{
name = top;
pos = (551,2030);
}
);
background = {
anchors = (
{
name = bottom;
pos = (551,0);
},
{
name = top;
pos = (551,2030);
}
);
shapes = (
{
closed = 1;
nodes = (
(510,1076,l),
(697,1145,l),
(632,1229,o),
(549,1267,o),
(453,1267,cs),
(384,1267,o),
(296,1247,o),
(204,1206,c),
(151,1328,l),
(265,1381,o),
(370,1408,o),
(465,1408,cs),
(614,1408,o),
(751,1335,o),
(843,1202,c),
(1045,1280,l),
(1078,1173,l),
(896,1106,l),
(950,981,o),
(977,826,o),
(977,643,cs),
(977,119,o),
(744,-22,o),
(512,-22,cs),
(276,-22,o),
(79,129,o),
(79,435,cs),
(79,712,o),
(257,861,o),
(486,861,cs),
(608,861,o),
(712,808,o),
(798,702,c),
(798,854,o),
(782,957,o),
(749,1048,c),
(726,1041,o),
(677,1022,o),
(630,1004,cs),
(543,970,l)
);
},
{
closed = 1;
nodes = (
(355,723,o),
(254,614,o),
(254,436,cs),
(254,244,o),
(353,122,o),
(513,122,cs),
(673,122,o),
(788,264,o),
(788,449,cs),
(788,600,o),
(683,723,o),
(518,723,cs)
);
}
);
};
layerId = "01C703B5-1257-45FB-9F79-4B1C4C3BA1BB";
shapes = (
{
closed = 1;
nodes = (
(510,1076,l),
(697,1145,l),
(632,1229,o),
(549,1267,o),
(453,1267,cs),
(384,1267,o),
(296,1247,o),
(204,1206,c),
(151,1328,l),
(265,1381,o),
(370,1408,o),
(465,1408,cs),
(614,1408,o),
(751,1335,o),
(843,1202,c),
(1045,1280,l),
(1078,1173,l),
(896,1106,l),
(950,981,o),
(977,826,o),
(977,643,cs),
(977,119,o),
(744,-22,o),
(512,-22,cs),
(276,-22,o),
(79,129,o),
(79,435,cs),
(79,712,o),
(257,861,o),
(486,861,cs),
(608,861,o),
(712,808,o),
(798,702,c),
(798,854,o),
(782,957,o),
(749,1048,c),
(726,1041,o),
(677,1022,o),
(630,1004,cs),
(543,970,l)
);
},
{
closed = 1;
nodes = (
(355,723,o),
(254,614,o),
(254,436,cs),
(254,244,o),
(353,122,o),
(513,122,cs),
(673,122,o),
(788,264,o),
(788,449,cs),
(788,600,o),
(683,723,o),
(518,723,cs)
);
}
);
width = 1102;
}
);
unicode = 240;
},
{
glyphname = e;
lastChange = "2023-07-13 14:31:02 +0000";
layers = (
{
anchors = (
{
name = bottom;
pos = (522,0);
},
{
name = ogonek;
pos = (939,10);
},
{
name = top;
pos = (522,984);
}
);
background = {
anchors = (
{
name = bottom;
pos = (522,0);
},
{
name = ogonek;
pos = (939,10);
},
{
name = top;
pos = (522,984);
}
);
shapes = (
{
closed = 1;
nodes = (
(925,79,l),
(805,15,o),
(684,-17,o),
(567,-17,cs),
(311,-17,o),
(99,143,o),
(99,490,cs),
(99,760,o),
(234,1000,o),
(538,1000,cs),
(826,1000,o),
(951,792,o),
(951,544,cs),
(951,463,l),
(285,463,l),
(285,445,ls),
(285,218,o),
(417,120,o),
(581,120,cs),
(673,120,o),
(772,150,o),
(868,207,c)
);
},
{
closed = 1;
nodes = (
(403,859,o),
(291,778,o),
(291,591,c),
(755,591,l),
(750,734,o),
(703,859,o),
(534,859,cs)
);
}
);
};
layerId = "01C703B5-1257-45FB-9F79-4B1C4C3BA1BB";
shapes = (
{
closed = 1;
nodes = (
(925,79,l),
(805,15,o),
(684,-17,o),
(567,-17,cs),
(311,-17,o),
(99,143,o),
(99,490,cs),
(99,760,o),
(234,1000,o),
(538,1000,cs),
(826,1000,o),
(951,792,o),
(951,544,cs),
(951,463,l),
(285,463,l),
(285,445,ls),
(285,218,o),
(417,120,o),
(581,120,cs),
(673,120,o),
(772,150,o),
(868,207,c)
);
},
{
closed = 1;
nodes = (
(403,859,o),
(291,778,o),
(291,591,c),
(755,591,l),
(750,734,o),
(703,859,o),
(534,859,cs)
);
}
);
width = 1043;
}
);
unicode = 101;
},
{
glyphname = eacute;
lastChange = "2023-07-13 14:31:29 +0000";
layers = (
{
background = {
anchors = (
{
name = bottom;
pos = (522,0);
},
{
name = ogonek;
pos = (939,10);
},
{
name = top;
pos = (522,984);
}
);
shapes = (
{
closed = 1;
nodes = (
(473,1123,l),
(641,1432,l),
(860,1432,l),
(604,1123,l)
);
},
{
closed = 1;
nodes = (
(925,79,l),
(805,15,o),
(684,-17,o),
(567,-17,cs),
(311,-17,o),
(99,143,o),
(99,490,cs),
(99,760,o),
(234,1000,o),
(538,1000,cs),
(826,1000,o),
(951,792,o),
(951,544,cs),
(951,463,l),
(285,463,l),
(285,445,ls),
(285,218,o),
(417,120,o),
(581,120,cs),
(673,120,o),
(772,150,o),
(868,207,c)
);
},
{
closed = 1;
nodes = (
(403,859,o),
(291,778,o),
(291,591,c),
(755,591,l),
(750,734,o),
(703,859,o),
(534,859,cs)
);
}
);
};
layerId = "01C703B5-1257-45FB-9F79-4B1C4C3BA1BB";
shapes = (
{
ref = e;
},
{
pos = (79,0);
ref = acutecomb;
}
);
width = 1043;
}
);
unicode = 233;
},
{
glyphname = ecaron;
lastChange = "2023-07-13 14:31:29 +0000";
layers = (
{
background = {
anchors = (
{
name = bottom;
pos = (522,0);
},
{
name = ogonek;
pos = (939,10);
},
{
name = top;
pos = (522,984);
}
);
shapes = (
{
closed = 1;
nodes = (
(629,1123,l),
(445,1123,l),
(222,1433,l),
(399,1433,l),
(535,1253,l),
(666,1433,l),
(853,1433,l)
);
},
{
closed = 1;
nodes = (
(925,79,l),
(805,15,o),
(684,-17,o),
(567,-17,cs),
(311,-17,o),
(99,143,o),
(99,490,cs),
(99,760,o),
(234,1000,o),
(538,1000,cs),
(826,1000,o),
(951,792,o),
(951,544,cs),
(951,463,l),
(285,463,l),
(285,445,ls),
(285,218,o),
(417,120,o),
(581,120,cs),
(673,120,o),
(772,150,o),
(868,207,c)
);
},
{
closed = 1;
nodes = (
(403,859,o),
(291,778,o),
(291,591,c),
(755,591,l),
(750,734,o),
(703,859,o),
(534,859,cs)
);
}
);
};
layerId = "01C703B5-1257-45FB-9F79-4B1C4C3BA1BB";
shapes = (
{
ref = e;
},
{
pos = (244,0);
ref = caroncomb;
}
);
width = 1043;
}
);
unicode = 283;
},
{
glyphname = ecircumflex;
lastChange = "2023-07-13 14:31:29 +0000";
layers = (
{
background = {
anchors = (
{
name = bottom;
pos = (522,0);
},
{
name = ogonek;
pos = (939,10);
},
{
name = top;
pos = (522,984);
}
);
shapes = (
{
closed = 1;
nodes = (
(699,1123,l),
(536,1349,l),
(370,1123,l),
(189,1123,l),
(449,1481,l),
(631,1481,l),
(887,1123,l)
);
},
{
closed = 1;
nodes = (
(925,79,l),
(805,15,o),
(684,-17,o),
(567,-17,cs),
(311,-17,o),
(99,143,o),
(99,490,cs),
(99,760,o),
(234,1000,o),
(538,1000,cs),
(826,1000,o),
(951,792,o),
(951,544,cs),
(951,463,l),
(285,463,l),
(285,445,ls),
(285,218,o),
(417,120,o),
(581,120,cs),
(673,120,o),
(772,150,o),
(868,207,c)
);
},
{
closed = 1;
nodes = (
(403,859,o),
(291,778,o),
(291,591,c),
(755,591,l),
(750,734,o),
(703,859,o),
(534,859,cs)
);
}
);
};
layerId = "01C703B5-1257-45FB-9F79-4B1C4C3BA1BB";
shapes = (
{
ref = e;
},
{
pos = (120,0);
ref = circumflexcomb;
}
);
width = 1043;
}
);
unicode = 234;
},
{
glyphname = edblgrave;
lastChange = "2023-07-13 14:31:29 +0000";
layers = (
{
background = {
anchors = (
{
name = bottom;
pos = (522,0);
},
{
name = ogonek;
pos = (939,10);
},
{
name = top;
pos = (522,984);
}
);
shapes = (
{
closed = 1;
nodes = (
(761,1123,l),
(625,1123,l),
(377,1416,l),
(594,1416,l)
);
},
{
closed = 1;
nodes = (
(453,1123,l),
(316,1123,l),
(68,1416,l),
(284,1416,l)
);
},
{
closed = 1;
nodes = (
(925,79,l),
(805,15,o),
(684,-17,o),
(567,-17,cs),
(311,-17,o),
(99,143,o),
(99,490,cs),
(99,760,o),
(234,1000,o),
(538,1000,cs),
(826,1000,o),
(951,792,o),
(951,544,cs),
(951,463,l),
(285,463,l),
(285,445,ls),
(285,218,o),
(417,120,o),
(581,120,cs),
(673,120,o),
(772,150,o),
(868,207,c)
);
},
{
closed = 1;
nodes = (
(403,859,o),
(291,778,o),
(291,591,c),
(755,591,l),
(750,734,o),
(703,859,o),
(534,859,cs)
);
}
);
};
layerId = "01C703B5-1257-45FB-9F79-4B1C4C3BA1BB";
shapes = (
{
ref = e;
},
{
ref = dblgravecomb;
}
);
width = 1043;
}
);
unicode = 517;
},
{
glyphname = edieresis;
lastChange = "2023-07-13 14:31:29 +0000";
layers = (
{
background = {
anchors = (
{
name = bottom;
pos = (522,0);
},
{
name = ogonek;
pos = (939,10);
},
{
name = top;
pos = (522,984);
}
);
shapes = (
{
closed = 1;
nodes = (
(460,1295,l),
(460,1123,l),
(238,1123,l),
(238,1295,l)
);
},
{
closed = 1;
nodes = (
(838,1295,l),
(838,1123,l),
(616,1123,l),
(616,1295,l)
);
},
{
closed = 1;
nodes = (
(925,79,l),
(805,15,o),
(684,-17,o),
(567,-17,cs),
(311,-17,o),
(99,143,o),
(99,490,cs),
(99,760,o),
(234,1000,o),
(538,1000,cs),
(826,1000,o),
(951,792,o),
(951,544,cs),
(951,463,l),
(285,463,l),
(285,445,ls),
(285,218,o),
(417,120,o),
(581,120,cs),
(673,120,o),
(772,150,o),
(868,207,c)
);
},
{
closed = 1;
nodes = (
(403,859,o),
(291,778,o),
(291,591,c),
(755,591,l),
(750,734,o),
(703,859,o),
(534,859,cs)
);
}
);
};
layerId = "01C703B5-1257-45FB-9F79-4B1C4C3BA1BB";
shapes = (
{
ref = e;
},
{
pos = (117,0);
ref = dieresiscomb;
}
);
width = 1043;
}
);
unicode = 235;
},
{
color = 9;
glyphname = edotaccent;
lastChange = "2023-07-13 14:31:29 +0000";
layers = (
{
background = {
anchors = (
{
name = bottom;
pos = (522,0);
},
{
name = ogonek;
pos = (939,10);
},
{
name = top;
pos = (522,1410);
}
);
shapes = (
{
closed = 1;
nodes = (
(925,79,l),
(805,15,o),
(684,-17,o),
(567,-17,cs),
(311,-17,o),
(99,143,o),
(99,490,cs),
(99,760,o),
(234,1000,o),
(538,1000,cs),
(826,1000,o),
(951,792,o),
(951,544,cs),
(951,463,l),
(285,463,l),
(285,445,ls),
(285,218,o),
(417,120,o),
(581,120,cs),
(673,120,o),
(772,150,o),
(868,207,c)
);
},
{
closed = 1;
nodes = (
(403,859,o),
(291,778,o),
(291,591,c),
(755,591,l),
(750,734,o),
(703,859,o),
(534,859,cs)
);
},
{
closed = 1;
nodes = (
(427,1410,l),
(617,1410,l),
(617,1197,l),
(427,1197,l)
);
}
);
};
layerId = "01C703B5-1257-45FB-9F79-4B1C4C3BA1BB";
shapes = (
{
ref = e;
},
{
pos = (250,0);
ref = dotaccentcomb;
}
);
width = 1043;
}
);
unicode = 279;
},
{
glyphname = egrave;
lastChange = "2023-07-13 14:31:29 +0000";
layers = (
{
background = {
anchors = (
{
name = bottom;
pos = (522,0);
},
{
name = ogonek;
pos = (939,10);
},
{
name = top;
pos = (522,984);
}
);
shapes = (
{
closed = 1;
nodes = (
(473,1123,l),
(200,1432,l),
(430,1432,l),
(602,1123,l)
);
},
{
closed = 1;
nodes = (
(925,79,l),
(805,15,o),
(684,-17,o),
(567,-17,cs),
(311,-17,o),
(99,143,o),
(99,490,cs),
(99,760,o),
(234,1000,o),
(538,1000,cs),
(826,1000,o),
(951,792,o),
(951,544,cs),
(951,463,l),
(285,463,l),
(285,445,ls),
(285,218,o),
(417,120,o),
(581,120,cs),
(673,120,o),
(772,150,o),
(868,207,c)
);
},
{
closed = 1;
nodes = (
(403,859,o),
(291,778,o),
(291,591,c),
(755,591,l),
(750,734,o),
(703,859,o),
(534,859,cs)
);
}
);
};
layerId = "01C703B5-1257-45FB-9F79-4B1C4C3BA1BB";
shapes = (
{
ref = e;
},
{
pos = (159,0);
ref = gravecomb;
}
);
width = 1043;
}
);
unicode = 232;
},
{
glyphname = einvertedbreve;
lastChange = "2023-07-13 14:31:29 +0000";
layers = (
{
background = {
anchors = (
{
name = bottom;
pos = (522,0);
},
{
name = ogonek;
pos = (939,10);
},
{
name = top;
pos = (522,984);
}
);
shapes = (
{
closed = 1;
nodes = (
(267,1123,l),
(267,1212,o),
(279,1442,o),
(534,1442,cs),
(719,1442,o),
(805,1332,o),
(808,1123,c),
(709,1123,l),
(704,1174,o),
(683,1305,o),
(534,1305,cs),
(423,1305,o),
(374,1236,o),
(367,1123,c)
);
},
{
closed = 1;
nodes = (
(925,79,l),
(805,15,o),
(684,-17,o),
(567,-17,cs),
(311,-17,o),
(99,143,o),
(99,490,cs),
(99,760,o),
(234,1000,o),
(538,1000,cs),
(826,1000,o),
(951,792,o),
(951,544,cs),
(951,463,l),
(285,463,l),
(285,445,ls),
(285,218,o),
(417,120,o),
(581,120,cs),
(673,120,o),
(772,150,o),
(868,207,c)
);
},
{
closed = 1;
nodes = (
(403,859,o),
(291,778,o),
(291,591,c),
(755,591,l),
(750,734,o),
(703,859,o),
(534,859,cs)
);
}
);
};
layerId = "01C703B5-1257-45FB-9F79-4B1C4C3BA1BB";
shapes = (
{
ref = e;
},
{
ref = breveinvertedcomb;
}
);
width = 1043;
}
);
unicode = 519;
},
{
color = 9;
glyphname = emacron;
lastChange = "2023-07-13 14:31:29 +0000";
layers = (
{
background = {
anchors = (
{
name = bottom;
pos = (522,0);
},
{
name = ogonek;
pos = (939,10);
},
{
name = top;
pos = (522,1359);
}
);
shapes = (
{
closed = 1;
nodes = (
(925,79,l),
(805,15,o),
(684,-17,o),
(567,-17,cs),
(311,-17,o),
(99,143,o),
(99,490,cs),
(99,760,o),
(234,1000,o),
(538,1000,cs),
(826,1000,o),
(951,792,o),
(951,544,cs),
(951,463,l),
(285,463,l),
(285,445,ls),
(285,218,o),
(417,120,o),
(581,120,cs),
(673,120,o),
(772,150,o),
(868,207,c)
);
},
{
closed = 1;
nodes = (
(403,859,o),
(291,778,o),
(291,591,c),
(755,591,l),
(750,734,o),
(703,859,o),
(534,859,cs)
);
},
{
closed = 1;
nodes = (
(250,1359,l),
(793,1359,l),
(793,1242,l),
(250,1242,l)
);
}
);
};
layerId = "01C703B5-1257-45FB-9F79-4B1C4C3BA1BB";
shapes = (
{
ref = e;
},
{
pos = (253,0);
ref = macroncomb;
}
);
width = 1043;
}
);
unicode = 275;
},
{
glyphname = eogonek;
lastChange = "2023-07-13 14:31:29 +0000";
layers = (
{
background = {
anchors = (
{
name = bottom;
pos = (522,0);
},
{
name = ogonek;
pos = (939,10);
},
{
name = top;
pos = (522,984);
}
);
shapes = (
{
closed = 1;
nodes = (
(617,-3,l),
(526,-64,o),
(442,-125,o),
(442,-194,cs),
(442,-284,o),
(545,-284,o),
(561,-284,cs),
(598,-284,o),
(621,-273,o),
(653,-254,c),
(653,-350,l),
(602,-377,o),
(549,-402,o),
(466,-402,cs),
(325,-402,o),
(278,-315,o),
(278,-251,cs),
(278,-142,o),
(387,-59,o),
(518,-3,c)
);
},
{
closed = 1;
nodes = (
(925,79,l),
(805,15,o),
(684,-17,o),
(567,-17,cs),
(311,-17,o),
(99,143,o),
(99,490,cs),
(99,760,o),
(234,1000,o),
(538,1000,cs),
(826,1000,o),
(951,792,o),
(951,544,cs),
(951,463,l),
(285,463,l),
(285,445,ls),
(285,218,o),
(417,120,o),
(581,120,cs),
(673,120,o),
(772,150,o),
(868,207,c)
);
},
{
closed = 1;
nodes = (
(403,859,o),
(291,778,o),
(291,591,c),
(755,591,l),
(750,734,o),
(703,859,o),
(534,859,cs)
);
}
);
};
layerId = "01C703B5-1257-45FB-9F79-4B1C4C3BA1BB";
shapes = (
{
ref = e;
},
{
pos = (480,-5);
ref = ogonekcomb;
}
);
width = 1043;
}
);
unicode = 281;
},
{
glyphname = f;
lastChange = "2023-07-13 14:31:02 +0000";
layers = (
{
anchors = (
{
name = bottom;
pos = (343,0);
},
{
name = top;
pos = (343,2030);
}
);
background = {
anchors = (
{
name = bottom;
pos = (343,0);
},
{
name = top;
pos = (343,2030);
}
);
shapes = (
{
closed = 1;
nodes = (
(649,840,l),
(420,840,l),
(420,0,l),
(231,0,l),
(231,840,l),
(43,840,l),
(43,966,l),
(232,983,l),
(232,1021,ls),
(232,1241,o),
(298,1356,o),
(535,1356,cs),
(591,1356,o),
(653,1346,o),
(709,1331,c),
(685,1185,l),
(644,1193,o),
(600,1200,o),
(561,1200,cs),
(439,1200,o),
(420,1146,o),
(420,1042,cs),
(420,984,l),
(649,984,l)
);
}
);
};
layerId = "01C703B5-1257-45FB-9F79-4B1C4C3BA1BB";
shapes = (
{
closed = 1;
nodes = (
(649,840,l),
(420,840,l),
(420,0,l),
(231,0,l),
(231,840,l),
(43,840,l),
(43,966,l),
(232,983,l),
(232,1021,ls),
(232,1241,o),
(298,1356,o),
(535,1356,cs),
(591,1356,o),
(653,1346,o),
(709,1331,c),
(685,1185,l),
(644,1193,o),
(600,1200,o),
(561,1200,cs),
(439,1200,o),
(420,1146,o),
(420,1042,cs),
(420,984,l),
(649,984,l)
);
}
);
width = 686;
}
);
unicode = 102;
},
{
glyphname = g;
lastChange = "2023-07-13 14:31:02 +0000";
layers = (
{
anchors = (
{
name = bottom;
pos = (570,-639);
},
{
name = top;
pos = (570,984);
}
);
background = {
anchors = (
{
name = bottom;
pos = (570,-639);
},
{
name = top;
pos = (570,984);
}
);
shapes = (
{
closed = 1;
nodes = (
(950,395,o),
(744,295,o),
(532,295,cs),
(463,295,o),
(402,303,o),
(347,320,c),
(310,279,o),
(289,235,o),
(289,214,cs),
(289,175,o),
(294,151,o),
(377,151,cs),
(524,151,ls),
(761,151,o),
(1060,124,o),
(1060,-97,cs),
(1060,-354,o),
(885,-479,o),
(549,-495,c),
(294,-495,o),
(96,-390,o),
(96,-250,cs),
(96,-190,o),
(138,-76,o),
(245,7,c),
(242,23,l),
(199,26,o),
(118,58,o),
(118,155,cs),
(118,226,o),
(162,306,o),
(251,394,c),
(151,454,o),
(106,543,o),
(106,635,cs),
(106,812,o),
(248,1000,o),
(531,1000,cs),
(656,1000,o),
(743,963,o),
(816,903,c),
(879,945,o),
(973,996,o),
(1079,999,c),
(1109,794,l),
(1080,797,l),
(1064,800,o),
(1047,799,o),
(1039,800,c),
(1000,800,o),
(950,792,o),
(909,780,c),
(945,733,o),
(950,690,o),
(950,647,cs)
);
},
{
closed = 1;
nodes = (
(646,-341,o),
(727,-319,o),
(787,-283,cs),
(847,-247,o),
(880,-195,o),
(880,-95,cs),
(880,-34,o),
(771,-2,o),
(558,-2,cs),
(494,-2,o),
(432,-2,o),
(367,-1,c),
(311,-65,o),
(279,-178,o),
(279,-239,cs),
(279,-307,o),
(377,-341,o),
(553,-341,cs)
);
},
{
closed = 1;
nodes = (
(279,519,o),
(358,433,o),
(530,433,cs),
(734,433,o),
(786,544,o),
(786,654,cs),
(786,758,o),
(725,864,o),
(536,864,cs),
(406,864,o),
(279,806,o),
(279,642,cs)
);
}
);
};
layerId = "01C703B5-1257-45FB-9F79-4B1C4C3BA1BB";
shapes = (
{
closed = 1;
nodes = (
(950,395,o),
(744,295,o),
(532,295,cs),
(463,295,o),
(402,303,o),
(347,320,c),
(310,279,o),
(289,235,o),
(289,214,cs),
(289,175,o),
(294,151,o),
(377,151,cs),
(524,151,ls),
(761,151,o),
(1060,124,o),
(1060,-97,cs),
(1060,-354,o),
(885,-479,o),
(549,-495,c),
(294,-495,o),
(96,-390,o),
(96,-250,cs),
(96,-190,o),
(138,-76,o),
(245,7,c),
(242,23,l),
(199,26,o),
(118,58,o),
(118,155,cs),
(118,226,o),
(162,306,o),
(251,394,c),
(151,454,o),
(106,543,o),
(106,635,cs),
(106,812,o),
(248,1000,o),
(531,1000,cs),
(656,1000,o),
(743,963,o),
(816,903,c),
(879,945,o),
(973,996,o),
(1079,999,c),
(1109,794,l),
(1080,797,l),
(1064,800,o),
(1047,799,o),
(1039,800,c),
(1000,800,o),
(950,792,o),
(909,780,c),
(945,733,o),
(950,690,o),
(950,647,cs)
);
},
{
closed = 1;
nodes = (
(646,-341,o),
(727,-319,o),
(787,-283,cs),
(847,-247,o),
(880,-195,o),
(880,-95,cs),
(880,-34,o),
(771,-2,o),
(558,-2,cs),
(494,-2,o),
(432,-2,o),
(367,-1,c),
(311,-65,o),
(279,-178,o),
(279,-239,cs),
(279,-307,o),
(377,-341,o),
(553,-341,cs)
);
},
{
closed = 1;
nodes = (
(279,519,o),
(358,433,o),
(530,433,cs),
(734,433,o),
(786,544,o),
(786,654,cs),
(786,758,o),
(725,864,o),
(536,864,cs),
(406,864,o),
(279,806,o),
(279,642,cs)
);
}
);
width = 1139;
}
);
unicode = 103;
},
{
color = 9;
glyphname = gbreve;
lastChange = "2023-07-13 14:31:29 +0000";
layers = (
{
background = {
anchors = (
{
name = bottom;
pos = (570,-639);
},
{
name = top;
pos = (570,1472);
}
);
shapes = (
{
closed = 1;
nodes = (
(950,395,o),
(744,295,o),
(532,295,cs),
(463,295,o),
(402,303,o),
(347,320,c),
(310,279,o),
(289,235,o),
(289,214,cs),
(289,175,o),
(294,151,o),
(377,151,cs),
(524,151,ls),
(761,151,o),
(1060,124,o),
(1060,-97,cs),
(1060,-354,o),
(885,-479,o),
(549,-495,c),
(294,-495,o),
(96,-390,o),
(96,-250,cs),
(96,-190,o),
(138,-76,o),
(245,7,c),
(242,23,l),
(199,26,o),
(118,58,o),
(118,155,cs),
(118,226,o),
(162,306,o),
(251,394,c),
(151,454,o),
(106,543,o),
(106,635,cs),
(106,812,o),
(248,1000,o),
(531,1000,cs),
(656,1000,o),
(743,963,o),
(816,903,c),
(879,945,o),
(973,996,o),
(1079,999,c),
(1109,794,l),
(1080,797,l),
(1064,800,o),
(1047,799,o),
(1039,800,c),
(1000,800,o),
(950,792,o),
(909,780,c),
(945,733,o),
(950,690,o),
(950,647,cs)
);
},
{
closed = 1;
nodes = (
(646,-341,o),
(727,-319,o),
(787,-283,cs),
(847,-247,o),
(880,-195,o),
(880,-95,cs),
(880,-34,o),
(771,-2,o),
(558,-2,cs),
(494,-2,o),
(432,-2,o),
(367,-1,c),
(311,-65,o),
(279,-178,o),
(279,-239,cs),
(279,-307,o),
(377,-341,o),
(553,-341,cs)
);
},
{
closed = 1;
nodes = (
(279,519,o),
(358,433,o),
(530,433,cs),
(734,433,o),
(786,544,o),
(786,654,cs),
(786,758,o),
(725,864,o),
(536,864,cs),
(406,864,o),
(279,806,o),
(279,642,cs)
);
},
{
closed = 1;
nodes = (
(399,1472,l),
(406,1359,o),
(455,1290,o),
(566,1290,cs),
(715,1290,o),
(736,1421,o),
(741,1472,c),
(840,1472,l),
(837,1263,o),
(751,1153,o),
(566,1153,cs),
(311,1153,o),
(299,1382,o),
(299,1472,c)
);
}
);
};
layerId = "01C703B5-1257-45FB-9F79-4B1C4C3BA1BB";
shapes = (
{
ref = g;
},
{
pos = (298,0);
ref = brevecomb;
}
);
width = 1139;
}
);
unicode = 287;
},
{
color = 9;
glyphname = gdotaccent;
lastChange = "2023-07-13 14:31:29 +0000";
layers = (
{
background = {
anchors = (
{
name = bottom;
pos = (570,-639);
},
{
name = top;
pos = (570,1410);
}
);
shapes = (
{
closed = 1;
nodes = (
(950,395,o),
(744,295,o),
(532,295,cs),
(463,295,o),
(402,303,o),
(347,320,c),
(310,279,o),
(289,235,o),
(289,214,cs),
(289,175,o),
(294,151,o),
(377,151,cs),
(524,151,ls),
(761,151,o),
(1060,124,o),
(1060,-97,cs),
(1060,-354,o),
(885,-479,o),
(549,-495,c),
(294,-495,o),
(96,-390,o),
(96,-250,cs),
(96,-190,o),
(138,-76,o),
(245,7,c),
(242,23,l),
(199,26,o),
(118,58,o),
(118,155,cs),
(118,226,o),
(162,306,o),
(251,394,c),
(151,454,o),
(106,543,o),
(106,635,cs),
(106,812,o),
(248,1000,o),
(531,1000,cs),
(656,1000,o),
(743,963,o),
(816,903,c),
(879,945,o),
(973,996,o),
(1079,999,c),
(1109,794,l),
(1080,797,l),
(1064,800,o),
(1047,799,o),
(1039,800,c),
(1000,800,o),
(950,792,o),
(909,780,c),
(945,733,o),
(950,690,o),
(950,647,cs)
);
},
{
closed = 1;
nodes = (
(646,-341,o),
(727,-319,o),
(787,-283,cs),
(847,-247,o),
(880,-195,o),
(880,-95,cs),
(880,-34,o),
(771,-2,o),
(558,-2,cs),
(494,-2,o),
(432,-2,o),
(367,-1,c),
(311,-65,o),
(279,-178,o),
(279,-239,cs),
(279,-307,o),
(377,-341,o),
(553,-341,cs)
);
},
{
closed = 1;
nodes = (
(279,519,o),
(358,433,o),
(530,433,cs),
(734,433,o),
(786,544,o),
(786,654,cs),
(786,758,o),
(725,864,o),
(536,864,cs),
(406,864,o),
(279,806,o),
(279,642,cs)
);
},
{
closed = 1;
nodes = (
(475,1410,l),
(665,1410,l),
(665,1197,l),
(475,1197,l)
);
}
);
};
layerId = "01C703B5-1257-45FB-9F79-4B1C4C3BA1BB";
shapes = (
{
ref = g;
},
{
pos = (298,0);
ref = dotaccentcomb;
}
);
width = 1139;
}
);
unicode = 289;
},
{
glyphname = h;
lastChange = "2023-07-13 14:31:02 +0000";
layers = (
{
anchors = (
{
name = bottom;
pos = (575,0);
},
{
name = center;
pos = (575,1015);
},
{
name = top;
pos = (575,2030);
}
);
background = {
anchors = (
{
name = bottom;
pos = (575,0);
},
{
name = center;
pos = (575,1015);
},
{
name = top;
pos = (575,2030);
}
);
shapes = (
{
closed = 1;
nodes = (
(348,1357,l),
(348,1044,l),
(346,856,l),
(430,944,o),
(539,1000,o),
(652,1000,cs),
(891,1000,o),
(1002,861,o),
(1002,624,cs),
(1002,0,l),
(816,0,l),
(816,614,ls),
(816,729,o),
(781,859,o),
(608,859,cs),
(487,859,o),
(425,803,o),
(392,751,cs),
(357,695,o),
(348,610,o),
(348,526,cs),
(348,0,l),
(159,0,l),
(159,1215,l),
(57,1215,l),
(37,1357,l)
);
}
);
};
layerId = "01C703B5-1257-45FB-9F79-4B1C4C3BA1BB";
shapes = (
{
closed = 1;
nodes = (
(348,1357,l),
(348,1044,l),
(346,856,l),
(430,944,o),
(539,1000,o),
(652,1000,cs),
(891,1000,o),
(1002,861,o),
(1002,624,cs),
(1002,0,l),
(816,0,l),
(816,614,ls),
(816,729,o),
(781,859,o),
(608,859,cs),
(487,859,o),
(425,803,o),
(392,751,cs),
(357,695,o),
(348,610,o),
(348,526,cs),
(348,0,l),
(159,0,l),
(159,1215,l),
(57,1215,l),
(37,1357,l)
);
}
);
width = 1149;
}
);
unicode = 104;
},
{
glyphname = i;
lastChange = "2023-07-13 14:31:29 +0000";
layers = (
{
anchors = (
{
name = bottom;
pos = (276,0);
}
);
background = {
anchors = (
{
name = bottom;
pos = (276,0);
}
);
shapes = (
{
closed = 1;
nodes = (
(393,0,l),
(207,0,l),
(207,840,l),
(55,840,l),
(55,984,l),
(393,984,l)
);
},
{
closed = 1;
nodes = (
(411,1323,l),
(411,1157,l),
(189,1157,l),
(189,1323,l)
);
}
);
};
layerId = "01C703B5-1257-45FB-9F79-4B1C4C3BA1BB";
shapes = (
{
ref = idotless;
},
{
pos = (-23,0);
ref = dotaccentcomb;
}
);
width = 497;
}
);
unicode = 105;
},
{
glyphname = idotless;
lastChange = "2023-07-13 14:31:02 +0000";
layers = (
{
anchors = (
{
name = bottom;
pos = (249,0);
},
{
name = ogonek;
pos = (447,10);
},
{
name = top;
pos = (249,984);
}
);
background = {
anchors = (
{
name = bottom;
pos = (249,0);
},
{
name = ogonek;
pos = (447,10);
},
{
name = top;
pos = (249,984);
}
);
shapes = (
{
closed = 1;
nodes = (
(155,1019,l),
(339,1019,l),
(339,0,l),
(155,0,l)
);
}
);
};
layerId = "01C703B5-1257-45FB-9F79-4B1C4C3BA1BB";
shapes = (
{
closed = 1;
nodes = (
(155,1019,l),
(339,1019,l),
(339,0,l),
(155,0,l)
);
}
);
width = 497;
}
);
unicode = 305;
},
{
glyphname = iacute;
lastChange = "2023-07-13 14:31:29 +0000";
layers = (
{
background = {
anchors = (
{
name = bottom;
pos = (249,0);
},
{
name = ogonek;
pos = (447,10);
},
{
name = top;
pos = (249,984);
}
);
shapes = (
{
closed = 1;
nodes = (
(182,1142,l),
(350,1451,l),
(569,1451,l),
(313,1142,l)
);
},
{
closed = 1;
nodes = (
(155,1019,l),
(339,1019,l),
(339,0,l),
(155,0,l)
);
}
);
};
layerId = "01C703B5-1257-45FB-9F79-4B1C4C3BA1BB";
shapes = (
{
ref = idotless;
},
{
pos = (-194,0);
ref = acutecomb;
}
);
width = 497;
}
);
unicode = 237;
},
{
glyphname = icircumflex;
lastChange = "2023-07-13 14:31:29 +0000";
layers = (
{
background = {
anchors = (
{
name = bottom;
pos = (249,0);
},
{
name = ogonek;
pos = (447,10);
},
{
name = top;
pos = (249,984);
}
);
shapes = (
{
closed = 1;
nodes = (
(409,1142,l),
(246,1368,l),
(80,1142,l),
(-101,1142,l),
(159,1500,l),
(341,1500,l),
(597,1142,l)
);
},
{
closed = 1;
nodes = (
(155,1019,l),
(339,1019,l),
(339,0,l),
(155,0,l)
);
}
);
};
layerId = "01C703B5-1257-45FB-9F79-4B1C4C3BA1BB";
shapes = (
{
ref = idotless;
},
{
pos = (-153,0);
ref = circumflexcomb;
}
);
width = 497;
}
);
unicode = 238;
},
{
glyphname = idblgrave;
lastChange = "2023-07-13 14:31:29 +0000";
layers = (
{
background = {
anchors = (
{
name = bottom;
pos = (249,0);
},
{
name = ogonek;
pos = (447,10);
},
{
name = top;
pos = (249,984);
}
);
shapes = (
{
closed = 1;
nodes = (
(470,1142,l),
(334,1142,l),
(86,1435,l),
(303,1435,l)
);
},
{
closed = 1;
nodes = (
(162,1142,l),
(25,1142,l),
(-223,1435,l),
(-7,1435,l)
);
},
{
closed = 1;
nodes = (
(155,1019,l),
(339,1019,l),
(339,0,l),
(155,0,l)
);
}
);
};
layerId = "01C703B5-1257-45FB-9F79-4B1C4C3BA1BB";
shapes = (
{
ref = idotless;
},
{
ref = dblgravecomb;
}
);
width = 497;
}
);
unicode = 521;
},
{
glyphname = idieresis;
lastChange = "2023-07-13 14:31:29 +0000";
layers = (
{
background = {
anchors = (
{
name = bottom;
pos = (249,0);
},
{
name = ogonek;
pos = (447,10);
},
{
name = top;
pos = (249,984);
}
);
shapes = (
{
closed = 1;
nodes = (
(170,1314,l),
(170,1142,l),
(-52,1142,l),
(-52,1314,l)
);
},
{
closed = 1;
nodes = (
(548,1314,l),
(548,1142,l),
(326,1142,l),
(326,1314,l)
);
},
{
closed = 1;
nodes = (
(155,1019,l),
(339,1019,l),
(339,0,l),
(155,0,l)
);
}
);
};
layerId = "01C703B5-1257-45FB-9F79-4B1C4C3BA1BB";
shapes = (
{
ref = idotless;
},
{
pos = (-156,0);
ref = dieresiscomb;
}
);
width = 497;
}
);
unicode = 239;
},
{
color = 9;
glyphname = idotaccent;
lastChange = "2023-07-13 14:31:29 +0000";
layers = (
{
background = {
anchors = (
{
name = bottom;
pos = (249,0);
},
{
name = ogonek;
pos = (447,10);
},
{
name = top;
pos = (249,1410);
}
);
shapes = (
{
closed = 1;
nodes = (
(155,1019,l),
(339,1019,l),
(339,0,l),
(155,0,l)
);
},
{
closed = 1;
nodes = (
(154,1410,l),
(344,1410,l),
(344,1197,l),
(154,1197,l)
);
}
);
};
layerId = "01C703B5-1257-45FB-9F79-4B1C4C3BA1BB";
shapes = (
{
ref = idotless;
},
{
pos = (-23,0);
ref = dotaccentcomb;
}
);
width = 497;
}
);
},
{
glyphname = igrave;
lastChange = "2023-07-13 14:31:29 +0000";
layers = (
{
background = {
anchors = (
{
name = bottom;
pos = (249,0);
},
{
name = ogonek;
pos = (447,10);
},
{
name = top;
pos = (249,984);
}
);
shapes = (
{
closed = 1;
nodes = (
(184,1142,l),
(-89,1451,l),
(141,1451,l),
(313,1142,l)
);
},
{
closed = 1;
nodes = (
(155,1019,l),
(339,1019,l),
(339,0,l),
(155,0,l)
);
}
);
};
layerId = "01C703B5-1257-45FB-9F79-4B1C4C3BA1BB";
shapes = (
{
ref = idotless;
},
{
pos = (-114,0);
ref = gravecomb;
}
);
width = 497;
}
);
unicode = 236;
},
{
glyphname = iinvertedbreve;
lastChange = "2023-07-13 14:31:29 +0000";
layers = (
{
background = {
anchors = (
{
name = bottom;
pos = (249,0);
},
{
name = ogonek;
pos = (447,10);
},
{
name = top;
pos = (249,984);
}
);
shapes = (
{
closed = 1;
nodes = (
(-22,1142,l),
(-22,1231,o),
(-10,1461,o),
(245,1461,cs),
(430,1461,o),
(516,1351,o),
(519,1142,c),
(420,1142,l),
(415,1193,o),
(394,1324,o),
(245,1324,cs),
(134,1324,o),
(85,1255,o),
(78,1142,c)
);
},
{
closed = 1;
nodes = (
(155,1019,l),
(339,1019,l),
(339,0,l),
(155,0,l)
);
}
);
};
layerId = "01C703B5-1257-45FB-9F79-4B1C4C3BA1BB";
shapes = (
{
ref = idotless;
},
{
ref = breveinvertedcomb;
}
);
width = 497;
}
);
unicode = 523;
},
{
color = 9;
glyphname = imacron;
lastChange = "2023-07-13 14:31:29 +0000";
layers = (
{
background = {
anchors = (
{
name = bottom;
pos = (249,0);
},
{
name = ogonek;
pos = (447,10);
},
{
name = top;
pos = (249,1359);
}
);
shapes = (
{
closed = 1;
nodes = (
(155,1019,l),
(339,1019,l),
(339,0,l),
(155,0,l)
);
},
{
closed = 1;
nodes = (
(-23,1359,l),
(520,1359,l),
(520,1242,l),
(-23,1242,l)
);
}
);
};
layerId = "01C703B5-1257-45FB-9F79-4B1C4C3BA1BB";
shapes = (
{
ref = idotless;
},
{
pos = (-20,0);
ref = macroncomb;
}
);
width = 497;
}
);
unicode = 299;
},
{
color = 9;
glyphname = iogonek;
lastChange = "2023-07-13 14:31:29 +0000";
layers = (
{
background = {
anchors = (
{
name = bottom;
pos = (249,0);
},
{
name = ogonek;
pos = (447,10);
},
{
name = top;
pos = (249,1410);
}
);
shapes = (
{
closed = 1;
nodes = (
(155,1019,l),
(339,1019,l),
(339,0,l),
(155,0,l)
);
},
{
closed = 1;
nodes = (
(154,1410,l),
(344,1410,l),
(344,1197,l),
(154,1197,l)
);
},
{
closed = 1;
nodes = (
(411,10,l),
(320,-51,o),
(236,-112,o),
(236,-181,cs),
(236,-271,o),
(339,-271,o),
(355,-271,cs),
(392,-271,o),
(415,-260,o),
(447,-241,c),
(447,-337,l),
(396,-364,o),
(343,-389,o),
(260,-389,cs),
(119,-389,o),
(72,-302,o),
(72,-238,cs),
(72,-129,o),
(181,-46,o),
(312,10,c)
);
}
);
};
layerId = "01C703B5-1257-45FB-9F79-4B1C4C3BA1BB";
shapes = (
{
ref = idotless;
},
{
pos = (-23,0);
ref = dotaccentcomb;
},
{
pos = (-12,-5);
ref = ogonekcomb;
}
);
width = 497;
}
);
unicode = 303;
},
{
color = 9;
glyphname = ij;
lastChange = "2023-07-13 14:31:32 +0000";
layers = (
{
background = {
anchors = (
{
name = bottom;
pos = (276,0);
}
);
shapes = (
{
closed = 1;
nodes = (
(393,0,l),
(207,0,l),
(207,840,l),
(55,840,l),
(55,984,l),
(393,984,l)
);
},
{
closed = 1;
nodes = (
(411,1323,l),
(411,1157,l),
(189,1157,l),
(189,1323,l)
);
},
{
closed = 1;
nodes = (
(629,-429,o),
(589,-423,o),
(549,-408,c),
(549,-261,l),
(585,-272,o),
(613,-278,o),
(644,-278,cs),
(721,-278,o),
(762,-247,o),
(762,-127,cs),
(762,840,l),
(611,840,l),
(611,984,l),
(951,984,l),
(951,-124,ls),
(951,-289,o),
(882,-429,o),
(677,-429,cs)
);
},
{
closed = 1;
nodes = (
(972,1323,l),
(972,1157,l),
(751,1157,l),
(751,1323,l)
);
}
);
};
layerId = "01C703B5-1257-45FB-9F79-4B1C4C3BA1BB";
shapes = (
{
ref = i;
},
{
pos = (497,0);
ref = j;
}
);
width = 1697;
}
);
unicode = 307;
},
{
glyphname = j;
lastChange = "2023-07-13 14:31:29 +0000";
layers = (
{
background = {
shapes = (
{
closed = 1;
nodes = (
(77,-429,o),
(37,-423,o),
(-3,-408,c),
(-3,-261,l),
(33,-272,o),
(61,-278,o),
(92,-278,cs),
(169,-278,o),
(210,-247,o),
(210,-127,cs),
(210,840,l),
(59,840,l),
(59,984,l),
(399,984,l),
(399,-124,ls),
(399,-289,o),
(330,-429,o),
(125,-429,cs)
);
},
{
closed = 1;
nodes = (
(420,1323,l),
(420,1157,l),
(199,1157,l),
(199,1323,l)
);
}
);
};
layerId = "01C703B5-1257-45FB-9F79-4B1C4C3BA1BB";
shapes = (
{
ref = jdotless;
},
{
pos = (328,0);
ref = dotaccentcomb;
}
);
width = 1200;
}
);
unicode = 106;
},
{
glyphname = k;
lastChange = "2023-07-13 14:31:02 +0000";
layers = (
{
anchors = (
{
name = bottom;
pos = (521,0);
},
{
name = top;
pos = (521,2030);
}
);
background = {
anchors = (
{
name = bottom;
pos = (521,0);
},
{
name = top;
pos = (521,2030);
}
);
shapes = (
{
closed = 1;
nodes = (
(348,1357,l),
(348,551,l),
(478,620,ls),
(658,716,o),
(756,863,o),
(803,984,c),
(999,984,l),
(938,775,o),
(828,636,o),
(676,533,c),
(1028,0,l),
(817,0,l),
(517,473,l),
(348,387,l),
(348,0,l),
(158,0,l),
(158,1215,l),
(56,1215,l),
(36,1357,l)
);
}
);
};
layerId = "01C703B5-1257-45FB-9F79-4B1C4C3BA1BB";
shapes = (
{
closed = 1;
nodes = (
(348,1357,l),
(348,551,l),
(478,620,ls),
(658,716,o),
(756,863,o),
(803,984,c),
(999,984,l),
(938,775,o),
(828,636,o),
(676,533,c),
(1028,0,l),
(817,0,l),
(517,473,l),
(348,387,l),
(348,0,l),
(158,0,l),
(158,1215,l),
(56,1215,l),
(36,1357,l)
);
}
);
width = 1041;
}
);
unicode = 107;
},
{
color = 9;
glyphname = kcommaaccent;
lastChange = "2023-07-13 14:31:29 +0000";
layers = (
{
background = {
anchors = (
{
name = bottom;
pos = (521,0);
},
{
name = top;
pos = (521,2030);
}
);
shapes = (
{
closed = 1;
nodes = (
(348,1357,l),
(348,551,l),
(478,620,ls),
(658,716,o),
(756,863,o),
(803,984,c),
(999,984,l),
(938,775,o),
(828,636,o),
(676,533,c),
(1028,0,l),
(817,0,l),
(517,473,l),
(348,387,l),
(348,0,l),
(158,0,l),
(158,1215,l),
(56,1215,l),
(36,1357,l)
);
},
{
closed = 1;
nodes = (
(38,-599,l),
(150,-107,l),
(372,-107,l),
(178,-599,l)
);
}
);
};
layerId = "01C703B5-1257-45FB-9F79-4B1C4C3BA1BB";
shapes = (
{
ref = k;
},
{
ref = commaaccentcomb;
}
);
width = 1041;
}
);
unicode = 311;
},
{
glyphname = l;
lastChange = "2023-07-13 14:31:02 +0000";
layers = (
{
anchors = (
{
name = bottom;
pos = (282,0);
},
{
name = center;
pos = (282,1015);
},
{
name = top;
pos = (282,2030);
},
{
name = topright;
pos = (543,2030);
}
);
background = {
anchors = (
{
name = bottom;
pos = (282,0);
},
{
name = center;
pos = (282,1015);
},
{
name = top;
pos = (282,2030);
},
{
name = topright;
pos = (543,2030);
}
);
shapes = (
{
closed = 1;
nodes = (
(369,1357,l),
(369,370,ls),
(369,166,o),
(369,131,o),
(524,131,c),
(494,-17,l),
(180,-17,o),
(180,113,o),
(180,421,cs),
(180,1215,l),
(78,1215,l),
(58,1357,l)
);
}
);
};
layerId = "01C703B5-1257-45FB-9F79-4B1C4C3BA1BB";
shapes = (
{
closed = 1;
nodes = (
(369,1357,l),
(369,370,ls),
(369,166,o),
(369,131,o),
(524,131,c),
(494,-17,l),
(180,-17,o),
(180,113,o),
(180,421,cs),
(180,1215,l),
(78,1215,l),
(58,1357,l)
);
}
);
width = 563;
}
);
unicode = 108;
},
{
glyphname = lacute;
lastChange = "2023-07-13 14:31:29 +0000";
layers = (
{
background = {
anchors = (
{
name = bottom;
pos = (282,0);
},
{
name = center;
pos = (282,1015);
},
{
name = top;
pos = (282,2030);
},
{
name = topright;
pos = (543,2030);
}
);
shapes = (
{
closed = 1;
nodes = (
(149,1479,l),
(317,1788,l),
(536,1788,l),
(280,1479,l)
);
},
{
closed = 1;
nodes = (
(369,1357,l),
(369,370,ls),
(369,166,o),
(369,131,o),
(524,131,c),
(494,-17,l),
(180,-17,o),
(180,113,o),
(180,421,cs),
(180,1215,l),
(78,1215,l),
(58,1357,l)
);
}
);
};
layerId = "01C703B5-1257-45FB-9F79-4B1C4C3BA1BB";
shapes = (
{
ref = l;
},
{
pos = (-161,1046);
ref = acutecomb;
}
);
width = 563;
}
);
unicode = 314;
},
{
glyphname = lcaron;
lastChange = "2023-07-13 14:31:29 +0000";
layers = (
{
background = {
anchors = (
{
name = bottom;
pos = (282,0);
},
{
name = center;
pos = (282,1015);
},
{
name = top;
pos = (282,2030);
},
{
name = topright;
pos = (543,2030);
}
);
shapes = (
{
closed = 1;
nodes = (
(552,865,l),
(664,1357,l),
(886,1357,l),
(692,865,l)
);
},
{
closed = 1;
nodes = (
(369,1357,l),
(369,370,ls),
(369,166,o),
(369,131,o),
(524,131,c),
(494,-17,l),
(180,-17,o),
(180,113,o),
(180,421,cs),
(180,1215,l),
(78,1215,l),
(58,1357,l)
);
}
);
};
layerId = "01C703B5-1257-45FB-9F79-4B1C4C3BA1BB";
shapes = (
{
ref = l;
},
{
pos = (4,1046);
ref = caroncomb;
}
);
width = 563;
}
);
unicode = 318;
},
{
color = 9;
glyphname = lcommaaccent;
lastChange = "2023-07-13 14:31:29 +0000";
layers = (
{
background = {
anchors = (
{
name = bottom;
pos = (282,0);
},
{
name = center;
pos = (282,1015);
},
{
name = top;
pos = (282,2030);
},
{
name = topright;
pos = (543,2030);
}
);
shapes = (
{
closed = 1;
nodes = (
(369,1357,l),
(369,370,ls),
(369,166,o),
(369,131,o),
(524,131,c),
(494,-17,l),
(180,-17,o),
(180,113,o),
(180,421,cs),
(180,1215,l),
(78,1215,l),
(58,1357,l)
);
},
{
closed = 1;
nodes = (
(38,-599,l),
(150,-107,l),
(372,-107,l),
(178,-599,l)
);
}
);
};
layerId = "01C703B5-1257-45FB-9F79-4B1C4C3BA1BB";
shapes = (
{
ref = l;
},
{
ref = commaaccentcomb;
}
);
width = 563;
}
);
unicode = 316;
},
{
glyphname = lslash;
lastChange = "2023-07-13 14:31:02 +0000";
layers = (
{
background = {
shapes = (
{
closed = 1;
nodes = (
(392,571,l),
(35,443,l),
(35,606,l),
(392,735,l),
(392,1449,l),
(581,1449,l),
(581,804,l),
(943,934,l),
(943,770,l),
(581,639,l),
(581,0,l),
(392,0,l)
);
}
);
};
layerId = "01C703B5-1257-45FB-9F79-4B1C4C3BA1BB";
shapes = (
{
closed = 1;
nodes = (
(392,571,l),
(35,443,l),
(35,606,l),
(392,735,l),
(392,1449,l),
(581,1449,l),
(581,804,l),
(943,934,l),
(943,770,l),
(581,639,l),
(581,0,l),
(392,0,l)
);
}
);
width = 973;
}
);
unicode = 322;
},
{
glyphname = m;
lastChange = "2023-07-13 14:31:02 +0000";
layers = (
{
anchors = (
{
name = bottom;
pos = (909,0);
},
{
name = top;
pos = (909,984);
}
);
background = {
anchors = (
{
name = bottom;
pos = (909,0);
},
{
name = top;
pos = (909,984);
}
);
shapes = (
{
closed = 1;
nodes = (
(203,0,l),
(203,840,l),
(81,840,l),
(71,984,l),
(378,984,l),
(388,857,l),
(484,961,o),
(595,1000,o),
(684,1000,cs),
(852,1000,o),
(941,931,o),
(997,832,c),
(1056,920,o),
(1163,1000,o),
(1320,1000,cs),
(1499,1000,o),
(1669,920,o),
(1669,646,cs),
(1669,0,l),
(1483,0,l),
(1483,637,ls),
(1483,793,o),
(1416,859,o),
(1279,859,cs),
(1046,859,o),
(1031,684,o),
(1031,552,cs),
(1031,0,l),
(844,0,l),
(844,646,ls),
(844,779,o),
(777,859,o),
(644,859,cs),
(535,859,o),
(468,806,o),
(439,764,cs),
(400,708,o),
(392,630,o),
(392,542,cs),
(392,0,l)
);
}
);
};
layerId = "01C703B5-1257-45FB-9F79-4B1C4C3BA1BB";
shapes = (
{
closed = 1;
nodes = (
(203,0,l),
(203,840,l),
(81,840,l),
(71,984,l),
(378,984,l),
(388,857,l),
(484,961,o),
(595,1000,o),
(684,1000,cs),
(852,1000,o),
(941,931,o),
(997,832,c),
(1056,920,o),
(1163,1000,o),
(1320,1000,cs),
(1499,1000,o),
(1669,920,o),
(1669,646,cs),
(1669,0,l),
(1483,0,l),
(1483,637,ls),
(1483,793,o),
(1416,859,o),
(1279,859,cs),
(1046,859,o),
(1031,684,o),
(1031,552,cs),
(1031,0,l),
(844,0,l),
(844,646,ls),
(844,779,o),
(777,859,o),
(644,859,cs),
(535,859,o),
(468,806,o),
(439,764,cs),
(400,708,o),
(392,630,o),
(392,542,cs),
(392,0,l)
);
}
);
width = 1817;
}
);
unicode = 109;
},
{
glyphname = n;
lastChange = "2023-07-13 14:31:02 +0000";
layers = (
{
anchors = (
{
name = bottom;
pos = (598,0);
},
{
name = top;
pos = (598,984);
}
);
background = {
anchors = (
{
name = bottom;
pos = (598,0);
},
{
name = top;
pos = (598,984);
}
);
shapes = (
{
closed = 1;
nodes = (
(862,0,l),
(862,635,ls),
(862,780,o),
(787,859,o),
(650,859,cs),
(489,859,o),
(392,752,o),
(392,545,cs),
(392,0,l),
(203,0,l),
(203,840,l),
(101,840,l),
(81,984,l),
(378,984,l),
(388,858,l),
(469,950,o),
(550,1000,o),
(696,1000,cs),
(842,1000,o),
(1048,928,o),
(1048,650,cs),
(1048,0,l)
);
}
);
};
layerId = "01C703B5-1257-45FB-9F79-4B1C4C3BA1BB";
shapes = (
{
closed = 1;
nodes = (
(862,0,l),
(862,635,ls),
(862,780,o),
(787,859,o),
(650,859,cs),
(489,859,o),
(392,752,o),
(392,545,cs),
(392,0,l),
(203,0,l),
(203,840,l),
(101,840,l),
(81,984,l),
(378,984,l),
(388,858,l),
(469,950,o),
(550,1000,o),
(696,1000,cs),
(842,1000,o),
(1048,928,o),
(1048,650,cs),
(1048,0,l)
);
}
);
width = 1196;
}
);
unicode = 110;
},
{
glyphname = nacute;
lastChange = "2023-07-13 14:31:29 +0000";
layers = (
{
background = {
anchors = (
{
name = bottom;
pos = (598,0);
},
{
name = top;
pos = (598,984);
}
);
shapes = (
{
closed = 1;
nodes = (
(499,1123,l),
(667,1432,l),
(886,1432,l),
(630,1123,l)
);
},
{
closed = 1;
nodes = (
(862,0,l),
(862,635,ls),
(862,780,o),
(787,859,o),
(650,859,cs),
(489,859,o),
(392,752,o),
(392,545,cs),
(392,0,l),
(203,0,l),
(203,840,l),
(101,840,l),
(81,984,l),
(378,984,l),
(388,858,l),
(469,950,o),
(550,1000,o),
(696,1000,cs),
(842,1000,o),
(1048,928,o),
(1048,650,cs),
(1048,0,l)
);
}
);
};
layerId = "01C703B5-1257-45FB-9F79-4B1C4C3BA1BB";
shapes = (
{
ref = n;
},
{
pos = (155,0);
ref = acutecomb;
}
);
width = 1196;
}
);
unicode = 324;
},
{
glyphname = ncaron;
lastChange = "2023-07-13 14:31:29 +0000";
layers = (
{
background = {
anchors = (
{
name = bottom;
pos = (598,0);
},
{
name = top;
pos = (598,984);
}
);
shapes = (
{
closed = 1;
nodes = (
(656,1123,l),
(472,1123,l),
(249,1433,l),
(426,1433,l),
(562,1253,l),
(693,1433,l),
(880,1433,l)
);
},
{
closed = 1;
nodes = (
(862,0,l),
(862,635,ls),
(862,780,o),
(787,859,o),
(650,859,cs),
(489,859,o),
(392,752,o),
(392,545,cs),
(392,0,l),
(203,0,l),
(203,840,l),
(101,840,l),
(81,984,l),
(378,984,l),
(388,858,l),
(469,950,o),
(550,1000,o),
(696,1000,cs),
(842,1000,o),
(1048,928,o),
(1048,650,cs),
(1048,0,l)
);
}
);
};
layerId = "01C703B5-1257-45FB-9F79-4B1C4C3BA1BB";
shapes = (
{
ref = n;
},
{
pos = (320,0);
ref = caroncomb;
}
);
width = 1196;
}
);
unicode = 328;
},
{
color = 9;
glyphname = ncommaaccent;
lastChange = "2023-07-13 14:31:29 +0000";
layers = (
{
background = {
anchors = (
{
name = bottom;
pos = (598,0);
},
{
name = top;
pos = (598,984);
}
);
shapes = (
{
closed = 1;
nodes = (
(862,0,l),
(862,635,ls),
(862,780,o),
(787,859,o),
(650,859,cs),
(489,859,o),
(392,752,o),
(392,545,cs),
(392,0,l),
(203,0,l),
(203,840,l),
(101,840,l),
(81,984,l),
(378,984,l),
(388,858,l),
(469,950,o),
(550,1000,o),
(696,1000,cs),
(842,1000,o),
(1048,928,o),
(1048,650,cs),
(1048,0,l)
);
},
{
closed = 1;
nodes = (
(38,-599,l),
(150,-107,l),
(372,-107,l),
(178,-599,l)
);
}
);
};
layerId = "01C703B5-1257-45FB-9F79-4B1C4C3BA1BB";
shapes = (
{
ref = n;
},
{
ref = commaaccentcomb;
}
);
width = 1196;
}
);
unicode = 326;
},
{
glyphname = ntilde;
lastChange = "2023-07-13 14:31:29 +0000";
layers = (
{
background = {
anchors = (
{
name = bottom;
pos = (598,0);
},
{
name = top;
pos = (598,984);
}
);
shapes = (
{
closed = 1;
nodes = (
(614,1133,o),
(491,1209,o),
(438,1209,cs),
(395,1209,o),
(375,1186,o),
(354,1123,c),
(258,1123,l),
(258,1259,o),
(344,1354,o),
(444,1354,cs),
(527,1354,o),
(618,1281,o),
(691,1281,cs),
(738,1281,o),
(761,1312,o),
(772,1368,c),
(872,1368,l),
(864,1204,o),
(780,1133,o),
(686,1133,cs)
);
},
{
closed = 1;
nodes = (
(862,0,l),
(862,635,ls),
(862,780,o),
(787,859,o),
(650,859,cs),
(489,859,o),
(392,752,o),
(392,545,cs),
(392,0,l),
(203,0,l),
(203,840,l),
(101,840,l),
(81,984,l),
(378,984,l),
(388,858,l),
(469,950,o),
(550,1000,o),
(696,1000,cs),
(842,1000,o),
(1048,928,o),
(1048,650,cs),
(1048,0,l)
);
}
);
};
layerId = "01C703B5-1257-45FB-9F79-4B1C4C3BA1BB";
shapes = (
{
ref = n;
},
{
pos = (183,0);
ref = tildecomb;
}
);
width = 1196;
}
);
unicode = 241;
},
{
glyphname = o;
lastChange = "2023-07-13 14:31:02 +0000";
layers = (
{
anchors = (
{
name = bottom;
pos = (565,0);
},
{
name = center;
pos = (565,492);
},
{
name = ogonek;
pos = (1016,10);
},
{
name = top;
pos = (565,984);
},
{
name = topright;
pos = (1109,984);
}
);
background = {
anchors = (
{
name = bottom;
pos = (565,0);
},
{
name = center;
pos = (565,492);
},
{
name = ogonek;
pos = (1016,10);
},
{
name = top;
pos = (565,984);
},
{
name = topright;
pos = (1109,984);
}
);
shapes = (
{
closed = 1;
nodes = (
(1031,190,o),
(867,-17,o),
(560,-17,cs),
(269,-17,o),
(98,184,o),
(98,483,cs),
(98,763,o),
(238,1000,o),
(572,1000,cs),
(900,1000,o),
(1031,751,o),
(1031,492,cs)
);
},
{
closed = 1;
nodes = (
(284,271,o),
(365,122,o),
(564,122,cs),
(725,122,o),
(844,230,o),
(844,488,cs),
(844,731,o),
(751,859,o),
(570,859,cs),
(421,859,o),
(284,752,o),
(284,484,cs)
);
}
);
};
layerId = "01C703B5-1257-45FB-9F79-4B1C4C3BA1BB";
shapes = (
{
closed = 1;
nodes = (
(1031,190,o),
(867,-17,o),
(560,-17,cs),
(269,-17,o),
(98,184,o),
(98,483,cs),
(98,763,o),
(238,1000,o),
(572,1000,cs),
(900,1000,o),
(1031,751,o),
(1031,492,cs)
);
},
{
closed = 1;
nodes = (
(284,271,o),
(365,122,o),
(564,122,cs),
(725,122,o),
(844,230,o),
(844,488,cs),
(844,731,o),
(751,859,o),
(570,859,cs),
(421,859,o),
(284,752,o),
(284,484,cs)
);
}
);
width = 1129;
}
);
unicode = 111;
},
{
glyphname = oacute;
lastChange = "2023-07-13 14:31:29 +0000";
layers = (
{
background = {
anchors = (
{
name = bottom;
pos = (565,0);
},
{
name = center;
pos = (565,492);
},
{
name = ogonek;
pos = (1016,10);
},
{
name = top;
pos = (565,984);
},
{
name = topright;
pos = (1109,984);
}
);
shapes = (
{
closed = 1;
nodes = (
(507,1123,l),
(675,1432,l),
(894,1432,l),
(638,1123,l)
);
},
{
closed = 1;
nodes = (
(1031,190,o),
(867,-17,o),
(560,-17,cs),
(269,-17,o),
(98,184,o),
(98,483,cs),
(98,763,o),
(238,1000,o),
(572,1000,cs),
(900,1000,o),
(1031,751,o),
(1031,492,cs)
);
},
{
closed = 1;
nodes = (
(284,271,o),
(365,122,o),
(564,122,cs),
(725,122,o),
(844,230,o),
(844,488,cs),
(844,731,o),
(751,859,o),
(570,859,cs),
(421,859,o),
(284,752,o),
(284,484,cs)
);
}
);
};
layerId = "01C703B5-1257-45FB-9F79-4B1C4C3BA1BB";
shapes = (
{
ref = o;
},
{
pos = (122,0);
ref = acutecomb;
}
);
width = 1129;
}
);
unicode = 243;
},
{
glyphname = ocircumflex;
lastChange = "2023-07-13 14:31:29 +0000";
layers = (
{
background = {
anchors = (
{
name = bottom;
pos = (565,0);
},
{
name = center;
pos = (565,492);
},
{
name = ogonek;
pos = (1016,10);
},
{
name = top;
pos = (565,984);
},
{
name = topright;
pos = (1109,984);
}
);
shapes = (
{
closed = 1;
nodes = (
(733,1123,l),
(570,1349,l),
(404,1123,l),
(223,1123,l),
(483,1481,l),
(665,1481,l),
(921,1123,l)
);
},
{
closed = 1;
nodes = (
(1031,190,o),
(867,-17,o),
(560,-17,cs),
(269,-17,o),
(98,184,o),
(98,483,cs),
(98,763,o),
(238,1000,o),
(572,1000,cs),
(900,1000,o),
(1031,751,o),
(1031,492,cs)
);
},
{
closed = 1;
nodes = (
(284,271,o),
(365,122,o),
(564,122,cs),
(725,122,o),
(844,230,o),
(844,488,cs),
(844,731,o),
(751,859,o),
(570,859,cs),
(421,859,o),
(284,752,o),
(284,484,cs)
);
}
);
};
layerId = "01C703B5-1257-45FB-9F79-4B1C4C3BA1BB";
shapes = (
{
ref = o;
},
{
pos = (163,0);
ref = circumflexcomb;
}
);
width = 1129;
}
);
unicode = 244;
},
{
glyphname = odblgrave;
lastChange = "2023-07-13 14:31:29 +0000";
layers = (
{
background = {
anchors = (
{
name = bottom;
pos = (565,0);
},
{
name = center;
pos = (565,492);
},
{
name = ogonek;
pos = (1016,10);
},
{
name = top;
pos = (565,984);
},
{
name = topright;
pos = (1109,984);
}
);
shapes = (
{
closed = 1;
nodes = (
(795,1123,l),
(659,1123,l),
(411,1416,l),
(628,1416,l)
);
},
{
closed = 1;
nodes = (
(487,1123,l),
(350,1123,l),
(102,1416,l),
(318,1416,l)
);
},
{
closed = 1;
nodes = (
(1031,190,o),
(867,-17,o),
(560,-17,cs),
(269,-17,o),
(98,184,o),
(98,483,cs),
(98,763,o),
(238,1000,o),
(572,1000,cs),
(900,1000,o),
(1031,751,o),
(1031,492,cs)
);
},
{
closed = 1;
nodes = (
(284,271,o),
(365,122,o),
(564,122,cs),
(725,122,o),
(844,230,o),
(844,488,cs),
(844,731,o),
(751,859,o),
(570,859,cs),
(421,859,o),
(284,752,o),
(284,484,cs)
);
}
);
};
layerId = "01C703B5-1257-45FB-9F79-4B1C4C3BA1BB";
shapes = (
{
ref = o;
},
{
ref = dblgravecomb;
}
);
width = 1129;
}
);
unicode = 525;
},
{
glyphname = odieresis;
lastChange = "2023-07-13 14:31:29 +0000";
layers = (
{
background = {
anchors = (
{
name = bottom;
pos = (565,0);
},
{
name = center;
pos = (565,492);
},
{
name = ogonek;
pos = (1016,10);
},
{
name = top;
pos = (565,984);
},
{
name = topright;
pos = (1109,984);
}
);
shapes = (
{
closed = 1;
nodes = (
(494,1295,l),
(494,1123,l),
(272,1123,l),
(272,1295,l)
);
},
{
closed = 1;
nodes = (
(872,1295,l),
(872,1123,l),
(650,1123,l),
(650,1295,l)
);
},
{
closed = 1;
nodes = (
(1031,190,o),
(867,-17,o),
(560,-17,cs),
(269,-17,o),
(98,184,o),
(98,483,cs),
(98,763,o),
(238,1000,o),
(572,1000,cs),
(900,1000,o),
(1031,751,o),
(1031,492,cs)
);
},
{
closed = 1;
nodes = (
(284,271,o),
(365,122,o),
(564,122,cs),
(725,122,o),
(844,230,o),
(844,488,cs),
(844,731,o),
(751,859,o),
(570,859,cs),
(421,859,o),
(284,752,o),
(284,484,cs)
);
}
);
};
layerId = "01C703B5-1257-45FB-9F79-4B1C4C3BA1BB";
shapes = (
{
ref = o;
},
{
pos = (160,0);
ref = dieresiscomb;
}
);
width = 1129;
}
);
unicode = 246;
},
{
glyphname = ograve;
lastChange = "2023-07-13 14:31:29 +0000";
layers = (
{
background = {
anchors = (
{
name = bottom;
pos = (565,0);
},
{
name = center;
pos = (565,492);
},
{
name = ogonek;
pos = (1016,10);
},
{
name = top;
pos = (565,984);
},
{
name = topright;
pos = (1109,984);
}
);
shapes = (
{
closed = 1;
nodes = (
(507,1123,l),
(234,1432,l),
(464,1432,l),
(636,1123,l)
);
},
{
closed = 1;
nodes = (
(1031,190,o),
(867,-17,o),
(560,-17,cs),
(269,-17,o),
(98,184,o),
(98,483,cs),
(98,763,o),
(238,1000,o),
(572,1000,cs),
(900,1000,o),
(1031,751,o),
(1031,492,cs)
);
},
{
closed = 1;
nodes = (
(284,271,o),
(365,122,o),
(564,122,cs),
(725,122,o),
(844,230,o),
(844,488,cs),
(844,731,o),
(751,859,o),
(570,859,cs),
(421,859,o),
(284,752,o),
(284,484,cs)
);
}
);
};
layerId = "01C703B5-1257-45FB-9F79-4B1C4C3BA1BB";
shapes = (
{
ref = o;
},
{
pos = (202,0);
ref = gravecomb;
}
);
width = 1129;
}
);
unicode = 242;
},
{
glyphname = ohungarumlaut;
lastChange = "2023-07-13 14:31:29 +0000";
layers = (
{
background = {
anchors = (
{
name = bottom;
pos = (565,0);
},
{
name = center;
pos = (565,492);
},
{
name = ogonek;
pos = (1016,10);
},
{
name = top;
pos = (565,984);
},
{
name = topright;
pos = (1109,984);
}
);
shapes = (
{
closed = 1;
nodes = (
(517,1416,l),
(734,1416,l),
(486,1123,l),
(350,1123,l)
);
},
{
closed = 1;
nodes = (
(827,1416,l),
(1043,1416,l),
(795,1123,l),
(658,1123,l)
);
},
{
closed = 1;
nodes = (
(1031,190,o),
(867,-17,o),
(560,-17,cs),
(269,-17,o),
(98,184,o),
(98,483,cs),
(98,763,o),
(238,1000,o),
(572,1000,cs),
(900,1000,o),
(1031,751,o),
(1031,492,cs)
);
},
{
closed = 1;
nodes = (
(284,271,o),
(365,122,o),
(564,122,cs),
(725,122,o),
(844,230,o),
(844,488,cs),
(844,731,o),
(751,859,o),
(570,859,cs),
(421,859,o),
(284,752,o),
(284,484,cs)
);
}
);
};
layerId = "01C703B5-1257-45FB-9F79-4B1C4C3BA1BB";
shapes = (
{
ref = o;
},
{
pos = (150,0);
ref = hungarumlautcomb;
}
);
width = 1129;
}
);
unicode = 337;
},
{
glyphname = oinvertedbreve;
lastChange = "2023-07-13 14:31:29 +0000";
layers = (
{
background = {
anchors = (
{
name = bottom;
pos = (565,0);
},
{
name = center;
pos = (565,492);
},
{
name = ogonek;
pos = (1016,10);
},
{
name = top;
pos = (565,984);
},
{
name = topright;
pos = (1109,984);
}
);
shapes = (
{
closed = 1;
nodes = (
(301,1123,l),
(301,1212,o),
(313,1442,o),
(568,1442,cs),
(753,1442,o),
(839,1332,o),
(842,1123,c),
(743,1123,l),
(738,1174,o),
(717,1305,o),
(568,1305,cs),
(457,1305,o),
(408,1236,o),
(401,1123,c)
);
},
{
closed = 1;
nodes = (
(1031,190,o),
(867,-17,o),
(560,-17,cs),
(269,-17,o),
(98,184,o),
(98,483,cs),
(98,763,o),
(238,1000,o),
(572,1000,cs),
(900,1000,o),
(1031,751,o),
(1031,492,cs)
);
},
{
closed = 1;
nodes = (
(284,271,o),
(365,122,o),
(564,122,cs),
(725,122,o),
(844,230,o),
(844,488,cs),
(844,731,o),
(751,859,o),
(570,859,cs),
(421,859,o),
(284,752,o),
(284,484,cs)
);
}
);
};
layerId = "01C703B5-1257-45FB-9F79-4B1C4C3BA1BB";
shapes = (
{
ref = o;
},
{
ref = breveinvertedcomb;
}
);
width = 1129;
}
);
unicode = 527;
},
{
color = 9;
glyphname = omacron;
lastChange = "2023-07-13 14:31:29 +0000";
layers = (
{
background = {
anchors = (
{
name = bottom;
pos = (565,0);
},
{
name = center;
pos = (565,492);
},
{
name = ogonek;
pos = (1016,10);
},
{
name = top;
pos = (565,1359);
},
{
name = topright;
pos = (1109,984);
}
);
shapes = (
{
closed = 1;
nodes = (
(1031,190,o),
(867,-17,o),
(560,-17,cs),
(269,-17,o),
(98,184,o),
(98,483,cs),
(98,763,o),
(238,1000,o),
(572,1000,cs),
(900,1000,o),
(1031,751,o),
(1031,492,cs)
);
},
{
closed = 1;
nodes = (
(284,271,o),
(365,122,o),
(564,122,cs),
(725,122,o),
(844,230,o),
(844,488,cs),
(844,731,o),
(751,859,o),
(570,859,cs),
(421,859,o),
(284,752,o),
(284,484,cs)
);
},
{
closed = 1;
nodes = (
(293,1359,l),
(836,1359,l),
(836,1242,l),
(293,1242,l)
);
}
);
};
layerId = "01C703B5-1257-45FB-9F79-4B1C4C3BA1BB";
shapes = (
{
ref = o;
},
{
pos = (296,0);
ref = macroncomb;
}
);
width = 1129;
}
);
unicode = 333;
},
{
glyphname = oslash;
lastChange = "2023-07-13 14:31:02 +0000";
layers = (
{
anchors = (
{
name = top;
pos = (565,984);
}
);
background = {
anchors = (
{
name = top;
pos = (565,984);
}
);
shapes = (
{
closed = 1;
nodes = (
(1031,200,o),
(867,-19,o),
(560,-19,cs),
(480,-19,o),
(410,-3,o),
(349,26,c),
(262,-119,l),
(133,-85,l),
(244,99,l),
(148,191,o),
(98,328,o),
(98,503,cs),
(98,795,o),
(238,1041,o),
(572,1041,cs),
(656,1041,o),
(724,1024,o),
(784,995,c),
(890,1171,l),
(1021,1136,l),
(889,918,l),
(988,816,o),
(1031,667,o),
(1031,512,cs)
);
},
{
closed = 1;
nodes = (
(284,404,o),
(300,318,o),
(337,253,c),
(703,861,l),
(664,884,o),
(620,895,o),
(570,895,cs),
(421,895,o),
(284,784,o),
(284,504,cs)
);
},
{
closed = 1;
nodes = (
(725,127,o),
(844,239,o),
(844,508,cs),
(844,611,o),
(827,696,o),
(794,761,c),
(429,158,l),
(466,137,o),
(511,127,o),
(564,127,cs)
);
}
);
};
layerId = "01C703B5-1257-45FB-9F79-4B1C4C3BA1BB";
shapes = (
{
closed = 1;
nodes = (
(1031,200,o),
(867,-19,o),
(560,-19,cs),
(480,-19,o),
(410,-3,o),
(349,26,c),
(262,-119,l),
(133,-85,l),
(244,99,l),
(148,191,o),
(98,328,o),
(98,503,cs),
(98,795,o),
(238,1041,o),
(572,1041,cs),
(656,1041,o),
(724,1024,o),
(784,995,c),
(890,1171,l),
(1021,1136,l),
(889,918,l),
(988,816,o),
(1031,667,o),
(1031,512,cs)
);
},
{
closed = 1;
nodes = (
(284,404,o),
(300,318,o),
(337,253,c),
(703,861,l),
(664,884,o),
(620,895,o),
(570,895,cs),
(421,895,o),
(284,784,o),
(284,504,cs)
);
},
{
closed = 1;
nodes = (
(725,127,o),
(844,239,o),
(844,508,cs),
(844,611,o),
(827,696,o),
(794,761,c),
(429,158,l),
(466,137,o),
(511,127,o),
(564,127,cs)
);
}
);
width = 1129;
}
);
unicode = 248;
},
{
glyphname = otilde;
lastChange = "2023-07-13 14:31:29 +0000";
layers = (
{
background = {
anchors = (
{
name = bottom;
pos = (565,0);
},
{
name = center;
pos = (565,492);
},
{
name = ogonek;
pos = (1016,10);
},
{
name = top;
pos = (565,984);
},
{
name = topright;
pos = (1109,984);
}
);
shapes = (
{
closed = 1;
nodes = (
(621,1133,o),
(498,1209,o),
(445,1209,cs),
(402,1209,o),
(382,1186,o),
(361,1123,c),
(265,1123,l),
(265,1259,o),
(351,1354,o),
(451,1354,cs),
(534,1354,o),
(625,1281,o),
(698,1281,cs),
(745,1281,o),
(768,1312,o),
(779,1368,c),
(879,1368,l),
(871,1204,o),
(787,1133,o),
(693,1133,cs)
);
},
{
closed = 1;
nodes = (
(1031,190,o),
(867,-17,o),
(560,-17,cs),
(269,-17,o),
(98,184,o),
(98,483,cs),
(98,763,o),
(238,1000,o),
(572,1000,cs),
(900,1000,o),
(1031,751,o),
(1031,492,cs)
);
},
{
closed = 1;
nodes = (
(284,271,o),
(365,122,o),
(564,122,cs),
(725,122,o),
(844,230,o),
(844,488,cs),
(844,731,o),
(751,859,o),
(570,859,cs),
(421,859,o),
(284,752,o),
(284,484,cs)
);
}
);
};
layerId = "01C703B5-1257-45FB-9F79-4B1C4C3BA1BB";
shapes = (
{
ref = o;
},
{
pos = (150,0);
ref = tildecomb;
}
);
width = 1129;
}
);
unicode = 245;
},
{
glyphname = oe;
lastChange = "2023-07-13 14:31:16 +0000";
layers = (
{
background = {
anchors = (
{
name = bottom;
pos = (1269,0);
},
{
name = center;
pos = (565,492);
},
{
name = ogonek;
pos = (1686,10);
},
{
name = top;
pos = (1269,984);
},
{
name = topright;
pos = (1109,984);
}
);
shapes = (
{
closed = 1;
nodes = (
(1031,190,o),
(867,-17,o),
(560,-17,cs),
(269,-17,o),
(98,184,o),
(98,483,cs),
(98,763,o),
(238,1000,o),
(572,1000,cs),
(900,1000,o),
(1031,751,o),
(1031,492,cs)
);
},
{
closed = 1;
nodes = (
(284,271,o),
(365,122,o),
(564,122,cs),
(725,122,o),
(844,230,o),
(844,488,cs),
(844,731,o),
(751,859,o),
(570,859,cs),
(421,859,o),
(284,752,o),
(284,484,cs)
);
},
{
closed = 1;
nodes = (
(1672,79,l),
(1552,15,o),
(1431,-17,o),
(1314,-17,cs),
(1058,-17,o),
(846,143,o),
(846,490,cs),
(846,760,o),
(981,1000,o),
(1285,1000,cs),
(1573,1000,o),
(1698,792,o),
(1698,544,cs),
(1698,463,l),
(1032,463,l),
(1032,445,ls),
(1032,218,o),
(1164,120,o),
(1328,120,cs),
(1420,120,o),
(1519,150,o),
(1615,207,c)
);
},
{
closed = 1;
nodes = (
(1150,859,o),
(1038,778,o),
(1038,591,c),
(1502,591,l),
(1497,734,o),
(1450,859,o),
(1281,859,cs)
);
}
);
};
layerId = "01C703B5-1257-45FB-9F79-4B1C4C3BA1BB";
shapes = (
{
ref = o;
},
{
alignment = -1;
pos = (747,0);
ref = e;
}
);
width = 1790;
}
);
metricLeft = o;
metricRight = e;
unicode = 339;
},
{
glyphname = p;
lastChange = "2023-07-13 14:31:02 +0000";
layers = (
{
anchors = (
{
name = bottom;
pos = (580,0);
},
{
name = top;
pos = (580,984);
}
);
background = {
anchors = (
{
name = bottom;
pos = (580,0);
},
{
name = top;
pos = (580,984);
}
);
shapes = (
{
closed = 1;
nodes = (
(159,-400,l),
(159,691,l),
(159,984,l),
(330,984,l),
(343,837,l),
(431,962,o),
(556,1000,o),
(657,1000,cs),
(873,1000,o),
(1059,834,o),
(1059,490,cs),
(1059,145,o),
(866,-17,o),
(638,-17,cs),
(513,-17,o),
(417,34,o),
(341,107,c),
(346,-72,l),
(346,-400,l)
);
},
{
closed = 1;
nodes = (
(832,121,o),
(877,324,o),
(877,496,cs),
(877,700,o),
(813,859,o),
(621,859,cs),
(474,859,o),
(346,741,o),
(346,648,cs),
(346,348,ls),
(346,246,o),
(431,121,o),
(611,121,cs)
);
}
);
};
layerId = "01C703B5-1257-45FB-9F79-4B1C4C3BA1BB";
shapes = (
{
closed = 1;
nodes = (
(159,-400,l),
(159,691,l),
(159,984,l),
(330,984,l),
(343,837,l),
(431,962,o),
(556,1000,o),
(657,1000,cs),
(873,1000,o),
(1059,834,o),
(1059,490,cs),
(1059,145,o),
(866,-17,o),
(638,-17,cs),
(513,-17,o),
(417,34,o),
(341,107,c),
(346,-72,l),
(346,-400,l)
);
},
{
closed = 1;
nodes = (
(832,121,o),
(877,324,o),
(877,496,cs),
(877,700,o),
(813,859,o),
(621,859,cs),
(474,859,o),
(346,741,o),
(346,648,cs),
(346,348,ls),
(346,246,o),
(431,121,o),
(611,121,cs)
);
}
);
width = 1159;
}
);
unicode = 112;
},
{
glyphname = thorn;
lastChange = "2023-07-13 14:31:02 +0000";
layers = (
{
anchors = (
{
name = bottom;
pos = (583,0);
},
{
name = top;
pos = (583,984);
}
);
background = {
anchors = (
{
name = bottom;
pos = (583,0);
},
{
name = top;
pos = (583,984);
}
);
shapes = (
{
closed = 1;
nodes = (
(158,-416,l),
(158,170,o),
(159,321,o),
(159,471,cs),
(159,1449,l),
(345,1449,l),
(345,1124,l),
(343,892,l),
(404,966,o),
(500,1042,o),
(650,1042,cs),
(938,1042,o),
(1066,797,o),
(1066,522,cs),
(1066,263,o),
(951,-15,o),
(644,-15,cs),
(551,-15,o),
(430,29,o),
(340,132,c),
(345,19,l),
(345,-416,l)
);
},
{
closed = 1;
nodes = (
(344,361,o),
(372,135,o),
(609,135,cs),
(806,135,o),
(869,317,o),
(869,516,cs),
(869,685,o),
(825,895,o),
(613,895,cs),
(372,895,o),
(344,662,o),
(344,511,cs)
);
}
);
};
layerId = "01C703B5-1257-45FB-9F79-4B1C4C3BA1BB";
shapes = (
{
closed = 1;
nodes = (
(158,-416,l),
(158,170,o),
(159,321,o),
(159,471,cs),
(159,1449,l),
(345,1449,l),
(345,1124,l),
(343,892,l),
(404,966,o),
(500,1042,o),
(650,1042,cs),
(938,1042,o),
(1066,797,o),
(1066,522,cs),
(1066,263,o),
(951,-15,o),
(644,-15,cs),
(551,-15,o),
(430,29,o),
(340,132,c),
(345,19,l),
(345,-416,l)
);
},
{
closed = 1;
nodes = (
(344,361,o),
(372,135,o),
(609,135,cs),
(806,135,o),
(869,317,o),
(869,516,cs),
(869,685,o),
(825,895,o),
(613,895,cs),
(372,895,o),
(344,662,o),
(344,511,cs)
);
}
);
width = 1166;
}
);
unicode = 254;
},
{
glyphname = q;
lastChange = "2023-07-13 14:31:02 +0000";
layers = (
{
anchors = (
{
name = bottom;
pos = (578,0);
},
{
name = top;
pos = (578,984);
}
);
background = {
anchors = (
{
name = bottom;
pos = (578,0);
},
{
name = top;
pos = (578,984);
}
);
shapes = (
{
closed = 1;
nodes = (
(649,1000,o),
(748,915,o),
(816,836,c),
(829,984,l),
(1002,984,l),
(1002,952,o),
(997,792,o),
(997,772,cs),
(997,-400,l),
(811,-400,l),
(811,-72,ls),
(811,-12,o),
(814,74,o),
(817,111,c),
(724,20,o),
(611,-17,o),
(518,-17,cs),
(283,-17,o),
(101,146,o),
(101,491,cs),
(101,840,o),
(280,1000,o),
(499,1000,cs)
);
},
{
closed = 1;
nodes = (
(815,609,o),
(798,859,o),
(539,859,cs),
(323,859,o),
(287,645,o),
(287,496,cs),
(287,329,o),
(332,122,o),
(552,122,cs),
(755,122,o),
(815,262,o),
(815,457,cs)
);
}
);
};
layerId = "01C703B5-1257-45FB-9F79-4B1C4C3BA1BB";
shapes = (
{
closed = 1;
nodes = (
(649,1000,o),
(748,915,o),
(816,836,c),
(829,984,l),
(1002,984,l),
(1002,952,o),
(997,792,o),
(997,772,cs),
(997,-400,l),
(811,-400,l),
(811,-72,ls),
(811,-12,o),
(814,74,o),
(817,111,c),
(724,20,o),
(611,-17,o),
(518,-17,cs),
(283,-17,o),
(101,146,o),
(101,491,cs),
(101,840,o),
(280,1000,o),
(499,1000,cs)
);
},
{
closed = 1;
nodes = (
(815,609,o),
(798,859,o),
(539,859,cs),
(323,859,o),
(287,645,o),
(287,496,cs),
(287,329,o),
(332,122,o),
(552,122,cs),
(755,122,o),
(815,262,o),
(815,457,cs)
);
}
);
width = 1156;
}
);
unicode = 113;
},
{
glyphname = r;
lastChange = "2023-07-13 14:31:02 +0000";
layers = (
{
anchors = (
{
name = bottom;
pos = (375,0);
},
{
name = top;
pos = (375,984);
}
);
background = {
anchors = (
{
name = bottom;
pos = (375,0);
},
{
name = top;
pos = (375,984);
}
);
shapes = (
{
closed = 1;
nodes = (
(159,732,ls),
(159,765,o),
(153,923,o),
(153,984,c),
(328,984,l),
(337,814,l),
(424,949,o),
(549,1000,o),
(635,1000,cs),
(662,1000,o),
(695,998,o),
(723,994,c),
(711,818,l),
(675,825,o),
(644,829,o),
(611,829,cs),
(424,829,o),
(348,703,o),
(348,524,cs),
(348,0,l),
(159,0,l)
);
}
);
};
layerId = "01C703B5-1257-45FB-9F79-4B1C4C3BA1BB";
shapes = (
{
closed = 1;
nodes = (
(159,732,ls),
(159,765,o),
(153,923,o),
(153,984,c),
(328,984,l),
(337,814,l),
(424,949,o),
(549,1000,o),
(635,1000,cs),
(662,1000,o),
(695,998,o),
(723,994,c),
(711,818,l),
(675,825,o),
(644,829,o),
(611,829,cs),
(424,829,o),
(348,703,o),
(348,524,cs),
(348,0,l),
(159,0,l)
);
}
);
width = 749;
}
);
unicode = 114;
},
{
glyphname = racute;
lastChange = "2023-07-13 14:31:29 +0000";
layers = (
{
background = {
anchors = (
{
name = bottom;
pos = (375,0);
},
{
name = top;
pos = (375,984);
}
);
shapes = (
{
closed = 1;
nodes = (
(373,1123,l),
(541,1432,l),
(760,1432,l),
(504,1123,l)
);
},
{
closed = 1;
nodes = (
(159,732,ls),
(159,765,o),
(153,923,o),
(153,984,c),
(328,984,l),
(337,814,l),
(424,949,o),
(549,1000,o),
(635,1000,cs),
(662,1000,o),
(695,998,o),
(723,994,c),
(711,818,l),
(675,825,o),
(644,829,o),
(611,829,cs),
(424,829,o),
(348,703,o),
(348,524,cs),
(348,0,l),
(159,0,l)
);
}
);
};
layerId = "01C703B5-1257-45FB-9F79-4B1C4C3BA1BB";
shapes = (
{
ref = r;
},
{
pos = (-68,0);
ref = acutecomb;
}
);
width = 749;
}
);
unicode = 341;
},
{
glyphname = rcaron;
lastChange = "2023-07-13 14:31:29 +0000";
layers = (
{
background = {
anchors = (
{
name = bottom;
pos = (375,0);
},
{
name = top;
pos = (375,984);
}
);
shapes = (
{
closed = 1;
nodes = (
(529,1123,l),
(345,1123,l),
(122,1433,l),
(299,1433,l),
(435,1253,l),
(566,1433,l),
(753,1433,l)
);
},
{
closed = 1;
nodes = (
(159,732,ls),
(159,765,o),
(153,923,o),
(153,984,c),
(328,984,l),
(337,814,l),
(424,949,o),
(549,1000,o),
(635,1000,cs),
(662,1000,o),
(695,998,o),
(723,994,c),
(711,818,l),
(675,825,o),
(644,829,o),
(611,829,cs),
(424,829,o),
(348,703,o),
(348,524,cs),
(348,0,l),
(159,0,l)
);
}
);
};
layerId = "01C703B5-1257-45FB-9F79-4B1C4C3BA1BB";
shapes = (
{
ref = r;
},
{
pos = (97,0);
ref = caroncomb;
}
);
width = 749;
}
);
unicode = 345;
},
{
color = 9;
glyphname = rcommaaccent;
lastChange = "2023-07-13 14:31:29 +0000";
layers = (
{
background = {
anchors = (
{
name = bottom;
pos = (375,0);
},
{
name = top;
pos = (375,984);
}
);
shapes = (
{
closed = 1;
nodes = (
(159,732,ls),
(159,765,o),
(153,923,o),
(153,984,c),
(328,984,l),
(337,814,l),
(424,949,o),
(549,1000,o),
(635,1000,cs),
(662,1000,o),
(695,998,o),
(723,994,c),
(711,818,l),
(675,825,o),
(644,829,o),
(611,829,cs),
(424,829,o),
(348,703,o),
(348,524,cs),
(348,0,l),
(159,0,l)
);
},
{
closed = 1;
nodes = (
(38,-599,l),
(150,-107,l),
(372,-107,l),
(178,-599,l)
);
}
);
};
layerId = "01C703B5-1257-45FB-9F79-4B1C4C3BA1BB";
shapes = (
{
ref = r;
},
{
ref = commaaccentcomb;
}
);
width = 749;
}
);
unicode = 343;
},
